<mxfile host="app.diagrams.net" agent="Mozilla/5.0 (Windows NT 10.0; Win64; x64) AppleWebKit/537.36 (KHTML, like Gecko) Chrome/131.0.0.0 Safari/537.36" version="25.0.1">
  <diagram name="페이지-1" id="9j1jHB4osIvi_PJxddyw">
    <mxGraphModel dx="2876" dy="2223" grid="1" gridSize="10" guides="1" tooltips="1" connect="1" arrows="1" fold="1" page="1" pageScale="1" pageWidth="827" pageHeight="1169" math="0" shadow="0">
      <root>
        <mxCell id="0" />
        <mxCell id="1" parent="0" />
        <mxCell id="3iviCNAftZ1JlKYPXwVJ-1" value="선생님" style="shape=table;startSize=30;container=1;collapsible=1;childLayout=tableLayout;fixedRows=1;rowLines=0;fontStyle=1;align=center;resizeLast=1;html=1;" parent="1" vertex="1">
          <mxGeometry x="-220" y="290" width="180" height="90" as="geometry" />
        </mxCell>
        <mxCell id="3iviCNAftZ1JlKYPXwVJ-2" value="" style="shape=tableRow;horizontal=0;startSize=0;swimlaneHead=0;swimlaneBody=0;fillColor=none;collapsible=0;dropTarget=0;points=[[0,0.5],[1,0.5]];portConstraint=eastwest;top=0;left=0;right=0;bottom=1;" parent="3iviCNAftZ1JlKYPXwVJ-1" vertex="1">
          <mxGeometry y="30" width="180" height="30" as="geometry" />
        </mxCell>
        <mxCell id="3iviCNAftZ1JlKYPXwVJ-3" value="PK" style="shape=partialRectangle;connectable=0;fillColor=none;top=0;left=0;bottom=0;right=0;fontStyle=1;overflow=hidden;whiteSpace=wrap;html=1;" parent="3iviCNAftZ1JlKYPXwVJ-2" vertex="1">
          <mxGeometry width="30" height="30" as="geometry">
            <mxRectangle width="30" height="30" as="alternateBounds" />
          </mxGeometry>
        </mxCell>
        <mxCell id="3iviCNAftZ1JlKYPXwVJ-4" value="선생님ID" style="shape=partialRectangle;connectable=0;fillColor=none;top=0;left=0;bottom=0;right=0;align=left;spacingLeft=6;fontStyle=5;overflow=hidden;whiteSpace=wrap;html=1;" parent="3iviCNAftZ1JlKYPXwVJ-2" vertex="1">
          <mxGeometry x="30" width="150" height="30" as="geometry">
            <mxRectangle width="150" height="30" as="alternateBounds" />
          </mxGeometry>
        </mxCell>
        <mxCell id="3iviCNAftZ1JlKYPXwVJ-5" value="" style="shape=tableRow;horizontal=0;startSize=0;swimlaneHead=0;swimlaneBody=0;fillColor=none;collapsible=0;dropTarget=0;points=[[0,0.5],[1,0.5]];portConstraint=eastwest;top=0;left=0;right=0;bottom=0;" parent="3iviCNAftZ1JlKYPXwVJ-1" vertex="1">
          <mxGeometry y="60" width="180" height="30" as="geometry" />
        </mxCell>
        <mxCell id="3iviCNAftZ1JlKYPXwVJ-6" value="" style="shape=partialRectangle;connectable=0;fillColor=none;top=0;left=0;bottom=0;right=0;editable=1;overflow=hidden;whiteSpace=wrap;html=1;" parent="3iviCNAftZ1JlKYPXwVJ-5" vertex="1">
          <mxGeometry width="30" height="30" as="geometry">
            <mxRectangle width="30" height="30" as="alternateBounds" />
          </mxGeometry>
        </mxCell>
        <mxCell id="3iviCNAftZ1JlKYPXwVJ-7" value="이름" style="shape=partialRectangle;connectable=0;fillColor=none;top=0;left=0;bottom=0;right=0;align=left;spacingLeft=6;overflow=hidden;whiteSpace=wrap;html=1;" parent="3iviCNAftZ1JlKYPXwVJ-5" vertex="1">
          <mxGeometry x="30" width="150" height="30" as="geometry">
            <mxRectangle width="150" height="30" as="alternateBounds" />
          </mxGeometry>
        </mxCell>
        <mxCell id="3iviCNAftZ1JlKYPXwVJ-14" value="강좌" style="shape=table;startSize=30;container=1;collapsible=1;childLayout=tableLayout;fixedRows=1;rowLines=0;fontStyle=1;align=center;resizeLast=1;html=1;" parent="1" vertex="1">
          <mxGeometry x="380" y="80" width="180" height="270" as="geometry" />
        </mxCell>
        <mxCell id="3iviCNAftZ1JlKYPXwVJ-15" value="" style="shape=tableRow;horizontal=0;startSize=0;swimlaneHead=0;swimlaneBody=0;fillColor=none;collapsible=0;dropTarget=0;points=[[0,0.5],[1,0.5]];portConstraint=eastwest;top=0;left=0;right=0;bottom=1;" parent="3iviCNAftZ1JlKYPXwVJ-14" vertex="1">
          <mxGeometry y="30" width="180" height="30" as="geometry" />
        </mxCell>
        <mxCell id="3iviCNAftZ1JlKYPXwVJ-16" value="PK" style="shape=partialRectangle;connectable=0;fillColor=none;top=0;left=0;bottom=0;right=0;fontStyle=1;overflow=hidden;whiteSpace=wrap;html=1;" parent="3iviCNAftZ1JlKYPXwVJ-15" vertex="1">
          <mxGeometry width="30" height="30" as="geometry">
            <mxRectangle width="30" height="30" as="alternateBounds" />
          </mxGeometry>
        </mxCell>
        <mxCell id="3iviCNAftZ1JlKYPXwVJ-17" value="강좌ID" style="shape=partialRectangle;connectable=0;fillColor=none;top=0;left=0;bottom=0;right=0;align=left;spacingLeft=6;fontStyle=5;overflow=hidden;whiteSpace=wrap;html=1;" parent="3iviCNAftZ1JlKYPXwVJ-15" vertex="1">
          <mxGeometry x="30" width="150" height="30" as="geometry">
            <mxRectangle width="150" height="30" as="alternateBounds" />
          </mxGeometry>
        </mxCell>
        <mxCell id="3iviCNAftZ1JlKYPXwVJ-18" value="" style="shape=tableRow;horizontal=0;startSize=0;swimlaneHead=0;swimlaneBody=0;fillColor=none;collapsible=0;dropTarget=0;points=[[0,0.5],[1,0.5]];portConstraint=eastwest;top=0;left=0;right=0;bottom=0;" parent="3iviCNAftZ1JlKYPXwVJ-14" vertex="1">
          <mxGeometry y="60" width="180" height="30" as="geometry" />
        </mxCell>
        <mxCell id="3iviCNAftZ1JlKYPXwVJ-19" value="" style="shape=partialRectangle;connectable=0;fillColor=none;top=0;left=0;bottom=0;right=0;editable=1;overflow=hidden;whiteSpace=wrap;html=1;" parent="3iviCNAftZ1JlKYPXwVJ-18" vertex="1">
          <mxGeometry width="30" height="30" as="geometry">
            <mxRectangle width="30" height="30" as="alternateBounds" />
          </mxGeometry>
        </mxCell>
        <mxCell id="3iviCNAftZ1JlKYPXwVJ-20" value="강좌 이름" style="shape=partialRectangle;connectable=0;fillColor=none;top=0;left=0;bottom=0;right=0;align=left;spacingLeft=6;overflow=hidden;whiteSpace=wrap;html=1;" parent="3iviCNAftZ1JlKYPXwVJ-18" vertex="1">
          <mxGeometry x="30" width="150" height="30" as="geometry">
            <mxRectangle width="150" height="30" as="alternateBounds" />
          </mxGeometry>
        </mxCell>
        <mxCell id="3iviCNAftZ1JlKYPXwVJ-21" value="" style="shape=tableRow;horizontal=0;startSize=0;swimlaneHead=0;swimlaneBody=0;fillColor=none;collapsible=0;dropTarget=0;points=[[0,0.5],[1,0.5]];portConstraint=eastwest;top=0;left=0;right=0;bottom=0;" parent="3iviCNAftZ1JlKYPXwVJ-14" vertex="1">
          <mxGeometry y="90" width="180" height="30" as="geometry" />
        </mxCell>
        <mxCell id="3iviCNAftZ1JlKYPXwVJ-22" value="" style="shape=partialRectangle;connectable=0;fillColor=none;top=0;left=0;bottom=0;right=0;editable=1;overflow=hidden;whiteSpace=wrap;html=1;" parent="3iviCNAftZ1JlKYPXwVJ-21" vertex="1">
          <mxGeometry width="30" height="30" as="geometry">
            <mxRectangle width="30" height="30" as="alternateBounds" />
          </mxGeometry>
        </mxCell>
        <mxCell id="3iviCNAftZ1JlKYPXwVJ-23" value="강좌 내용" style="shape=partialRectangle;connectable=0;fillColor=none;top=0;left=0;bottom=0;right=0;align=left;spacingLeft=6;overflow=hidden;whiteSpace=wrap;html=1;" parent="3iviCNAftZ1JlKYPXwVJ-21" vertex="1">
          <mxGeometry x="30" width="150" height="30" as="geometry">
            <mxRectangle width="150" height="30" as="alternateBounds" />
          </mxGeometry>
        </mxCell>
        <mxCell id="8ky8RM0VNlPD6aG0PIWe-70" value="" style="shape=tableRow;horizontal=0;startSize=0;swimlaneHead=0;swimlaneBody=0;fillColor=none;collapsible=0;dropTarget=0;points=[[0,0.5],[1,0.5]];portConstraint=eastwest;top=0;left=0;right=0;bottom=0;" parent="3iviCNAftZ1JlKYPXwVJ-14" vertex="1">
          <mxGeometry y="120" width="180" height="30" as="geometry" />
        </mxCell>
        <mxCell id="8ky8RM0VNlPD6aG0PIWe-71" value="" style="shape=partialRectangle;connectable=0;fillColor=none;top=0;left=0;bottom=0;right=0;editable=1;overflow=hidden;whiteSpace=wrap;html=1;" parent="8ky8RM0VNlPD6aG0PIWe-70" vertex="1">
          <mxGeometry width="30" height="30" as="geometry">
            <mxRectangle width="30" height="30" as="alternateBounds" />
          </mxGeometry>
        </mxCell>
        <mxCell id="8ky8RM0VNlPD6aG0PIWe-72" value="끝나는 시간" style="shape=partialRectangle;connectable=0;fillColor=none;top=0;left=0;bottom=0;right=0;align=left;spacingLeft=6;overflow=hidden;whiteSpace=wrap;html=1;" parent="8ky8RM0VNlPD6aG0PIWe-70" vertex="1">
          <mxGeometry x="30" width="150" height="30" as="geometry">
            <mxRectangle width="150" height="30" as="alternateBounds" />
          </mxGeometry>
        </mxCell>
        <mxCell id="8ky8RM0VNlPD6aG0PIWe-73" value="" style="shape=tableRow;horizontal=0;startSize=0;swimlaneHead=0;swimlaneBody=0;fillColor=none;collapsible=0;dropTarget=0;points=[[0,0.5],[1,0.5]];portConstraint=eastwest;top=0;left=0;right=0;bottom=0;" parent="3iviCNAftZ1JlKYPXwVJ-14" vertex="1">
          <mxGeometry y="150" width="180" height="30" as="geometry" />
        </mxCell>
        <mxCell id="8ky8RM0VNlPD6aG0PIWe-74" value="" style="shape=partialRectangle;connectable=0;fillColor=none;top=0;left=0;bottom=0;right=0;editable=1;overflow=hidden;whiteSpace=wrap;html=1;" parent="8ky8RM0VNlPD6aG0PIWe-73" vertex="1">
          <mxGeometry width="30" height="30" as="geometry">
            <mxRectangle width="30" height="30" as="alternateBounds" />
          </mxGeometry>
        </mxCell>
        <mxCell id="8ky8RM0VNlPD6aG0PIWe-75" value="시작 시간" style="shape=partialRectangle;connectable=0;fillColor=none;top=0;left=0;bottom=0;right=0;align=left;spacingLeft=6;overflow=hidden;whiteSpace=wrap;html=1;" parent="8ky8RM0VNlPD6aG0PIWe-73" vertex="1">
          <mxGeometry x="30" width="150" height="30" as="geometry">
            <mxRectangle width="150" height="30" as="alternateBounds" />
          </mxGeometry>
        </mxCell>
        <mxCell id="8ky8RM0VNlPD6aG0PIWe-76" value="" style="shape=tableRow;horizontal=0;startSize=0;swimlaneHead=0;swimlaneBody=0;fillColor=none;collapsible=0;dropTarget=0;points=[[0,0.5],[1,0.5]];portConstraint=eastwest;top=0;left=0;right=0;bottom=0;" parent="3iviCNAftZ1JlKYPXwVJ-14" vertex="1">
          <mxGeometry y="180" width="180" height="30" as="geometry" />
        </mxCell>
        <mxCell id="8ky8RM0VNlPD6aG0PIWe-77" value="" style="shape=partialRectangle;connectable=0;fillColor=none;top=0;left=0;bottom=0;right=0;editable=1;overflow=hidden;whiteSpace=wrap;html=1;" parent="8ky8RM0VNlPD6aG0PIWe-76" vertex="1">
          <mxGeometry width="30" height="30" as="geometry">
            <mxRectangle width="30" height="30" as="alternateBounds" />
          </mxGeometry>
        </mxCell>
        <mxCell id="8ky8RM0VNlPD6aG0PIWe-78" value="시작 날짜" style="shape=partialRectangle;connectable=0;fillColor=none;top=0;left=0;bottom=0;right=0;align=left;spacingLeft=6;overflow=hidden;whiteSpace=wrap;html=1;" parent="8ky8RM0VNlPD6aG0PIWe-76" vertex="1">
          <mxGeometry x="30" width="150" height="30" as="geometry">
            <mxRectangle width="150" height="30" as="alternateBounds" />
          </mxGeometry>
        </mxCell>
        <mxCell id="8ky8RM0VNlPD6aG0PIWe-79" value="" style="shape=tableRow;horizontal=0;startSize=0;swimlaneHead=0;swimlaneBody=0;fillColor=none;collapsible=0;dropTarget=0;points=[[0,0.5],[1,0.5]];portConstraint=eastwest;top=0;left=0;right=0;bottom=0;" parent="3iviCNAftZ1JlKYPXwVJ-14" vertex="1">
          <mxGeometry y="210" width="180" height="30" as="geometry" />
        </mxCell>
        <mxCell id="8ky8RM0VNlPD6aG0PIWe-80" value="" style="shape=partialRectangle;connectable=0;fillColor=none;top=0;left=0;bottom=0;right=0;editable=1;overflow=hidden;whiteSpace=wrap;html=1;" parent="8ky8RM0VNlPD6aG0PIWe-79" vertex="1">
          <mxGeometry width="30" height="30" as="geometry">
            <mxRectangle width="30" height="30" as="alternateBounds" />
          </mxGeometry>
        </mxCell>
        <mxCell id="8ky8RM0VNlPD6aG0PIWe-81" value="끝나는 날짜" style="shape=partialRectangle;connectable=0;fillColor=none;top=0;left=0;bottom=0;right=0;align=left;spacingLeft=6;overflow=hidden;whiteSpace=wrap;html=1;" parent="8ky8RM0VNlPD6aG0PIWe-79" vertex="1">
          <mxGeometry x="30" width="150" height="30" as="geometry">
            <mxRectangle width="150" height="30" as="alternateBounds" />
          </mxGeometry>
        </mxCell>
        <mxCell id="8ky8RM0VNlPD6aG0PIWe-209" value="" style="shape=tableRow;horizontal=0;startSize=0;swimlaneHead=0;swimlaneBody=0;fillColor=none;collapsible=0;dropTarget=0;points=[[0,0.5],[1,0.5]];portConstraint=eastwest;top=0;left=0;right=0;bottom=0;" parent="3iviCNAftZ1JlKYPXwVJ-14" vertex="1">
          <mxGeometry y="240" width="180" height="30" as="geometry" />
        </mxCell>
        <mxCell id="8ky8RM0VNlPD6aG0PIWe-210" value="" style="shape=partialRectangle;connectable=0;fillColor=none;top=0;left=0;bottom=0;right=0;editable=1;overflow=hidden;whiteSpace=wrap;html=1;" parent="8ky8RM0VNlPD6aG0PIWe-209" vertex="1">
          <mxGeometry width="30" height="30" as="geometry">
            <mxRectangle width="30" height="30" as="alternateBounds" />
          </mxGeometry>
        </mxCell>
        <mxCell id="8ky8RM0VNlPD6aG0PIWe-211" value="끝난 여부" style="shape=partialRectangle;connectable=0;fillColor=none;top=0;left=0;bottom=0;right=0;align=left;spacingLeft=6;overflow=hidden;whiteSpace=wrap;html=1;" parent="8ky8RM0VNlPD6aG0PIWe-209" vertex="1">
          <mxGeometry x="30" width="150" height="30" as="geometry">
            <mxRectangle width="150" height="30" as="alternateBounds" />
          </mxGeometry>
        </mxCell>
        <mxCell id="8ky8RM0VNlPD6aG0PIWe-1" value="학생" style="shape=table;startSize=30;container=1;collapsible=1;childLayout=tableLayout;fixedRows=1;rowLines=0;fontStyle=1;align=center;resizeLast=1;html=1;" parent="1" vertex="1">
          <mxGeometry x="780" width="180" height="120" as="geometry" />
        </mxCell>
        <mxCell id="8ky8RM0VNlPD6aG0PIWe-2" value="" style="shape=tableRow;horizontal=0;startSize=0;swimlaneHead=0;swimlaneBody=0;fillColor=none;collapsible=0;dropTarget=0;points=[[0,0.5],[1,0.5]];portConstraint=eastwest;top=0;left=0;right=0;bottom=1;" parent="8ky8RM0VNlPD6aG0PIWe-1" vertex="1">
          <mxGeometry y="30" width="180" height="30" as="geometry" />
        </mxCell>
        <mxCell id="8ky8RM0VNlPD6aG0PIWe-3" value="PK" style="shape=partialRectangle;connectable=0;fillColor=none;top=0;left=0;bottom=0;right=0;fontStyle=1;overflow=hidden;whiteSpace=wrap;html=1;" parent="8ky8RM0VNlPD6aG0PIWe-2" vertex="1">
          <mxGeometry width="30" height="30" as="geometry">
            <mxRectangle width="30" height="30" as="alternateBounds" />
          </mxGeometry>
        </mxCell>
        <mxCell id="8ky8RM0VNlPD6aG0PIWe-4" value="학생ID" style="shape=partialRectangle;connectable=0;fillColor=none;top=0;left=0;bottom=0;right=0;align=left;spacingLeft=6;fontStyle=5;overflow=hidden;whiteSpace=wrap;html=1;" parent="8ky8RM0VNlPD6aG0PIWe-2" vertex="1">
          <mxGeometry x="30" width="150" height="30" as="geometry">
            <mxRectangle width="150" height="30" as="alternateBounds" />
          </mxGeometry>
        </mxCell>
        <mxCell id="8ky8RM0VNlPD6aG0PIWe-5" value="" style="shape=tableRow;horizontal=0;startSize=0;swimlaneHead=0;swimlaneBody=0;fillColor=none;collapsible=0;dropTarget=0;points=[[0,0.5],[1,0.5]];portConstraint=eastwest;top=0;left=0;right=0;bottom=0;" parent="8ky8RM0VNlPD6aG0PIWe-1" vertex="1">
          <mxGeometry y="60" width="180" height="30" as="geometry" />
        </mxCell>
        <mxCell id="8ky8RM0VNlPD6aG0PIWe-6" value="" style="shape=partialRectangle;connectable=0;fillColor=none;top=0;left=0;bottom=0;right=0;editable=1;overflow=hidden;whiteSpace=wrap;html=1;" parent="8ky8RM0VNlPD6aG0PIWe-5" vertex="1">
          <mxGeometry width="30" height="30" as="geometry">
            <mxRectangle width="30" height="30" as="alternateBounds" />
          </mxGeometry>
        </mxCell>
        <mxCell id="8ky8RM0VNlPD6aG0PIWe-7" value="나이" style="shape=partialRectangle;connectable=0;fillColor=none;top=0;left=0;bottom=0;right=0;align=left;spacingLeft=6;overflow=hidden;whiteSpace=wrap;html=1;" parent="8ky8RM0VNlPD6aG0PIWe-5" vertex="1">
          <mxGeometry x="30" width="150" height="30" as="geometry">
            <mxRectangle width="150" height="30" as="alternateBounds" />
          </mxGeometry>
        </mxCell>
        <mxCell id="8ky8RM0VNlPD6aG0PIWe-8" value="" style="shape=tableRow;horizontal=0;startSize=0;swimlaneHead=0;swimlaneBody=0;fillColor=none;collapsible=0;dropTarget=0;points=[[0,0.5],[1,0.5]];portConstraint=eastwest;top=0;left=0;right=0;bottom=0;" parent="8ky8RM0VNlPD6aG0PIWe-1" vertex="1">
          <mxGeometry y="90" width="180" height="30" as="geometry" />
        </mxCell>
        <mxCell id="8ky8RM0VNlPD6aG0PIWe-9" value="" style="shape=partialRectangle;connectable=0;fillColor=none;top=0;left=0;bottom=0;right=0;editable=1;overflow=hidden;whiteSpace=wrap;html=1;" parent="8ky8RM0VNlPD6aG0PIWe-8" vertex="1">
          <mxGeometry width="30" height="30" as="geometry">
            <mxRectangle width="30" height="30" as="alternateBounds" />
          </mxGeometry>
        </mxCell>
        <mxCell id="8ky8RM0VNlPD6aG0PIWe-10" value="이름" style="shape=partialRectangle;connectable=0;fillColor=none;top=0;left=0;bottom=0;right=0;align=left;spacingLeft=6;overflow=hidden;whiteSpace=wrap;html=1;" parent="8ky8RM0VNlPD6aG0PIWe-8" vertex="1">
          <mxGeometry x="30" width="150" height="30" as="geometry">
            <mxRectangle width="150" height="30" as="alternateBounds" />
          </mxGeometry>
        </mxCell>
        <mxCell id="8ky8RM0VNlPD6aG0PIWe-14" value="신청" style="shape=table;startSize=30;container=1;collapsible=1;childLayout=tableLayout;fixedRows=1;rowLines=0;fontStyle=1;align=center;resizeLast=1;html=1;" parent="1" vertex="1">
          <mxGeometry x="780" y="200" width="180" height="180" as="geometry" />
        </mxCell>
        <mxCell id="8ky8RM0VNlPD6aG0PIWe-15" value="" style="shape=tableRow;horizontal=0;startSize=0;swimlaneHead=0;swimlaneBody=0;fillColor=none;collapsible=0;dropTarget=0;points=[[0,0.5],[1,0.5]];portConstraint=eastwest;top=0;left=0;right=0;bottom=1;" parent="8ky8RM0VNlPD6aG0PIWe-14" vertex="1">
          <mxGeometry y="30" width="180" height="30" as="geometry" />
        </mxCell>
        <mxCell id="8ky8RM0VNlPD6aG0PIWe-16" value="PK" style="shape=partialRectangle;connectable=0;fillColor=none;top=0;left=0;bottom=0;right=0;fontStyle=1;overflow=hidden;whiteSpace=wrap;html=1;" parent="8ky8RM0VNlPD6aG0PIWe-15" vertex="1">
          <mxGeometry width="30" height="30" as="geometry">
            <mxRectangle width="30" height="30" as="alternateBounds" />
          </mxGeometry>
        </mxCell>
        <mxCell id="8ky8RM0VNlPD6aG0PIWe-17" value="신청ID" style="shape=partialRectangle;connectable=0;fillColor=none;top=0;left=0;bottom=0;right=0;align=left;spacingLeft=6;fontStyle=5;overflow=hidden;whiteSpace=wrap;html=1;" parent="8ky8RM0VNlPD6aG0PIWe-15" vertex="1">
          <mxGeometry x="30" width="150" height="30" as="geometry">
            <mxRectangle width="150" height="30" as="alternateBounds" />
          </mxGeometry>
        </mxCell>
        <mxCell id="8ky8RM0VNlPD6aG0PIWe-27" value="" style="shape=tableRow;horizontal=0;startSize=0;swimlaneHead=0;swimlaneBody=0;fillColor=none;collapsible=0;dropTarget=0;points=[[0,0.5],[1,0.5]];portConstraint=eastwest;top=0;left=0;right=0;bottom=1;" parent="8ky8RM0VNlPD6aG0PIWe-14" vertex="1">
          <mxGeometry y="60" width="180" height="30" as="geometry" />
        </mxCell>
        <mxCell id="8ky8RM0VNlPD6aG0PIWe-28" value="FK" style="shape=partialRectangle;connectable=0;fillColor=none;top=0;left=0;bottom=0;right=0;fontStyle=1;overflow=hidden;whiteSpace=wrap;html=1;" parent="8ky8RM0VNlPD6aG0PIWe-27" vertex="1">
          <mxGeometry width="30" height="30" as="geometry">
            <mxRectangle width="30" height="30" as="alternateBounds" />
          </mxGeometry>
        </mxCell>
        <mxCell id="8ky8RM0VNlPD6aG0PIWe-29" value="학생ID" style="shape=partialRectangle;connectable=0;fillColor=none;top=0;left=0;bottom=0;right=0;align=left;spacingLeft=6;fontStyle=5;overflow=hidden;whiteSpace=wrap;html=1;" parent="8ky8RM0VNlPD6aG0PIWe-27" vertex="1">
          <mxGeometry x="30" width="150" height="30" as="geometry">
            <mxRectangle width="150" height="30" as="alternateBounds" />
          </mxGeometry>
        </mxCell>
        <mxCell id="8ky8RM0VNlPD6aG0PIWe-30" value="" style="shape=tableRow;horizontal=0;startSize=0;swimlaneHead=0;swimlaneBody=0;fillColor=none;collapsible=0;dropTarget=0;points=[[0,0.5],[1,0.5]];portConstraint=eastwest;top=0;left=0;right=0;bottom=1;" parent="8ky8RM0VNlPD6aG0PIWe-14" vertex="1">
          <mxGeometry y="90" width="180" height="30" as="geometry" />
        </mxCell>
        <mxCell id="8ky8RM0VNlPD6aG0PIWe-31" value="FK" style="shape=partialRectangle;connectable=0;fillColor=none;top=0;left=0;bottom=0;right=0;fontStyle=1;overflow=hidden;whiteSpace=wrap;html=1;" parent="8ky8RM0VNlPD6aG0PIWe-30" vertex="1">
          <mxGeometry width="30" height="30" as="geometry">
            <mxRectangle width="30" height="30" as="alternateBounds" />
          </mxGeometry>
        </mxCell>
        <mxCell id="8ky8RM0VNlPD6aG0PIWe-32" value="강좌ID" style="shape=partialRectangle;connectable=0;fillColor=none;top=0;left=0;bottom=0;right=0;align=left;spacingLeft=6;fontStyle=5;overflow=hidden;whiteSpace=wrap;html=1;" parent="8ky8RM0VNlPD6aG0PIWe-30" vertex="1">
          <mxGeometry x="30" width="150" height="30" as="geometry">
            <mxRectangle width="150" height="30" as="alternateBounds" />
          </mxGeometry>
        </mxCell>
        <mxCell id="8ky8RM0VNlPD6aG0PIWe-24" value="" style="shape=tableRow;horizontal=0;startSize=0;swimlaneHead=0;swimlaneBody=0;fillColor=none;collapsible=0;dropTarget=0;points=[[0,0.5],[1,0.5]];portConstraint=eastwest;top=0;left=0;right=0;bottom=0;" parent="8ky8RM0VNlPD6aG0PIWe-14" vertex="1">
          <mxGeometry y="120" width="180" height="30" as="geometry" />
        </mxCell>
        <mxCell id="8ky8RM0VNlPD6aG0PIWe-25" value="" style="shape=partialRectangle;connectable=0;fillColor=none;top=0;left=0;bottom=0;right=0;editable=1;overflow=hidden;whiteSpace=wrap;html=1;" parent="8ky8RM0VNlPD6aG0PIWe-24" vertex="1">
          <mxGeometry width="30" height="30" as="geometry">
            <mxRectangle width="30" height="30" as="alternateBounds" />
          </mxGeometry>
        </mxCell>
        <mxCell id="8ky8RM0VNlPD6aG0PIWe-26" value="강의 자료" style="shape=partialRectangle;connectable=0;fillColor=none;top=0;left=0;bottom=0;right=0;align=left;spacingLeft=6;overflow=hidden;whiteSpace=wrap;html=1;" parent="8ky8RM0VNlPD6aG0PIWe-24" vertex="1">
          <mxGeometry x="30" width="150" height="30" as="geometry">
            <mxRectangle width="150" height="30" as="alternateBounds" />
          </mxGeometry>
        </mxCell>
        <mxCell id="8ky8RM0VNlPD6aG0PIWe-142" value="" style="shape=tableRow;horizontal=0;startSize=0;swimlaneHead=0;swimlaneBody=0;fillColor=none;collapsible=0;dropTarget=0;points=[[0,0.5],[1,0.5]];portConstraint=eastwest;top=0;left=0;right=0;bottom=0;" parent="8ky8RM0VNlPD6aG0PIWe-14" vertex="1">
          <mxGeometry y="150" width="180" height="30" as="geometry" />
        </mxCell>
        <mxCell id="8ky8RM0VNlPD6aG0PIWe-143" value="" style="shape=partialRectangle;connectable=0;fillColor=none;top=0;left=0;bottom=0;right=0;editable=1;overflow=hidden;whiteSpace=wrap;html=1;" parent="8ky8RM0VNlPD6aG0PIWe-142" vertex="1">
          <mxGeometry width="30" height="30" as="geometry">
            <mxRectangle width="30" height="30" as="alternateBounds" />
          </mxGeometry>
        </mxCell>
        <mxCell id="8ky8RM0VNlPD6aG0PIWe-144" value="퀴즈 참여 여부" style="shape=partialRectangle;connectable=0;fillColor=none;top=0;left=0;bottom=0;right=0;align=left;spacingLeft=6;overflow=hidden;whiteSpace=wrap;html=1;" parent="8ky8RM0VNlPD6aG0PIWe-142" vertex="1">
          <mxGeometry x="30" width="150" height="30" as="geometry">
            <mxRectangle width="150" height="30" as="alternateBounds" />
          </mxGeometry>
        </mxCell>
        <mxCell id="8ky8RM0VNlPD6aG0PIWe-36" value="" style="edgeStyle=entityRelationEdgeStyle;fontSize=12;html=1;endArrow=ERzeroToMany;endFill=1;rounded=0;exitX=1;exitY=0.5;exitDx=0;exitDy=0;entryX=1;entryY=0.5;entryDx=0;entryDy=0;" parent="1" source="8ky8RM0VNlPD6aG0PIWe-2" target="8ky8RM0VNlPD6aG0PIWe-27" edge="1">
          <mxGeometry width="100" height="100" relative="1" as="geometry">
            <mxPoint x="1070" y="45" as="sourcePoint" />
            <mxPoint x="300" as="targetPoint" />
            <Array as="points">
              <mxPoint x="480" y="235" />
              <mxPoint x="490" y="225" />
            </Array>
          </mxGeometry>
        </mxCell>
        <mxCell id="8ky8RM0VNlPD6aG0PIWe-37" value="" style="edgeStyle=entityRelationEdgeStyle;fontSize=12;html=1;endArrow=ERzeroToMany;endFill=1;rounded=0;exitX=1;exitY=0.5;exitDx=0;exitDy=0;entryX=0;entryY=0.5;entryDx=0;entryDy=0;" parent="1" source="3iviCNAftZ1JlKYPXwVJ-15" target="8ky8RM0VNlPD6aG0PIWe-30" edge="1">
          <mxGeometry width="100" height="100" relative="1" as="geometry">
            <mxPoint x="730" y="100" as="sourcePoint" />
            <mxPoint x="530" y="-30" as="targetPoint" />
          </mxGeometry>
        </mxCell>
        <mxCell id="8ky8RM0VNlPD6aG0PIWe-39" value="수강평" style="shape=table;startSize=30;container=1;collapsible=1;childLayout=tableLayout;fixedRows=1;rowLines=0;fontStyle=1;align=center;resizeLast=1;html=1;" parent="1" vertex="1">
          <mxGeometry x="380" y="-220" width="180" height="270" as="geometry" />
        </mxCell>
        <mxCell id="8ky8RM0VNlPD6aG0PIWe-40" value="" style="shape=tableRow;horizontal=0;startSize=0;swimlaneHead=0;swimlaneBody=0;fillColor=none;collapsible=0;dropTarget=0;points=[[0,0.5],[1,0.5]];portConstraint=eastwest;top=0;left=0;right=0;bottom=1;" parent="8ky8RM0VNlPD6aG0PIWe-39" vertex="1">
          <mxGeometry y="30" width="180" height="30" as="geometry" />
        </mxCell>
        <mxCell id="8ky8RM0VNlPD6aG0PIWe-41" value="PK" style="shape=partialRectangle;connectable=0;fillColor=none;top=0;left=0;bottom=0;right=0;fontStyle=1;overflow=hidden;whiteSpace=wrap;html=1;" parent="8ky8RM0VNlPD6aG0PIWe-40" vertex="1">
          <mxGeometry width="30" height="30" as="geometry">
            <mxRectangle width="30" height="30" as="alternateBounds" />
          </mxGeometry>
        </mxCell>
        <mxCell id="8ky8RM0VNlPD6aG0PIWe-42" value="수강평ID" style="shape=partialRectangle;connectable=0;fillColor=none;top=0;left=0;bottom=0;right=0;align=left;spacingLeft=6;fontStyle=5;overflow=hidden;whiteSpace=wrap;html=1;" parent="8ky8RM0VNlPD6aG0PIWe-40" vertex="1">
          <mxGeometry x="30" width="150" height="30" as="geometry">
            <mxRectangle width="150" height="30" as="alternateBounds" />
          </mxGeometry>
        </mxCell>
        <mxCell id="8ky8RM0VNlPD6aG0PIWe-52" value="" style="shape=tableRow;horizontal=0;startSize=0;swimlaneHead=0;swimlaneBody=0;fillColor=none;collapsible=0;dropTarget=0;points=[[0,0.5],[1,0.5]];portConstraint=eastwest;top=0;left=0;right=0;bottom=1;" parent="8ky8RM0VNlPD6aG0PIWe-39" vertex="1">
          <mxGeometry y="60" width="180" height="30" as="geometry" />
        </mxCell>
        <mxCell id="8ky8RM0VNlPD6aG0PIWe-53" value="FK" style="shape=partialRectangle;connectable=0;fillColor=none;top=0;left=0;bottom=0;right=0;fontStyle=1;overflow=hidden;whiteSpace=wrap;html=1;" parent="8ky8RM0VNlPD6aG0PIWe-52" vertex="1">
          <mxGeometry width="30" height="30" as="geometry">
            <mxRectangle width="30" height="30" as="alternateBounds" />
          </mxGeometry>
        </mxCell>
        <mxCell id="8ky8RM0VNlPD6aG0PIWe-54" value="선생님ID" style="shape=partialRectangle;connectable=0;fillColor=none;top=0;left=0;bottom=0;right=0;align=left;spacingLeft=6;fontStyle=5;overflow=hidden;whiteSpace=wrap;html=1;" parent="8ky8RM0VNlPD6aG0PIWe-52" vertex="1">
          <mxGeometry x="30" width="150" height="30" as="geometry">
            <mxRectangle width="150" height="30" as="alternateBounds" />
          </mxGeometry>
        </mxCell>
        <mxCell id="8ky8RM0VNlPD6aG0PIWe-55" value="" style="shape=tableRow;horizontal=0;startSize=0;swimlaneHead=0;swimlaneBody=0;fillColor=none;collapsible=0;dropTarget=0;points=[[0,0.5],[1,0.5]];portConstraint=eastwest;top=0;left=0;right=0;bottom=1;" parent="8ky8RM0VNlPD6aG0PIWe-39" vertex="1">
          <mxGeometry y="90" width="180" height="30" as="geometry" />
        </mxCell>
        <mxCell id="8ky8RM0VNlPD6aG0PIWe-56" value="FK" style="shape=partialRectangle;connectable=0;fillColor=none;top=0;left=0;bottom=0;right=0;fontStyle=1;overflow=hidden;whiteSpace=wrap;html=1;" parent="8ky8RM0VNlPD6aG0PIWe-55" vertex="1">
          <mxGeometry width="30" height="30" as="geometry">
            <mxRectangle width="30" height="30" as="alternateBounds" />
          </mxGeometry>
        </mxCell>
        <mxCell id="8ky8RM0VNlPD6aG0PIWe-57" value="학생ID" style="shape=partialRectangle;connectable=0;fillColor=none;top=0;left=0;bottom=0;right=0;align=left;spacingLeft=6;fontStyle=5;overflow=hidden;whiteSpace=wrap;html=1;" parent="8ky8RM0VNlPD6aG0PIWe-55" vertex="1">
          <mxGeometry x="30" width="150" height="30" as="geometry">
            <mxRectangle width="150" height="30" as="alternateBounds" />
          </mxGeometry>
        </mxCell>
        <mxCell id="8ky8RM0VNlPD6aG0PIWe-59" value="" style="shape=tableRow;horizontal=0;startSize=0;swimlaneHead=0;swimlaneBody=0;fillColor=none;collapsible=0;dropTarget=0;points=[[0,0.5],[1,0.5]];portConstraint=eastwest;top=0;left=0;right=0;bottom=1;" parent="8ky8RM0VNlPD6aG0PIWe-39" vertex="1">
          <mxGeometry y="120" width="180" height="30" as="geometry" />
        </mxCell>
        <mxCell id="8ky8RM0VNlPD6aG0PIWe-60" value="FK" style="shape=partialRectangle;connectable=0;fillColor=none;top=0;left=0;bottom=0;right=0;fontStyle=1;overflow=hidden;whiteSpace=wrap;html=1;" parent="8ky8RM0VNlPD6aG0PIWe-59" vertex="1">
          <mxGeometry width="30" height="30" as="geometry">
            <mxRectangle width="30" height="30" as="alternateBounds" />
          </mxGeometry>
        </mxCell>
        <mxCell id="8ky8RM0VNlPD6aG0PIWe-61" value="강좌ID" style="shape=partialRectangle;connectable=0;fillColor=none;top=0;left=0;bottom=0;right=0;align=left;spacingLeft=6;fontStyle=5;overflow=hidden;whiteSpace=wrap;html=1;" parent="8ky8RM0VNlPD6aG0PIWe-59" vertex="1">
          <mxGeometry x="30" width="150" height="30" as="geometry">
            <mxRectangle width="150" height="30" as="alternateBounds" />
          </mxGeometry>
        </mxCell>
        <mxCell id="8ky8RM0VNlPD6aG0PIWe-43" value="" style="shape=tableRow;horizontal=0;startSize=0;swimlaneHead=0;swimlaneBody=0;fillColor=none;collapsible=0;dropTarget=0;points=[[0,0.5],[1,0.5]];portConstraint=eastwest;top=0;left=0;right=0;bottom=0;" parent="8ky8RM0VNlPD6aG0PIWe-39" vertex="1">
          <mxGeometry y="150" width="180" height="30" as="geometry" />
        </mxCell>
        <mxCell id="8ky8RM0VNlPD6aG0PIWe-44" value="" style="shape=partialRectangle;connectable=0;fillColor=none;top=0;left=0;bottom=0;right=0;editable=1;overflow=hidden;whiteSpace=wrap;html=1;" parent="8ky8RM0VNlPD6aG0PIWe-43" vertex="1">
          <mxGeometry width="30" height="30" as="geometry">
            <mxRectangle width="30" height="30" as="alternateBounds" />
          </mxGeometry>
        </mxCell>
        <mxCell id="8ky8RM0VNlPD6aG0PIWe-45" value="강좌 수강평" style="shape=partialRectangle;connectable=0;fillColor=none;top=0;left=0;bottom=0;right=0;align=left;spacingLeft=6;overflow=hidden;whiteSpace=wrap;html=1;" parent="8ky8RM0VNlPD6aG0PIWe-43" vertex="1">
          <mxGeometry x="30" width="150" height="30" as="geometry">
            <mxRectangle width="150" height="30" as="alternateBounds" />
          </mxGeometry>
        </mxCell>
        <mxCell id="8ky8RM0VNlPD6aG0PIWe-118" value="" style="shape=tableRow;horizontal=0;startSize=0;swimlaneHead=0;swimlaneBody=0;fillColor=none;collapsible=0;dropTarget=0;points=[[0,0.5],[1,0.5]];portConstraint=eastwest;top=0;left=0;right=0;bottom=0;" parent="8ky8RM0VNlPD6aG0PIWe-39" vertex="1">
          <mxGeometry y="180" width="180" height="30" as="geometry" />
        </mxCell>
        <mxCell id="8ky8RM0VNlPD6aG0PIWe-119" value="" style="shape=partialRectangle;connectable=0;fillColor=none;top=0;left=0;bottom=0;right=0;editable=1;overflow=hidden;whiteSpace=wrap;html=1;" parent="8ky8RM0VNlPD6aG0PIWe-118" vertex="1">
          <mxGeometry width="30" height="30" as="geometry">
            <mxRectangle width="30" height="30" as="alternateBounds" />
          </mxGeometry>
        </mxCell>
        <mxCell id="8ky8RM0VNlPD6aG0PIWe-120" value="선생님 수강평" style="shape=partialRectangle;connectable=0;fillColor=none;top=0;left=0;bottom=0;right=0;align=left;spacingLeft=6;overflow=hidden;whiteSpace=wrap;html=1;" parent="8ky8RM0VNlPD6aG0PIWe-118" vertex="1">
          <mxGeometry x="30" width="150" height="30" as="geometry">
            <mxRectangle width="150" height="30" as="alternateBounds" />
          </mxGeometry>
        </mxCell>
        <mxCell id="8ky8RM0VNlPD6aG0PIWe-115" value="" style="shape=tableRow;horizontal=0;startSize=0;swimlaneHead=0;swimlaneBody=0;fillColor=none;collapsible=0;dropTarget=0;points=[[0,0.5],[1,0.5]];portConstraint=eastwest;top=0;left=0;right=0;bottom=0;" parent="8ky8RM0VNlPD6aG0PIWe-39" vertex="1">
          <mxGeometry y="210" width="180" height="30" as="geometry" />
        </mxCell>
        <mxCell id="8ky8RM0VNlPD6aG0PIWe-116" value="" style="shape=partialRectangle;connectable=0;fillColor=none;top=0;left=0;bottom=0;right=0;editable=1;overflow=hidden;whiteSpace=wrap;html=1;" parent="8ky8RM0VNlPD6aG0PIWe-115" vertex="1">
          <mxGeometry width="30" height="30" as="geometry">
            <mxRectangle width="30" height="30" as="alternateBounds" />
          </mxGeometry>
        </mxCell>
        <mxCell id="8ky8RM0VNlPD6aG0PIWe-117" value="강좌 평점" style="shape=partialRectangle;connectable=0;fillColor=none;top=0;left=0;bottom=0;right=0;align=left;spacingLeft=6;overflow=hidden;whiteSpace=wrap;html=1;" parent="8ky8RM0VNlPD6aG0PIWe-115" vertex="1">
          <mxGeometry x="30" width="150" height="30" as="geometry">
            <mxRectangle width="150" height="30" as="alternateBounds" />
          </mxGeometry>
        </mxCell>
        <mxCell id="8ky8RM0VNlPD6aG0PIWe-46" value="" style="shape=tableRow;horizontal=0;startSize=0;swimlaneHead=0;swimlaneBody=0;fillColor=none;collapsible=0;dropTarget=0;points=[[0,0.5],[1,0.5]];portConstraint=eastwest;top=0;left=0;right=0;bottom=0;" parent="8ky8RM0VNlPD6aG0PIWe-39" vertex="1">
          <mxGeometry y="240" width="180" height="30" as="geometry" />
        </mxCell>
        <mxCell id="8ky8RM0VNlPD6aG0PIWe-47" value="" style="shape=partialRectangle;connectable=0;fillColor=none;top=0;left=0;bottom=0;right=0;editable=1;overflow=hidden;whiteSpace=wrap;html=1;" parent="8ky8RM0VNlPD6aG0PIWe-46" vertex="1">
          <mxGeometry width="30" height="30" as="geometry">
            <mxRectangle width="30" height="30" as="alternateBounds" />
          </mxGeometry>
        </mxCell>
        <mxCell id="8ky8RM0VNlPD6aG0PIWe-48" value="선생님 평점" style="shape=partialRectangle;connectable=0;fillColor=none;top=0;left=0;bottom=0;right=0;align=left;spacingLeft=6;overflow=hidden;whiteSpace=wrap;html=1;" parent="8ky8RM0VNlPD6aG0PIWe-46" vertex="1">
          <mxGeometry x="30" width="150" height="30" as="geometry">
            <mxRectangle width="150" height="30" as="alternateBounds" />
          </mxGeometry>
        </mxCell>
        <mxCell id="8ky8RM0VNlPD6aG0PIWe-58" value="" style="edgeStyle=entityRelationEdgeStyle;fontSize=12;html=1;endArrow=ERzeroToMany;endFill=1;rounded=0;exitX=1;exitY=0.5;exitDx=0;exitDy=0;entryX=0;entryY=0.5;entryDx=0;entryDy=0;" parent="1" source="3iviCNAftZ1JlKYPXwVJ-2" target="8ky8RM0VNlPD6aG0PIWe-52" edge="1">
          <mxGeometry width="100" height="100" relative="1" as="geometry">
            <mxPoint x="290" y="190" as="sourcePoint" />
            <mxPoint x="390" y="90" as="targetPoint" />
          </mxGeometry>
        </mxCell>
        <mxCell id="8ky8RM0VNlPD6aG0PIWe-63" value="" style="edgeStyle=entityRelationEdgeStyle;fontSize=12;html=1;endArrow=ERzeroToMany;endFill=1;rounded=0;entryX=1;entryY=0.5;entryDx=0;entryDy=0;exitX=1;exitY=0.5;exitDx=0;exitDy=0;" parent="1" source="3iviCNAftZ1JlKYPXwVJ-15" target="8ky8RM0VNlPD6aG0PIWe-59" edge="1">
          <mxGeometry width="100" height="100" relative="1" as="geometry">
            <mxPoint x="560" y="170" as="sourcePoint" />
            <mxPoint x="660" y="70" as="targetPoint" />
          </mxGeometry>
        </mxCell>
        <mxCell id="8ky8RM0VNlPD6aG0PIWe-69" value="" style="edgeStyle=entityRelationEdgeStyle;fontSize=12;html=1;endArrow=ERzeroToMany;endFill=1;rounded=0;exitX=0;exitY=0.5;exitDx=0;exitDy=0;entryX=1;entryY=0.5;entryDx=0;entryDy=0;" parent="1" source="8ky8RM0VNlPD6aG0PIWe-2" target="8ky8RM0VNlPD6aG0PIWe-55" edge="1">
          <mxGeometry width="100" height="100" relative="1" as="geometry">
            <mxPoint x="620" y="90" as="sourcePoint" />
            <mxPoint x="720" y="-10" as="targetPoint" />
          </mxGeometry>
        </mxCell>
        <mxCell id="8ky8RM0VNlPD6aG0PIWe-82" value="qna 게시판" style="shape=table;startSize=30;container=1;collapsible=1;childLayout=tableLayout;fixedRows=1;rowLines=0;fontStyle=1;align=center;resizeLast=1;html=1;" parent="1" vertex="1">
          <mxGeometry x="780" y="510" width="180" height="150" as="geometry" />
        </mxCell>
        <mxCell id="8ky8RM0VNlPD6aG0PIWe-83" value="" style="shape=tableRow;horizontal=0;startSize=0;swimlaneHead=0;swimlaneBody=0;fillColor=none;collapsible=0;dropTarget=0;points=[[0,0.5],[1,0.5]];portConstraint=eastwest;top=0;left=0;right=0;bottom=1;" parent="8ky8RM0VNlPD6aG0PIWe-82" vertex="1">
          <mxGeometry y="30" width="180" height="30" as="geometry" />
        </mxCell>
        <mxCell id="8ky8RM0VNlPD6aG0PIWe-84" value="PK" style="shape=partialRectangle;connectable=0;fillColor=none;top=0;left=0;bottom=0;right=0;fontStyle=1;overflow=hidden;whiteSpace=wrap;html=1;" parent="8ky8RM0VNlPD6aG0PIWe-83" vertex="1">
          <mxGeometry width="30" height="30" as="geometry">
            <mxRectangle width="30" height="30" as="alternateBounds" />
          </mxGeometry>
        </mxCell>
        <mxCell id="8ky8RM0VNlPD6aG0PIWe-85" value="qna 게시판ID" style="shape=partialRectangle;connectable=0;fillColor=none;top=0;left=0;bottom=0;right=0;align=left;spacingLeft=6;fontStyle=5;overflow=hidden;whiteSpace=wrap;html=1;" parent="8ky8RM0VNlPD6aG0PIWe-83" vertex="1">
          <mxGeometry x="30" width="150" height="30" as="geometry">
            <mxRectangle width="150" height="30" as="alternateBounds" />
          </mxGeometry>
        </mxCell>
        <mxCell id="8ky8RM0VNlPD6aG0PIWe-96" value="" style="shape=tableRow;horizontal=0;startSize=0;swimlaneHead=0;swimlaneBody=0;fillColor=none;collapsible=0;dropTarget=0;points=[[0,0.5],[1,0.5]];portConstraint=eastwest;top=0;left=0;right=0;bottom=1;" parent="8ky8RM0VNlPD6aG0PIWe-82" vertex="1">
          <mxGeometry y="60" width="180" height="30" as="geometry" />
        </mxCell>
        <mxCell id="8ky8RM0VNlPD6aG0PIWe-97" value="FK" style="shape=partialRectangle;connectable=0;fillColor=none;top=0;left=0;bottom=0;right=0;fontStyle=1;overflow=hidden;whiteSpace=wrap;html=1;" parent="8ky8RM0VNlPD6aG0PIWe-96" vertex="1">
          <mxGeometry width="30" height="30" as="geometry">
            <mxRectangle width="30" height="30" as="alternateBounds" />
          </mxGeometry>
        </mxCell>
        <mxCell id="8ky8RM0VNlPD6aG0PIWe-98" value="신청ID" style="shape=partialRectangle;connectable=0;fillColor=none;top=0;left=0;bottom=0;right=0;align=left;spacingLeft=6;fontStyle=5;overflow=hidden;whiteSpace=wrap;html=1;" parent="8ky8RM0VNlPD6aG0PIWe-96" vertex="1">
          <mxGeometry x="30" width="150" height="30" as="geometry">
            <mxRectangle width="150" height="30" as="alternateBounds" />
          </mxGeometry>
        </mxCell>
        <mxCell id="8ky8RM0VNlPD6aG0PIWe-86" value="" style="shape=tableRow;horizontal=0;startSize=0;swimlaneHead=0;swimlaneBody=0;fillColor=none;collapsible=0;dropTarget=0;points=[[0,0.5],[1,0.5]];portConstraint=eastwest;top=0;left=0;right=0;bottom=0;" parent="8ky8RM0VNlPD6aG0PIWe-82" vertex="1">
          <mxGeometry y="90" width="180" height="30" as="geometry" />
        </mxCell>
        <mxCell id="8ky8RM0VNlPD6aG0PIWe-87" value="" style="shape=partialRectangle;connectable=0;fillColor=none;top=0;left=0;bottom=0;right=0;editable=1;overflow=hidden;whiteSpace=wrap;html=1;" parent="8ky8RM0VNlPD6aG0PIWe-86" vertex="1">
          <mxGeometry width="30" height="30" as="geometry">
            <mxRectangle width="30" height="30" as="alternateBounds" />
          </mxGeometry>
        </mxCell>
        <mxCell id="8ky8RM0VNlPD6aG0PIWe-88" value="게시글 내용" style="shape=partialRectangle;connectable=0;fillColor=none;top=0;left=0;bottom=0;right=0;align=left;spacingLeft=6;overflow=hidden;whiteSpace=wrap;html=1;" parent="8ky8RM0VNlPD6aG0PIWe-86" vertex="1">
          <mxGeometry x="30" width="150" height="30" as="geometry">
            <mxRectangle width="150" height="30" as="alternateBounds" />
          </mxGeometry>
        </mxCell>
        <mxCell id="8ky8RM0VNlPD6aG0PIWe-89" value="" style="shape=tableRow;horizontal=0;startSize=0;swimlaneHead=0;swimlaneBody=0;fillColor=none;collapsible=0;dropTarget=0;points=[[0,0.5],[1,0.5]];portConstraint=eastwest;top=0;left=0;right=0;bottom=0;" parent="8ky8RM0VNlPD6aG0PIWe-82" vertex="1">
          <mxGeometry y="120" width="180" height="30" as="geometry" />
        </mxCell>
        <mxCell id="8ky8RM0VNlPD6aG0PIWe-90" value="" style="shape=partialRectangle;connectable=0;fillColor=none;top=0;left=0;bottom=0;right=0;editable=1;overflow=hidden;whiteSpace=wrap;html=1;" parent="8ky8RM0VNlPD6aG0PIWe-89" vertex="1">
          <mxGeometry width="30" height="30" as="geometry">
            <mxRectangle width="30" height="30" as="alternateBounds" />
          </mxGeometry>
        </mxCell>
        <mxCell id="8ky8RM0VNlPD6aG0PIWe-91" value="댓글 내용" style="shape=partialRectangle;connectable=0;fillColor=none;top=0;left=0;bottom=0;right=0;align=left;spacingLeft=6;overflow=hidden;whiteSpace=wrap;html=1;" parent="8ky8RM0VNlPD6aG0PIWe-89" vertex="1">
          <mxGeometry x="30" width="150" height="30" as="geometry">
            <mxRectangle width="150" height="30" as="alternateBounds" />
          </mxGeometry>
        </mxCell>
        <mxCell id="8ky8RM0VNlPD6aG0PIWe-101" value="" style="edgeStyle=entityRelationEdgeStyle;fontSize=12;html=1;endArrow=ERmandOne;startArrow=ERmandOne;rounded=0;exitX=1;exitY=0.5;exitDx=0;exitDy=0;entryX=1;entryY=0.5;entryDx=0;entryDy=0;" parent="1" source="8ky8RM0VNlPD6aG0PIWe-15" target="8ky8RM0VNlPD6aG0PIWe-96" edge="1">
          <mxGeometry width="100" height="100" relative="1" as="geometry">
            <mxPoint x="1060" y="430" as="sourcePoint" />
            <mxPoint x="1160" y="330" as="targetPoint" />
          </mxGeometry>
        </mxCell>
        <mxCell id="8ky8RM0VNlPD6aG0PIWe-102" value="과제" style="shape=table;startSize=30;container=1;collapsible=1;childLayout=tableLayout;fixedRows=1;rowLines=0;fontStyle=1;align=center;resizeLast=1;html=1;" parent="1" vertex="1">
          <mxGeometry x="1180" y="250" width="180" height="150" as="geometry" />
        </mxCell>
        <mxCell id="8ky8RM0VNlPD6aG0PIWe-103" value="" style="shape=tableRow;horizontal=0;startSize=0;swimlaneHead=0;swimlaneBody=0;fillColor=none;collapsible=0;dropTarget=0;points=[[0,0.5],[1,0.5]];portConstraint=eastwest;top=0;left=0;right=0;bottom=1;" parent="8ky8RM0VNlPD6aG0PIWe-102" vertex="1">
          <mxGeometry y="30" width="180" height="30" as="geometry" />
        </mxCell>
        <mxCell id="8ky8RM0VNlPD6aG0PIWe-104" value="PK" style="shape=partialRectangle;connectable=0;fillColor=none;top=0;left=0;bottom=0;right=0;fontStyle=1;overflow=hidden;whiteSpace=wrap;html=1;" parent="8ky8RM0VNlPD6aG0PIWe-103" vertex="1">
          <mxGeometry width="30" height="30" as="geometry">
            <mxRectangle width="30" height="30" as="alternateBounds" />
          </mxGeometry>
        </mxCell>
        <mxCell id="8ky8RM0VNlPD6aG0PIWe-105" value="과제ID" style="shape=partialRectangle;connectable=0;fillColor=none;top=0;left=0;bottom=0;right=0;align=left;spacingLeft=6;fontStyle=5;overflow=hidden;whiteSpace=wrap;html=1;" parent="8ky8RM0VNlPD6aG0PIWe-103" vertex="1">
          <mxGeometry x="30" width="150" height="30" as="geometry">
            <mxRectangle width="150" height="30" as="alternateBounds" />
          </mxGeometry>
        </mxCell>
        <mxCell id="8ky8RM0VNlPD6aG0PIWe-122" value="" style="shape=tableRow;horizontal=0;startSize=0;swimlaneHead=0;swimlaneBody=0;fillColor=none;collapsible=0;dropTarget=0;points=[[0,0.5],[1,0.5]];portConstraint=eastwest;top=0;left=0;right=0;bottom=1;" parent="8ky8RM0VNlPD6aG0PIWe-102" vertex="1">
          <mxGeometry y="60" width="180" height="30" as="geometry" />
        </mxCell>
        <mxCell id="8ky8RM0VNlPD6aG0PIWe-123" value="FK" style="shape=partialRectangle;connectable=0;fillColor=none;top=0;left=0;bottom=0;right=0;fontStyle=1;overflow=hidden;whiteSpace=wrap;html=1;" parent="8ky8RM0VNlPD6aG0PIWe-122" vertex="1">
          <mxGeometry width="30" height="30" as="geometry">
            <mxRectangle width="30" height="30" as="alternateBounds" />
          </mxGeometry>
        </mxCell>
        <mxCell id="8ky8RM0VNlPD6aG0PIWe-124" value="신청ID" style="shape=partialRectangle;connectable=0;fillColor=none;top=0;left=0;bottom=0;right=0;align=left;spacingLeft=6;fontStyle=5;overflow=hidden;whiteSpace=wrap;html=1;" parent="8ky8RM0VNlPD6aG0PIWe-122" vertex="1">
          <mxGeometry x="30" width="150" height="30" as="geometry">
            <mxRectangle width="150" height="30" as="alternateBounds" />
          </mxGeometry>
        </mxCell>
        <mxCell id="8ky8RM0VNlPD6aG0PIWe-106" value="" style="shape=tableRow;horizontal=0;startSize=0;swimlaneHead=0;swimlaneBody=0;fillColor=none;collapsible=0;dropTarget=0;points=[[0,0.5],[1,0.5]];portConstraint=eastwest;top=0;left=0;right=0;bottom=0;" parent="8ky8RM0VNlPD6aG0PIWe-102" vertex="1">
          <mxGeometry y="90" width="180" height="30" as="geometry" />
        </mxCell>
        <mxCell id="8ky8RM0VNlPD6aG0PIWe-107" value="" style="shape=partialRectangle;connectable=0;fillColor=none;top=0;left=0;bottom=0;right=0;editable=1;overflow=hidden;whiteSpace=wrap;html=1;" parent="8ky8RM0VNlPD6aG0PIWe-106" vertex="1">
          <mxGeometry width="30" height="30" as="geometry">
            <mxRectangle width="30" height="30" as="alternateBounds" />
          </mxGeometry>
        </mxCell>
        <mxCell id="8ky8RM0VNlPD6aG0PIWe-108" value="과제 내용" style="shape=partialRectangle;connectable=0;fillColor=none;top=0;left=0;bottom=0;right=0;align=left;spacingLeft=6;overflow=hidden;whiteSpace=wrap;html=1;" parent="8ky8RM0VNlPD6aG0PIWe-106" vertex="1">
          <mxGeometry x="30" width="150" height="30" as="geometry">
            <mxRectangle width="150" height="30" as="alternateBounds" />
          </mxGeometry>
        </mxCell>
        <mxCell id="8ky8RM0VNlPD6aG0PIWe-109" value="" style="shape=tableRow;horizontal=0;startSize=0;swimlaneHead=0;swimlaneBody=0;fillColor=none;collapsible=0;dropTarget=0;points=[[0,0.5],[1,0.5]];portConstraint=eastwest;top=0;left=0;right=0;bottom=0;" parent="8ky8RM0VNlPD6aG0PIWe-102" vertex="1">
          <mxGeometry y="120" width="180" height="30" as="geometry" />
        </mxCell>
        <mxCell id="8ky8RM0VNlPD6aG0PIWe-110" value="" style="shape=partialRectangle;connectable=0;fillColor=none;top=0;left=0;bottom=0;right=0;editable=1;overflow=hidden;whiteSpace=wrap;html=1;" parent="8ky8RM0VNlPD6aG0PIWe-109" vertex="1">
          <mxGeometry width="30" height="30" as="geometry">
            <mxRectangle width="30" height="30" as="alternateBounds" />
          </mxGeometry>
        </mxCell>
        <mxCell id="8ky8RM0VNlPD6aG0PIWe-111" value="과제를 했는지 안했는지" style="shape=partialRectangle;connectable=0;fillColor=none;top=0;left=0;bottom=0;right=0;align=left;spacingLeft=6;overflow=hidden;whiteSpace=wrap;html=1;" parent="8ky8RM0VNlPD6aG0PIWe-109" vertex="1">
          <mxGeometry x="30" width="150" height="30" as="geometry">
            <mxRectangle width="150" height="30" as="alternateBounds" />
          </mxGeometry>
        </mxCell>
        <mxCell id="8ky8RM0VNlPD6aG0PIWe-121" value="" style="edgeStyle=entityRelationEdgeStyle;fontSize=12;html=1;endArrow=ERzeroToMany;endFill=1;rounded=0;exitX=1;exitY=0.5;exitDx=0;exitDy=0;entryX=0;entryY=0.5;entryDx=0;entryDy=0;" parent="1" source="8ky8RM0VNlPD6aG0PIWe-15" target="8ky8RM0VNlPD6aG0PIWe-122" edge="1">
          <mxGeometry width="100" height="100" relative="1" as="geometry">
            <mxPoint x="1050" y="310" as="sourcePoint" />
            <mxPoint x="1180" y="355" as="targetPoint" />
          </mxGeometry>
        </mxCell>
        <mxCell id="8ky8RM0VNlPD6aG0PIWe-125" value="퀴즈" style="shape=table;startSize=30;container=1;collapsible=1;childLayout=tableLayout;fixedRows=1;rowLines=0;fontStyle=1;align=center;resizeLast=1;html=1;" parent="1" vertex="1">
          <mxGeometry x="1180" y="480" width="180" height="150" as="geometry" />
        </mxCell>
        <mxCell id="8ky8RM0VNlPD6aG0PIWe-126" value="" style="shape=tableRow;horizontal=0;startSize=0;swimlaneHead=0;swimlaneBody=0;fillColor=none;collapsible=0;dropTarget=0;points=[[0,0.5],[1,0.5]];portConstraint=eastwest;top=0;left=0;right=0;bottom=1;" parent="8ky8RM0VNlPD6aG0PIWe-125" vertex="1">
          <mxGeometry y="30" width="180" height="30" as="geometry" />
        </mxCell>
        <mxCell id="8ky8RM0VNlPD6aG0PIWe-127" value="PK" style="shape=partialRectangle;connectable=0;fillColor=none;top=0;left=0;bottom=0;right=0;fontStyle=1;overflow=hidden;whiteSpace=wrap;html=1;" parent="8ky8RM0VNlPD6aG0PIWe-126" vertex="1">
          <mxGeometry width="30" height="30" as="geometry">
            <mxRectangle width="30" height="30" as="alternateBounds" />
          </mxGeometry>
        </mxCell>
        <mxCell id="8ky8RM0VNlPD6aG0PIWe-128" value="퀴즈ID" style="shape=partialRectangle;connectable=0;fillColor=none;top=0;left=0;bottom=0;right=0;align=left;spacingLeft=6;fontStyle=5;overflow=hidden;whiteSpace=wrap;html=1;" parent="8ky8RM0VNlPD6aG0PIWe-126" vertex="1">
          <mxGeometry x="30" width="150" height="30" as="geometry">
            <mxRectangle width="150" height="30" as="alternateBounds" />
          </mxGeometry>
        </mxCell>
        <mxCell id="8ky8RM0VNlPD6aG0PIWe-138" value="" style="shape=tableRow;horizontal=0;startSize=0;swimlaneHead=0;swimlaneBody=0;fillColor=none;collapsible=0;dropTarget=0;points=[[0,0.5],[1,0.5]];portConstraint=eastwest;top=0;left=0;right=0;bottom=1;" parent="8ky8RM0VNlPD6aG0PIWe-125" vertex="1">
          <mxGeometry y="60" width="180" height="30" as="geometry" />
        </mxCell>
        <mxCell id="8ky8RM0VNlPD6aG0PIWe-139" value="FK" style="shape=partialRectangle;connectable=0;fillColor=none;top=0;left=0;bottom=0;right=0;fontStyle=1;overflow=hidden;whiteSpace=wrap;html=1;" parent="8ky8RM0VNlPD6aG0PIWe-138" vertex="1">
          <mxGeometry width="30" height="30" as="geometry">
            <mxRectangle width="30" height="30" as="alternateBounds" />
          </mxGeometry>
        </mxCell>
        <mxCell id="8ky8RM0VNlPD6aG0PIWe-140" value="신청ID" style="shape=partialRectangle;connectable=0;fillColor=none;top=0;left=0;bottom=0;right=0;align=left;spacingLeft=6;fontStyle=5;overflow=hidden;whiteSpace=wrap;html=1;" parent="8ky8RM0VNlPD6aG0PIWe-138" vertex="1">
          <mxGeometry x="30" width="150" height="30" as="geometry">
            <mxRectangle width="150" height="30" as="alternateBounds" />
          </mxGeometry>
        </mxCell>
        <mxCell id="8ky8RM0VNlPD6aG0PIWe-129" value="" style="shape=tableRow;horizontal=0;startSize=0;swimlaneHead=0;swimlaneBody=0;fillColor=none;collapsible=0;dropTarget=0;points=[[0,0.5],[1,0.5]];portConstraint=eastwest;top=0;left=0;right=0;bottom=0;" parent="8ky8RM0VNlPD6aG0PIWe-125" vertex="1">
          <mxGeometry y="90" width="180" height="30" as="geometry" />
        </mxCell>
        <mxCell id="8ky8RM0VNlPD6aG0PIWe-130" value="" style="shape=partialRectangle;connectable=0;fillColor=none;top=0;left=0;bottom=0;right=0;editable=1;overflow=hidden;whiteSpace=wrap;html=1;" parent="8ky8RM0VNlPD6aG0PIWe-129" vertex="1">
          <mxGeometry width="30" height="30" as="geometry">
            <mxRectangle width="30" height="30" as="alternateBounds" />
          </mxGeometry>
        </mxCell>
        <mxCell id="8ky8RM0VNlPD6aG0PIWe-131" value="퀴즈 내용" style="shape=partialRectangle;connectable=0;fillColor=none;top=0;left=0;bottom=0;right=0;align=left;spacingLeft=6;overflow=hidden;whiteSpace=wrap;html=1;" parent="8ky8RM0VNlPD6aG0PIWe-129" vertex="1">
          <mxGeometry x="30" width="150" height="30" as="geometry">
            <mxRectangle width="150" height="30" as="alternateBounds" />
          </mxGeometry>
        </mxCell>
        <mxCell id="8ky8RM0VNlPD6aG0PIWe-132" value="" style="shape=tableRow;horizontal=0;startSize=0;swimlaneHead=0;swimlaneBody=0;fillColor=none;collapsible=0;dropTarget=0;points=[[0,0.5],[1,0.5]];portConstraint=eastwest;top=0;left=0;right=0;bottom=0;" parent="8ky8RM0VNlPD6aG0PIWe-125" vertex="1">
          <mxGeometry y="120" width="180" height="30" as="geometry" />
        </mxCell>
        <mxCell id="8ky8RM0VNlPD6aG0PIWe-133" value="" style="shape=partialRectangle;connectable=0;fillColor=none;top=0;left=0;bottom=0;right=0;editable=1;overflow=hidden;whiteSpace=wrap;html=1;" parent="8ky8RM0VNlPD6aG0PIWe-132" vertex="1">
          <mxGeometry width="30" height="30" as="geometry">
            <mxRectangle width="30" height="30" as="alternateBounds" />
          </mxGeometry>
        </mxCell>
        <mxCell id="8ky8RM0VNlPD6aG0PIWe-134" value="점수" style="shape=partialRectangle;connectable=0;fillColor=none;top=0;left=0;bottom=0;right=0;align=left;spacingLeft=6;overflow=hidden;whiteSpace=wrap;html=1;" parent="8ky8RM0VNlPD6aG0PIWe-132" vertex="1">
          <mxGeometry x="30" width="150" height="30" as="geometry">
            <mxRectangle width="150" height="30" as="alternateBounds" />
          </mxGeometry>
        </mxCell>
        <mxCell id="8ky8RM0VNlPD6aG0PIWe-141" value="" style="edgeStyle=entityRelationEdgeStyle;fontSize=12;html=1;endArrow=ERzeroToMany;endFill=1;rounded=0;exitX=1;exitY=0.5;exitDx=0;exitDy=0;entryX=0;entryY=0.5;entryDx=0;entryDy=0;" parent="1" source="8ky8RM0VNlPD6aG0PIWe-15" target="8ky8RM0VNlPD6aG0PIWe-138" edge="1">
          <mxGeometry width="100" height="100" relative="1" as="geometry">
            <mxPoint x="1080" y="380" as="sourcePoint" />
            <mxPoint x="1180" y="280" as="targetPoint" />
          </mxGeometry>
        </mxCell>
        <mxCell id="8ky8RM0VNlPD6aG0PIWe-145" value="질문/답변 게시판" style="shape=table;startSize=30;container=1;collapsible=1;childLayout=tableLayout;fixedRows=1;rowLines=0;fontStyle=1;align=center;resizeLast=1;html=1;" parent="1" vertex="1">
          <mxGeometry x="780" y="730" width="180" height="180" as="geometry" />
        </mxCell>
        <mxCell id="8ky8RM0VNlPD6aG0PIWe-146" value="" style="shape=tableRow;horizontal=0;startSize=0;swimlaneHead=0;swimlaneBody=0;fillColor=none;collapsible=0;dropTarget=0;points=[[0,0.5],[1,0.5]];portConstraint=eastwest;top=0;left=0;right=0;bottom=1;" parent="8ky8RM0VNlPD6aG0PIWe-145" vertex="1">
          <mxGeometry y="30" width="180" height="30" as="geometry" />
        </mxCell>
        <mxCell id="8ky8RM0VNlPD6aG0PIWe-147" value="PK" style="shape=partialRectangle;connectable=0;fillColor=none;top=0;left=0;bottom=0;right=0;fontStyle=1;overflow=hidden;whiteSpace=wrap;html=1;" parent="8ky8RM0VNlPD6aG0PIWe-146" vertex="1">
          <mxGeometry width="30" height="30" as="geometry">
            <mxRectangle width="30" height="30" as="alternateBounds" />
          </mxGeometry>
        </mxCell>
        <mxCell id="8ky8RM0VNlPD6aG0PIWe-148" value="질문/답변 게시판ID" style="shape=partialRectangle;connectable=0;fillColor=none;top=0;left=0;bottom=0;right=0;align=left;spacingLeft=6;fontStyle=5;overflow=hidden;whiteSpace=wrap;html=1;" parent="8ky8RM0VNlPD6aG0PIWe-146" vertex="1">
          <mxGeometry x="30" width="150" height="30" as="geometry">
            <mxRectangle width="150" height="30" as="alternateBounds" />
          </mxGeometry>
        </mxCell>
        <mxCell id="8ky8RM0VNlPD6aG0PIWe-199" value="" style="shape=tableRow;horizontal=0;startSize=0;swimlaneHead=0;swimlaneBody=0;fillColor=none;collapsible=0;dropTarget=0;points=[[0,0.5],[1,0.5]];portConstraint=eastwest;top=0;left=0;right=0;bottom=1;" parent="8ky8RM0VNlPD6aG0PIWe-145" vertex="1">
          <mxGeometry y="60" width="180" height="30" as="geometry" />
        </mxCell>
        <mxCell id="8ky8RM0VNlPD6aG0PIWe-200" value="FK" style="shape=partialRectangle;connectable=0;fillColor=none;top=0;left=0;bottom=0;right=0;fontStyle=1;overflow=hidden;whiteSpace=wrap;html=1;" parent="8ky8RM0VNlPD6aG0PIWe-199" vertex="1">
          <mxGeometry width="30" height="30" as="geometry">
            <mxRectangle width="30" height="30" as="alternateBounds" />
          </mxGeometry>
        </mxCell>
        <mxCell id="8ky8RM0VNlPD6aG0PIWe-201" value="선생님ID" style="shape=partialRectangle;connectable=0;fillColor=none;top=0;left=0;bottom=0;right=0;align=left;spacingLeft=6;fontStyle=5;overflow=hidden;whiteSpace=wrap;html=1;" parent="8ky8RM0VNlPD6aG0PIWe-199" vertex="1">
          <mxGeometry x="30" width="150" height="30" as="geometry">
            <mxRectangle width="150" height="30" as="alternateBounds" />
          </mxGeometry>
        </mxCell>
        <mxCell id="8ky8RM0VNlPD6aG0PIWe-202" value="" style="shape=tableRow;horizontal=0;startSize=0;swimlaneHead=0;swimlaneBody=0;fillColor=none;collapsible=0;dropTarget=0;points=[[0,0.5],[1,0.5]];portConstraint=eastwest;top=0;left=0;right=0;bottom=1;" parent="8ky8RM0VNlPD6aG0PIWe-145" vertex="1">
          <mxGeometry y="90" width="180" height="30" as="geometry" />
        </mxCell>
        <mxCell id="8ky8RM0VNlPD6aG0PIWe-203" value="FK" style="shape=partialRectangle;connectable=0;fillColor=none;top=0;left=0;bottom=0;right=0;fontStyle=1;overflow=hidden;whiteSpace=wrap;html=1;" parent="8ky8RM0VNlPD6aG0PIWe-202" vertex="1">
          <mxGeometry width="30" height="30" as="geometry">
            <mxRectangle width="30" height="30" as="alternateBounds" />
          </mxGeometry>
        </mxCell>
        <mxCell id="8ky8RM0VNlPD6aG0PIWe-204" value="학생ID" style="shape=partialRectangle;connectable=0;fillColor=none;top=0;left=0;bottom=0;right=0;align=left;spacingLeft=6;fontStyle=5;overflow=hidden;whiteSpace=wrap;html=1;" parent="8ky8RM0VNlPD6aG0PIWe-202" vertex="1">
          <mxGeometry x="30" width="150" height="30" as="geometry">
            <mxRectangle width="150" height="30" as="alternateBounds" />
          </mxGeometry>
        </mxCell>
        <mxCell id="8ky8RM0VNlPD6aG0PIWe-149" value="" style="shape=tableRow;horizontal=0;startSize=0;swimlaneHead=0;swimlaneBody=0;fillColor=none;collapsible=0;dropTarget=0;points=[[0,0.5],[1,0.5]];portConstraint=eastwest;top=0;left=0;right=0;bottom=0;" parent="8ky8RM0VNlPD6aG0PIWe-145" vertex="1">
          <mxGeometry y="120" width="180" height="30" as="geometry" />
        </mxCell>
        <mxCell id="8ky8RM0VNlPD6aG0PIWe-150" value="" style="shape=partialRectangle;connectable=0;fillColor=none;top=0;left=0;bottom=0;right=0;editable=1;overflow=hidden;whiteSpace=wrap;html=1;" parent="8ky8RM0VNlPD6aG0PIWe-149" vertex="1">
          <mxGeometry width="30" height="30" as="geometry">
            <mxRectangle width="30" height="30" as="alternateBounds" />
          </mxGeometry>
        </mxCell>
        <mxCell id="8ky8RM0VNlPD6aG0PIWe-151" value="질문 내용" style="shape=partialRectangle;connectable=0;fillColor=none;top=0;left=0;bottom=0;right=0;align=left;spacingLeft=6;overflow=hidden;whiteSpace=wrap;html=1;" parent="8ky8RM0VNlPD6aG0PIWe-149" vertex="1">
          <mxGeometry x="30" width="150" height="30" as="geometry">
            <mxRectangle width="150" height="30" as="alternateBounds" />
          </mxGeometry>
        </mxCell>
        <mxCell id="8ky8RM0VNlPD6aG0PIWe-152" value="" style="shape=tableRow;horizontal=0;startSize=0;swimlaneHead=0;swimlaneBody=0;fillColor=none;collapsible=0;dropTarget=0;points=[[0,0.5],[1,0.5]];portConstraint=eastwest;top=0;left=0;right=0;bottom=0;" parent="8ky8RM0VNlPD6aG0PIWe-145" vertex="1">
          <mxGeometry y="150" width="180" height="30" as="geometry" />
        </mxCell>
        <mxCell id="8ky8RM0VNlPD6aG0PIWe-153" value="" style="shape=partialRectangle;connectable=0;fillColor=none;top=0;left=0;bottom=0;right=0;editable=1;overflow=hidden;whiteSpace=wrap;html=1;" parent="8ky8RM0VNlPD6aG0PIWe-152" vertex="1">
          <mxGeometry width="30" height="30" as="geometry">
            <mxRectangle width="30" height="30" as="alternateBounds" />
          </mxGeometry>
        </mxCell>
        <mxCell id="8ky8RM0VNlPD6aG0PIWe-154" value="답변 내용" style="shape=partialRectangle;connectable=0;fillColor=none;top=0;left=0;bottom=0;right=0;align=left;spacingLeft=6;overflow=hidden;whiteSpace=wrap;html=1;" parent="8ky8RM0VNlPD6aG0PIWe-152" vertex="1">
          <mxGeometry x="30" width="150" height="30" as="geometry">
            <mxRectangle width="150" height="30" as="alternateBounds" />
          </mxGeometry>
        </mxCell>
        <mxCell id="8ky8RM0VNlPD6aG0PIWe-158" value="스터디 모집 게시판" style="shape=table;startSize=30;container=1;collapsible=1;childLayout=tableLayout;fixedRows=1;rowLines=0;fontStyle=1;align=center;resizeLast=1;html=1;" parent="1" vertex="1">
          <mxGeometry x="1180" y="760" width="180" height="150" as="geometry" />
        </mxCell>
        <mxCell id="8ky8RM0VNlPD6aG0PIWe-159" value="" style="shape=tableRow;horizontal=0;startSize=0;swimlaneHead=0;swimlaneBody=0;fillColor=none;collapsible=0;dropTarget=0;points=[[0,0.5],[1,0.5]];portConstraint=eastwest;top=0;left=0;right=0;bottom=1;" parent="8ky8RM0VNlPD6aG0PIWe-158" vertex="1">
          <mxGeometry y="30" width="180" height="30" as="geometry" />
        </mxCell>
        <mxCell id="8ky8RM0VNlPD6aG0PIWe-160" value="PK" style="shape=partialRectangle;connectable=0;fillColor=none;top=0;left=0;bottom=0;right=0;fontStyle=1;overflow=hidden;whiteSpace=wrap;html=1;" parent="8ky8RM0VNlPD6aG0PIWe-159" vertex="1">
          <mxGeometry width="30" height="30" as="geometry">
            <mxRectangle width="30" height="30" as="alternateBounds" />
          </mxGeometry>
        </mxCell>
        <mxCell id="8ky8RM0VNlPD6aG0PIWe-161" value="스터디 모집 게시판ID" style="shape=partialRectangle;connectable=0;fillColor=none;top=0;left=0;bottom=0;right=0;align=left;spacingLeft=6;fontStyle=5;overflow=hidden;whiteSpace=wrap;html=1;" parent="8ky8RM0VNlPD6aG0PIWe-159" vertex="1">
          <mxGeometry x="30" width="150" height="30" as="geometry">
            <mxRectangle width="150" height="30" as="alternateBounds" />
          </mxGeometry>
        </mxCell>
        <mxCell id="8ky8RM0VNlPD6aG0PIWe-196" value="" style="shape=tableRow;horizontal=0;startSize=0;swimlaneHead=0;swimlaneBody=0;fillColor=none;collapsible=0;dropTarget=0;points=[[0,0.5],[1,0.5]];portConstraint=eastwest;top=0;left=0;right=0;bottom=1;" parent="8ky8RM0VNlPD6aG0PIWe-158" vertex="1">
          <mxGeometry y="60" width="180" height="30" as="geometry" />
        </mxCell>
        <mxCell id="8ky8RM0VNlPD6aG0PIWe-197" value="FK" style="shape=partialRectangle;connectable=0;fillColor=none;top=0;left=0;bottom=0;right=0;fontStyle=1;overflow=hidden;whiteSpace=wrap;html=1;" parent="8ky8RM0VNlPD6aG0PIWe-196" vertex="1">
          <mxGeometry width="30" height="30" as="geometry">
            <mxRectangle width="30" height="30" as="alternateBounds" />
          </mxGeometry>
        </mxCell>
        <mxCell id="8ky8RM0VNlPD6aG0PIWe-198" value="학생ID" style="shape=partialRectangle;connectable=0;fillColor=none;top=0;left=0;bottom=0;right=0;align=left;spacingLeft=6;fontStyle=5;overflow=hidden;whiteSpace=wrap;html=1;" parent="8ky8RM0VNlPD6aG0PIWe-196" vertex="1">
          <mxGeometry x="30" width="150" height="30" as="geometry">
            <mxRectangle width="150" height="30" as="alternateBounds" />
          </mxGeometry>
        </mxCell>
        <mxCell id="8ky8RM0VNlPD6aG0PIWe-162" value="" style="shape=tableRow;horizontal=0;startSize=0;swimlaneHead=0;swimlaneBody=0;fillColor=none;collapsible=0;dropTarget=0;points=[[0,0.5],[1,0.5]];portConstraint=eastwest;top=0;left=0;right=0;bottom=0;" parent="8ky8RM0VNlPD6aG0PIWe-158" vertex="1">
          <mxGeometry y="90" width="180" height="30" as="geometry" />
        </mxCell>
        <mxCell id="8ky8RM0VNlPD6aG0PIWe-163" value="" style="shape=partialRectangle;connectable=0;fillColor=none;top=0;left=0;bottom=0;right=0;editable=1;overflow=hidden;whiteSpace=wrap;html=1;" parent="8ky8RM0VNlPD6aG0PIWe-162" vertex="1">
          <mxGeometry width="30" height="30" as="geometry">
            <mxRectangle width="30" height="30" as="alternateBounds" />
          </mxGeometry>
        </mxCell>
        <mxCell id="8ky8RM0VNlPD6aG0PIWe-164" value="스터디 모집 내용" style="shape=partialRectangle;connectable=0;fillColor=none;top=0;left=0;bottom=0;right=0;align=left;spacingLeft=6;overflow=hidden;whiteSpace=wrap;html=1;" parent="8ky8RM0VNlPD6aG0PIWe-162" vertex="1">
          <mxGeometry x="30" width="150" height="30" as="geometry">
            <mxRectangle width="150" height="30" as="alternateBounds" />
          </mxGeometry>
        </mxCell>
        <mxCell id="8ky8RM0VNlPD6aG0PIWe-165" value="" style="shape=tableRow;horizontal=0;startSize=0;swimlaneHead=0;swimlaneBody=0;fillColor=none;collapsible=0;dropTarget=0;points=[[0,0.5],[1,0.5]];portConstraint=eastwest;top=0;left=0;right=0;bottom=0;" parent="8ky8RM0VNlPD6aG0PIWe-158" vertex="1">
          <mxGeometry y="120" width="180" height="30" as="geometry" />
        </mxCell>
        <mxCell id="8ky8RM0VNlPD6aG0PIWe-166" value="" style="shape=partialRectangle;connectable=0;fillColor=none;top=0;left=0;bottom=0;right=0;editable=1;overflow=hidden;whiteSpace=wrap;html=1;" parent="8ky8RM0VNlPD6aG0PIWe-165" vertex="1">
          <mxGeometry width="30" height="30" as="geometry">
            <mxRectangle width="30" height="30" as="alternateBounds" />
          </mxGeometry>
        </mxCell>
        <mxCell id="8ky8RM0VNlPD6aG0PIWe-167" value="댓글" style="shape=partialRectangle;connectable=0;fillColor=none;top=0;left=0;bottom=0;right=0;align=left;spacingLeft=6;overflow=hidden;whiteSpace=wrap;html=1;" parent="8ky8RM0VNlPD6aG0PIWe-165" vertex="1">
          <mxGeometry x="30" width="150" height="30" as="geometry">
            <mxRectangle width="150" height="30" as="alternateBounds" />
          </mxGeometry>
        </mxCell>
        <mxCell id="8ky8RM0VNlPD6aG0PIWe-171" value="선생님_강좌" style="shape=table;startSize=30;container=1;collapsible=1;childLayout=tableLayout;fixedRows=1;rowLines=0;fontStyle=1;align=center;resizeLast=1;html=1;" parent="1" vertex="1">
          <mxGeometry x="110" y="215" width="180" height="120" as="geometry" />
        </mxCell>
        <mxCell id="8ky8RM0VNlPD6aG0PIWe-184" value="" style="shape=tableRow;horizontal=0;startSize=0;swimlaneHead=0;swimlaneBody=0;fillColor=none;collapsible=0;dropTarget=0;points=[[0,0.5],[1,0.5]];portConstraint=eastwest;top=0;left=0;right=0;bottom=1;" parent="8ky8RM0VNlPD6aG0PIWe-171" vertex="1">
          <mxGeometry y="30" width="180" height="30" as="geometry" />
        </mxCell>
        <mxCell id="8ky8RM0VNlPD6aG0PIWe-185" value="PK" style="shape=partialRectangle;connectable=0;fillColor=none;top=0;left=0;bottom=0;right=0;fontStyle=1;overflow=hidden;whiteSpace=wrap;html=1;" parent="8ky8RM0VNlPD6aG0PIWe-184" vertex="1">
          <mxGeometry width="30" height="30" as="geometry">
            <mxRectangle width="30" height="30" as="alternateBounds" />
          </mxGeometry>
        </mxCell>
        <mxCell id="8ky8RM0VNlPD6aG0PIWe-186" value="선생님_강좌ID" style="shape=partialRectangle;connectable=0;fillColor=none;top=0;left=0;bottom=0;right=0;align=left;spacingLeft=6;fontStyle=5;overflow=hidden;whiteSpace=wrap;html=1;" parent="8ky8RM0VNlPD6aG0PIWe-184" vertex="1">
          <mxGeometry x="30" width="150" height="30" as="geometry">
            <mxRectangle width="150" height="30" as="alternateBounds" />
          </mxGeometry>
        </mxCell>
        <mxCell id="8ky8RM0VNlPD6aG0PIWe-187" value="" style="shape=tableRow;horizontal=0;startSize=0;swimlaneHead=0;swimlaneBody=0;fillColor=none;collapsible=0;dropTarget=0;points=[[0,0.5],[1,0.5]];portConstraint=eastwest;top=0;left=0;right=0;bottom=1;" parent="8ky8RM0VNlPD6aG0PIWe-171" vertex="1">
          <mxGeometry y="60" width="180" height="30" as="geometry" />
        </mxCell>
        <mxCell id="8ky8RM0VNlPD6aG0PIWe-188" value="FK" style="shape=partialRectangle;connectable=0;fillColor=none;top=0;left=0;bottom=0;right=0;fontStyle=1;overflow=hidden;whiteSpace=wrap;html=1;" parent="8ky8RM0VNlPD6aG0PIWe-187" vertex="1">
          <mxGeometry width="30" height="30" as="geometry">
            <mxRectangle width="30" height="30" as="alternateBounds" />
          </mxGeometry>
        </mxCell>
        <mxCell id="8ky8RM0VNlPD6aG0PIWe-189" value="선생님ID" style="shape=partialRectangle;connectable=0;fillColor=none;top=0;left=0;bottom=0;right=0;align=left;spacingLeft=6;fontStyle=5;overflow=hidden;whiteSpace=wrap;html=1;" parent="8ky8RM0VNlPD6aG0PIWe-187" vertex="1">
          <mxGeometry x="30" width="150" height="30" as="geometry">
            <mxRectangle width="150" height="30" as="alternateBounds" />
          </mxGeometry>
        </mxCell>
        <mxCell id="8ky8RM0VNlPD6aG0PIWe-190" value="" style="shape=tableRow;horizontal=0;startSize=0;swimlaneHead=0;swimlaneBody=0;fillColor=none;collapsible=0;dropTarget=0;points=[[0,0.5],[1,0.5]];portConstraint=eastwest;top=0;left=0;right=0;bottom=1;" parent="8ky8RM0VNlPD6aG0PIWe-171" vertex="1">
          <mxGeometry y="90" width="180" height="30" as="geometry" />
        </mxCell>
        <mxCell id="8ky8RM0VNlPD6aG0PIWe-191" value="FK" style="shape=partialRectangle;connectable=0;fillColor=none;top=0;left=0;bottom=0;right=0;fontStyle=1;overflow=hidden;whiteSpace=wrap;html=1;" parent="8ky8RM0VNlPD6aG0PIWe-190" vertex="1">
          <mxGeometry width="30" height="30" as="geometry">
            <mxRectangle width="30" height="30" as="alternateBounds" />
          </mxGeometry>
        </mxCell>
        <mxCell id="8ky8RM0VNlPD6aG0PIWe-192" value="강좌ID" style="shape=partialRectangle;connectable=0;fillColor=none;top=0;left=0;bottom=0;right=0;align=left;spacingLeft=6;fontStyle=5;overflow=hidden;whiteSpace=wrap;html=1;" parent="8ky8RM0VNlPD6aG0PIWe-190" vertex="1">
          <mxGeometry x="30" width="150" height="30" as="geometry">
            <mxRectangle width="150" height="30" as="alternateBounds" />
          </mxGeometry>
        </mxCell>
        <mxCell id="8ky8RM0VNlPD6aG0PIWe-193" value="" style="edgeStyle=entityRelationEdgeStyle;fontSize=12;html=1;endArrow=ERzeroToMany;endFill=1;rounded=0;exitX=1;exitY=0.5;exitDx=0;exitDy=0;entryX=0;entryY=0.5;entryDx=0;entryDy=0;" parent="1" source="3iviCNAftZ1JlKYPXwVJ-2" target="8ky8RM0VNlPD6aG0PIWe-187" edge="1">
          <mxGeometry width="100" height="100" relative="1" as="geometry">
            <mxPoint x="30" y="140" as="sourcePoint" />
            <mxPoint x="130" y="40" as="targetPoint" />
          </mxGeometry>
        </mxCell>
        <mxCell id="8ky8RM0VNlPD6aG0PIWe-194" value="" style="edgeStyle=entityRelationEdgeStyle;fontSize=12;html=1;endArrow=ERzeroToMany;endFill=1;rounded=0;exitX=0;exitY=0.5;exitDx=0;exitDy=0;entryX=1;entryY=0.5;entryDx=0;entryDy=0;" parent="1" source="3iviCNAftZ1JlKYPXwVJ-15" target="8ky8RM0VNlPD6aG0PIWe-190" edge="1">
          <mxGeometry width="100" height="100" relative="1" as="geometry">
            <mxPoint x="190" y="320" as="sourcePoint" />
            <mxPoint x="290" y="220" as="targetPoint" />
          </mxGeometry>
        </mxCell>
        <mxCell id="8ky8RM0VNlPD6aG0PIWe-205" value="" style="edgeStyle=entityRelationEdgeStyle;fontSize=12;html=1;endArrow=ERzeroToMany;endFill=1;rounded=0;exitX=1;exitY=0.5;exitDx=0;exitDy=0;entryX=0;entryY=0.5;entryDx=0;entryDy=0;" parent="1" source="3iviCNAftZ1JlKYPXwVJ-2" target="8ky8RM0VNlPD6aG0PIWe-199" edge="1">
          <mxGeometry width="100" height="100" relative="1" as="geometry">
            <mxPoint x="200" y="460" as="sourcePoint" />
            <mxPoint x="300" y="360" as="targetPoint" />
          </mxGeometry>
        </mxCell>
        <mxCell id="8ky8RM0VNlPD6aG0PIWe-207" value="" style="edgeStyle=entityRelationEdgeStyle;fontSize=12;html=1;endArrow=ERzeroToMany;endFill=1;rounded=0;entryX=1;entryY=0.5;entryDx=0;entryDy=0;exitX=1;exitY=0.5;exitDx=0;exitDy=0;" parent="1" source="8ky8RM0VNlPD6aG0PIWe-2" target="8ky8RM0VNlPD6aG0PIWe-202" edge="1">
          <mxGeometry width="100" height="100" relative="1" as="geometry">
            <mxPoint x="1020" y="600" as="sourcePoint" />
            <mxPoint x="760" y="850" as="targetPoint" />
          </mxGeometry>
        </mxCell>
        <mxCell id="8ky8RM0VNlPD6aG0PIWe-208" value="" style="edgeStyle=entityRelationEdgeStyle;fontSize=12;html=1;endArrow=ERzeroToMany;endFill=1;rounded=0;entryX=0;entryY=0.5;entryDx=0;entryDy=0;exitX=1;exitY=0.5;exitDx=0;exitDy=0;" parent="1" source="8ky8RM0VNlPD6aG0PIWe-2" target="8ky8RM0VNlPD6aG0PIWe-196" edge="1">
          <mxGeometry width="100" height="100" relative="1" as="geometry">
            <mxPoint x="1040" y="790" as="sourcePoint" />
            <mxPoint x="1140" y="690" as="targetPoint" />
          </mxGeometry>
        </mxCell>
        <mxCell id="8ky8RM0VNlPD6aG0PIWe-212" value="강의" style="shape=table;startSize=30;container=1;collapsible=1;childLayout=tableLayout;fixedRows=1;rowLines=0;fontStyle=1;align=center;resizeLast=1;html=1;" parent="1" vertex="1">
          <mxGeometry x="220" y="630" width="180" height="180" as="geometry" />
        </mxCell>
        <mxCell id="8ky8RM0VNlPD6aG0PIWe-213" value="" style="shape=tableRow;horizontal=0;startSize=0;swimlaneHead=0;swimlaneBody=0;fillColor=none;collapsible=0;dropTarget=0;points=[[0,0.5],[1,0.5]];portConstraint=eastwest;top=0;left=0;right=0;bottom=1;" parent="8ky8RM0VNlPD6aG0PIWe-212" vertex="1">
          <mxGeometry y="30" width="180" height="30" as="geometry" />
        </mxCell>
        <mxCell id="8ky8RM0VNlPD6aG0PIWe-214" value="PK" style="shape=partialRectangle;connectable=0;fillColor=none;top=0;left=0;bottom=0;right=0;fontStyle=1;overflow=hidden;whiteSpace=wrap;html=1;" parent="8ky8RM0VNlPD6aG0PIWe-213" vertex="1">
          <mxGeometry width="30" height="30" as="geometry">
            <mxRectangle width="30" height="30" as="alternateBounds" />
          </mxGeometry>
        </mxCell>
        <mxCell id="8ky8RM0VNlPD6aG0PIWe-215" value="UniqueID" style="shape=partialRectangle;connectable=0;fillColor=none;top=0;left=0;bottom=0;right=0;align=left;spacingLeft=6;fontStyle=5;overflow=hidden;whiteSpace=wrap;html=1;" parent="8ky8RM0VNlPD6aG0PIWe-213" vertex="1">
          <mxGeometry x="30" width="150" height="30" as="geometry">
            <mxRectangle width="150" height="30" as="alternateBounds" />
          </mxGeometry>
        </mxCell>
        <mxCell id="8ky8RM0VNlPD6aG0PIWe-225" value="" style="shape=tableRow;horizontal=0;startSize=0;swimlaneHead=0;swimlaneBody=0;fillColor=none;collapsible=0;dropTarget=0;points=[[0,0.5],[1,0.5]];portConstraint=eastwest;top=0;left=0;right=0;bottom=1;" parent="8ky8RM0VNlPD6aG0PIWe-212" vertex="1">
          <mxGeometry y="60" width="180" height="30" as="geometry" />
        </mxCell>
        <mxCell id="8ky8RM0VNlPD6aG0PIWe-226" value="PK" style="shape=partialRectangle;connectable=0;fillColor=none;top=0;left=0;bottom=0;right=0;fontStyle=1;overflow=hidden;whiteSpace=wrap;html=1;" parent="8ky8RM0VNlPD6aG0PIWe-225" vertex="1">
          <mxGeometry width="30" height="30" as="geometry">
            <mxRectangle width="30" height="30" as="alternateBounds" />
          </mxGeometry>
        </mxCell>
        <mxCell id="8ky8RM0VNlPD6aG0PIWe-227" value="UniqueID" style="shape=partialRectangle;connectable=0;fillColor=none;top=0;left=0;bottom=0;right=0;align=left;spacingLeft=6;fontStyle=5;overflow=hidden;whiteSpace=wrap;html=1;" parent="8ky8RM0VNlPD6aG0PIWe-225" vertex="1">
          <mxGeometry x="30" width="150" height="30" as="geometry">
            <mxRectangle width="150" height="30" as="alternateBounds" />
          </mxGeometry>
        </mxCell>
        <mxCell id="8ky8RM0VNlPD6aG0PIWe-216" value="" style="shape=tableRow;horizontal=0;startSize=0;swimlaneHead=0;swimlaneBody=0;fillColor=none;collapsible=0;dropTarget=0;points=[[0,0.5],[1,0.5]];portConstraint=eastwest;top=0;left=0;right=0;bottom=0;" parent="8ky8RM0VNlPD6aG0PIWe-212" vertex="1">
          <mxGeometry y="90" width="180" height="30" as="geometry" />
        </mxCell>
        <mxCell id="8ky8RM0VNlPD6aG0PIWe-217" value="" style="shape=partialRectangle;connectable=0;fillColor=none;top=0;left=0;bottom=0;right=0;editable=1;overflow=hidden;whiteSpace=wrap;html=1;" parent="8ky8RM0VNlPD6aG0PIWe-216" vertex="1">
          <mxGeometry width="30" height="30" as="geometry">
            <mxRectangle width="30" height="30" as="alternateBounds" />
          </mxGeometry>
        </mxCell>
        <mxCell id="8ky8RM0VNlPD6aG0PIWe-218" value="Row 1" style="shape=partialRectangle;connectable=0;fillColor=none;top=0;left=0;bottom=0;right=0;align=left;spacingLeft=6;overflow=hidden;whiteSpace=wrap;html=1;" parent="8ky8RM0VNlPD6aG0PIWe-216" vertex="1">
          <mxGeometry x="30" width="150" height="30" as="geometry">
            <mxRectangle width="150" height="30" as="alternateBounds" />
          </mxGeometry>
        </mxCell>
        <mxCell id="8ky8RM0VNlPD6aG0PIWe-219" value="" style="shape=tableRow;horizontal=0;startSize=0;swimlaneHead=0;swimlaneBody=0;fillColor=none;collapsible=0;dropTarget=0;points=[[0,0.5],[1,0.5]];portConstraint=eastwest;top=0;left=0;right=0;bottom=0;" parent="8ky8RM0VNlPD6aG0PIWe-212" vertex="1">
          <mxGeometry y="120" width="180" height="30" as="geometry" />
        </mxCell>
        <mxCell id="8ky8RM0VNlPD6aG0PIWe-220" value="" style="shape=partialRectangle;connectable=0;fillColor=none;top=0;left=0;bottom=0;right=0;editable=1;overflow=hidden;whiteSpace=wrap;html=1;" parent="8ky8RM0VNlPD6aG0PIWe-219" vertex="1">
          <mxGeometry width="30" height="30" as="geometry">
            <mxRectangle width="30" height="30" as="alternateBounds" />
          </mxGeometry>
        </mxCell>
        <mxCell id="8ky8RM0VNlPD6aG0PIWe-221" value="Row 2" style="shape=partialRectangle;connectable=0;fillColor=none;top=0;left=0;bottom=0;right=0;align=left;spacingLeft=6;overflow=hidden;whiteSpace=wrap;html=1;" parent="8ky8RM0VNlPD6aG0PIWe-219" vertex="1">
          <mxGeometry x="30" width="150" height="30" as="geometry">
            <mxRectangle width="150" height="30" as="alternateBounds" />
          </mxGeometry>
        </mxCell>
        <mxCell id="8ky8RM0VNlPD6aG0PIWe-222" value="" style="shape=tableRow;horizontal=0;startSize=0;swimlaneHead=0;swimlaneBody=0;fillColor=none;collapsible=0;dropTarget=0;points=[[0,0.5],[1,0.5]];portConstraint=eastwest;top=0;left=0;right=0;bottom=0;" parent="8ky8RM0VNlPD6aG0PIWe-212" vertex="1">
          <mxGeometry y="150" width="180" height="30" as="geometry" />
        </mxCell>
        <mxCell id="8ky8RM0VNlPD6aG0PIWe-223" value="" style="shape=partialRectangle;connectable=0;fillColor=none;top=0;left=0;bottom=0;right=0;editable=1;overflow=hidden;whiteSpace=wrap;html=1;" parent="8ky8RM0VNlPD6aG0PIWe-222" vertex="1">
          <mxGeometry width="30" height="30" as="geometry">
            <mxRectangle width="30" height="30" as="alternateBounds" />
          </mxGeometry>
        </mxCell>
        <mxCell id="8ky8RM0VNlPD6aG0PIWe-224" value="Row 3" style="shape=partialRectangle;connectable=0;fillColor=none;top=0;left=0;bottom=0;right=0;align=left;spacingLeft=6;overflow=hidden;whiteSpace=wrap;html=1;" parent="8ky8RM0VNlPD6aG0PIWe-222" vertex="1">
          <mxGeometry x="30" width="150" height="30" as="geometry">
            <mxRectangle width="150" height="30" as="alternateBounds" />
          </mxGeometry>
        </mxCell>
        <mxCell id="8ky8RM0VNlPD6aG0PIWe-228" value="강좌(course)" style="shape=table;startSize=30;container=1;collapsible=1;childLayout=tableLayout;fixedRows=1;rowLines=0;fontStyle=1;align=center;resizeLast=1;html=1;" parent="1" vertex="1">
          <mxGeometry x="150" y="1850" width="180" height="210" as="geometry" />
        </mxCell>
        <mxCell id="8ky8RM0VNlPD6aG0PIWe-229" value="" style="shape=tableRow;horizontal=0;startSize=0;swimlaneHead=0;swimlaneBody=0;fillColor=none;collapsible=0;dropTarget=0;points=[[0,0.5],[1,0.5]];portConstraint=eastwest;top=0;left=0;right=0;bottom=1;" parent="8ky8RM0VNlPD6aG0PIWe-228" vertex="1">
          <mxGeometry y="30" width="180" height="30" as="geometry" />
        </mxCell>
        <mxCell id="8ky8RM0VNlPD6aG0PIWe-230" value="PK" style="shape=partialRectangle;connectable=0;fillColor=none;top=0;left=0;bottom=0;right=0;fontStyle=1;overflow=hidden;whiteSpace=wrap;html=1;" parent="8ky8RM0VNlPD6aG0PIWe-229" vertex="1">
          <mxGeometry width="30" height="30" as="geometry">
            <mxRectangle width="30" height="30" as="alternateBounds" />
          </mxGeometry>
        </mxCell>
        <mxCell id="8ky8RM0VNlPD6aG0PIWe-231" value="강좌ID" style="shape=partialRectangle;connectable=0;fillColor=none;top=0;left=0;bottom=0;right=0;align=left;spacingLeft=6;fontStyle=5;overflow=hidden;whiteSpace=wrap;html=1;" parent="8ky8RM0VNlPD6aG0PIWe-229" vertex="1">
          <mxGeometry x="30" width="150" height="30" as="geometry">
            <mxRectangle width="150" height="30" as="alternateBounds" />
          </mxGeometry>
        </mxCell>
        <mxCell id="8ky8RM0VNlPD6aG0PIWe-425" value="" style="shape=tableRow;horizontal=0;startSize=0;swimlaneHead=0;swimlaneBody=0;fillColor=none;collapsible=0;dropTarget=0;points=[[0,0.5],[1,0.5]];portConstraint=eastwest;top=0;left=0;right=0;bottom=1;" parent="8ky8RM0VNlPD6aG0PIWe-228" vertex="1">
          <mxGeometry y="60" width="180" height="30" as="geometry" />
        </mxCell>
        <mxCell id="8ky8RM0VNlPD6aG0PIWe-426" value="FK" style="shape=partialRectangle;connectable=0;fillColor=none;top=0;left=0;bottom=0;right=0;fontStyle=1;overflow=hidden;whiteSpace=wrap;html=1;" parent="8ky8RM0VNlPD6aG0PIWe-425" vertex="1">
          <mxGeometry width="30" height="30" as="geometry">
            <mxRectangle width="30" height="30" as="alternateBounds" />
          </mxGeometry>
        </mxCell>
        <mxCell id="8ky8RM0VNlPD6aG0PIWe-427" value="유저ID (선생님)" style="shape=partialRectangle;connectable=0;fillColor=none;top=0;left=0;bottom=0;right=0;align=left;spacingLeft=6;fontStyle=5;overflow=hidden;whiteSpace=wrap;html=1;" parent="8ky8RM0VNlPD6aG0PIWe-425" vertex="1">
          <mxGeometry x="30" width="150" height="30" as="geometry">
            <mxRectangle width="150" height="30" as="alternateBounds" />
          </mxGeometry>
        </mxCell>
        <mxCell id="8ky8RM0VNlPD6aG0PIWe-232" value="" style="shape=tableRow;horizontal=0;startSize=0;swimlaneHead=0;swimlaneBody=0;fillColor=none;collapsible=0;dropTarget=0;points=[[0,0.5],[1,0.5]];portConstraint=eastwest;top=0;left=0;right=0;bottom=0;" parent="8ky8RM0VNlPD6aG0PIWe-228" vertex="1">
          <mxGeometry y="90" width="180" height="30" as="geometry" />
        </mxCell>
        <mxCell id="8ky8RM0VNlPD6aG0PIWe-233" value="" style="shape=partialRectangle;connectable=0;fillColor=none;top=0;left=0;bottom=0;right=0;editable=1;overflow=hidden;whiteSpace=wrap;html=1;" parent="8ky8RM0VNlPD6aG0PIWe-232" vertex="1">
          <mxGeometry width="30" height="30" as="geometry">
            <mxRectangle width="30" height="30" as="alternateBounds" />
          </mxGeometry>
        </mxCell>
        <mxCell id="8ky8RM0VNlPD6aG0PIWe-234" value="진행 여부(progress) / BOOLEAN" style="shape=partialRectangle;connectable=0;fillColor=none;top=0;left=0;bottom=0;right=0;align=left;spacingLeft=6;overflow=hidden;whiteSpace=wrap;html=1;" parent="8ky8RM0VNlPD6aG0PIWe-232" vertex="1">
          <mxGeometry x="30" width="150" height="30" as="geometry">
            <mxRectangle width="150" height="30" as="alternateBounds" />
          </mxGeometry>
        </mxCell>
        <mxCell id="8ky8RM0VNlPD6aG0PIWe-350" value="" style="shape=tableRow;horizontal=0;startSize=0;swimlaneHead=0;swimlaneBody=0;fillColor=none;collapsible=0;dropTarget=0;points=[[0,0.5],[1,0.5]];portConstraint=eastwest;top=0;left=0;right=0;bottom=0;" parent="8ky8RM0VNlPD6aG0PIWe-228" vertex="1">
          <mxGeometry y="120" width="180" height="30" as="geometry" />
        </mxCell>
        <mxCell id="8ky8RM0VNlPD6aG0PIWe-351" value="" style="shape=partialRectangle;connectable=0;fillColor=none;top=0;left=0;bottom=0;right=0;editable=1;overflow=hidden;whiteSpace=wrap;html=1;" parent="8ky8RM0VNlPD6aG0PIWe-350" vertex="1">
          <mxGeometry width="30" height="30" as="geometry">
            <mxRectangle width="30" height="30" as="alternateBounds" />
          </mxGeometry>
        </mxCell>
        <mxCell id="8ky8RM0VNlPD6aG0PIWe-352" value="시작 날짜(start date) / DATETIME" style="shape=partialRectangle;connectable=0;fillColor=none;top=0;left=0;bottom=0;right=0;align=left;spacingLeft=6;overflow=hidden;whiteSpace=wrap;html=1;" parent="8ky8RM0VNlPD6aG0PIWe-350" vertex="1">
          <mxGeometry x="30" width="150" height="30" as="geometry">
            <mxRectangle width="150" height="30" as="alternateBounds" />
          </mxGeometry>
        </mxCell>
        <mxCell id="kKTXV7pDH5wiCtCQfZ3n-7" value="" style="shape=tableRow;horizontal=0;startSize=0;swimlaneHead=0;swimlaneBody=0;fillColor=none;collapsible=0;dropTarget=0;points=[[0,0.5],[1,0.5]];portConstraint=eastwest;top=0;left=0;right=0;bottom=0;" parent="8ky8RM0VNlPD6aG0PIWe-228" vertex="1">
          <mxGeometry y="150" width="180" height="30" as="geometry" />
        </mxCell>
        <mxCell id="kKTXV7pDH5wiCtCQfZ3n-8" value="" style="shape=partialRectangle;connectable=0;fillColor=none;top=0;left=0;bottom=0;right=0;editable=1;overflow=hidden;whiteSpace=wrap;html=1;" parent="kKTXV7pDH5wiCtCQfZ3n-7" vertex="1">
          <mxGeometry width="30" height="30" as="geometry">
            <mxRectangle width="30" height="30" as="alternateBounds" />
          </mxGeometry>
        </mxCell>
        <mxCell id="kKTXV7pDH5wiCtCQfZ3n-9" value="강좌 이름(name) / VARCHAR" style="shape=partialRectangle;connectable=0;fillColor=none;top=0;left=0;bottom=0;right=0;align=left;spacingLeft=6;overflow=hidden;whiteSpace=wrap;html=1;" parent="kKTXV7pDH5wiCtCQfZ3n-7" vertex="1">
          <mxGeometry x="30" width="150" height="30" as="geometry">
            <mxRectangle width="150" height="30" as="alternateBounds" />
          </mxGeometry>
        </mxCell>
        <mxCell id="kKTXV7pDH5wiCtCQfZ3n-10" value="" style="shape=tableRow;horizontal=0;startSize=0;swimlaneHead=0;swimlaneBody=0;fillColor=none;collapsible=0;dropTarget=0;points=[[0,0.5],[1,0.5]];portConstraint=eastwest;top=0;left=0;right=0;bottom=0;" parent="8ky8RM0VNlPD6aG0PIWe-228" vertex="1">
          <mxGeometry y="180" width="180" height="30" as="geometry" />
        </mxCell>
        <mxCell id="kKTXV7pDH5wiCtCQfZ3n-11" value="" style="shape=partialRectangle;connectable=0;fillColor=none;top=0;left=0;bottom=0;right=0;editable=1;overflow=hidden;whiteSpace=wrap;html=1;" parent="kKTXV7pDH5wiCtCQfZ3n-10" vertex="1">
          <mxGeometry width="30" height="30" as="geometry">
            <mxRectangle width="30" height="30" as="alternateBounds" />
          </mxGeometry>
        </mxCell>
        <mxCell id="kKTXV7pDH5wiCtCQfZ3n-12" value="강좌 내용(content) /&amp;nbsp; TEXT" style="shape=partialRectangle;connectable=0;fillColor=none;top=0;left=0;bottom=0;right=0;align=left;spacingLeft=6;overflow=hidden;whiteSpace=wrap;html=1;" parent="kKTXV7pDH5wiCtCQfZ3n-10" vertex="1">
          <mxGeometry x="30" width="150" height="30" as="geometry">
            <mxRectangle width="150" height="30" as="alternateBounds" />
          </mxGeometry>
        </mxCell>
        <mxCell id="8ky8RM0VNlPD6aG0PIWe-241" value="강의(lecture)" style="shape=table;startSize=30;container=1;collapsible=1;childLayout=tableLayout;fixedRows=1;rowLines=0;fontStyle=1;align=center;resizeLast=1;html=1;" parent="1" vertex="1">
          <mxGeometry x="458" y="2080" width="180" height="120" as="geometry" />
        </mxCell>
        <mxCell id="8ky8RM0VNlPD6aG0PIWe-242" value="" style="shape=tableRow;horizontal=0;startSize=0;swimlaneHead=0;swimlaneBody=0;fillColor=none;collapsible=0;dropTarget=0;points=[[0,0.5],[1,0.5]];portConstraint=eastwest;top=0;left=0;right=0;bottom=1;" parent="8ky8RM0VNlPD6aG0PIWe-241" vertex="1">
          <mxGeometry y="30" width="180" height="30" as="geometry" />
        </mxCell>
        <mxCell id="8ky8RM0VNlPD6aG0PIWe-243" value="PK" style="shape=partialRectangle;connectable=0;fillColor=none;top=0;left=0;bottom=0;right=0;fontStyle=1;overflow=hidden;whiteSpace=wrap;html=1;" parent="8ky8RM0VNlPD6aG0PIWe-242" vertex="1">
          <mxGeometry width="30" height="30" as="geometry">
            <mxRectangle width="30" height="30" as="alternateBounds" />
          </mxGeometry>
        </mxCell>
        <mxCell id="8ky8RM0VNlPD6aG0PIWe-244" value="강의ID" style="shape=partialRectangle;connectable=0;fillColor=none;top=0;left=0;bottom=0;right=0;align=left;spacingLeft=6;fontStyle=5;overflow=hidden;whiteSpace=wrap;html=1;" parent="8ky8RM0VNlPD6aG0PIWe-242" vertex="1">
          <mxGeometry x="30" width="150" height="30" as="geometry">
            <mxRectangle width="150" height="30" as="alternateBounds" />
          </mxGeometry>
        </mxCell>
        <mxCell id="8ky8RM0VNlPD6aG0PIWe-254" value="" style="shape=tableRow;horizontal=0;startSize=0;swimlaneHead=0;swimlaneBody=0;fillColor=none;collapsible=0;dropTarget=0;points=[[0,0.5],[1,0.5]];portConstraint=eastwest;top=0;left=0;right=0;bottom=1;" parent="8ky8RM0VNlPD6aG0PIWe-241" vertex="1">
          <mxGeometry y="60" width="180" height="30" as="geometry" />
        </mxCell>
        <mxCell id="8ky8RM0VNlPD6aG0PIWe-255" value="FK" style="shape=partialRectangle;connectable=0;fillColor=none;top=0;left=0;bottom=0;right=0;fontStyle=1;overflow=hidden;whiteSpace=wrap;html=1;" parent="8ky8RM0VNlPD6aG0PIWe-254" vertex="1">
          <mxGeometry width="30" height="30" as="geometry">
            <mxRectangle width="30" height="30" as="alternateBounds" />
          </mxGeometry>
        </mxCell>
        <mxCell id="8ky8RM0VNlPD6aG0PIWe-256" value="강좌ID" style="shape=partialRectangle;connectable=0;fillColor=none;top=0;left=0;bottom=0;right=0;align=left;spacingLeft=6;fontStyle=5;overflow=hidden;whiteSpace=wrap;html=1;" parent="8ky8RM0VNlPD6aG0PIWe-254" vertex="1">
          <mxGeometry x="30" width="150" height="30" as="geometry">
            <mxRectangle width="150" height="30" as="alternateBounds" />
          </mxGeometry>
        </mxCell>
        <mxCell id="8ky8RM0VNlPD6aG0PIWe-245" value="" style="shape=tableRow;horizontal=0;startSize=0;swimlaneHead=0;swimlaneBody=0;fillColor=none;collapsible=0;dropTarget=0;points=[[0,0.5],[1,0.5]];portConstraint=eastwest;top=0;left=0;right=0;bottom=0;" parent="8ky8RM0VNlPD6aG0PIWe-241" vertex="1">
          <mxGeometry y="90" width="180" height="30" as="geometry" />
        </mxCell>
        <mxCell id="8ky8RM0VNlPD6aG0PIWe-246" value="" style="shape=partialRectangle;connectable=0;fillColor=none;top=0;left=0;bottom=0;right=0;editable=1;overflow=hidden;whiteSpace=wrap;html=1;" parent="8ky8RM0VNlPD6aG0PIWe-245" vertex="1">
          <mxGeometry width="30" height="30" as="geometry">
            <mxRectangle width="30" height="30" as="alternateBounds" />
          </mxGeometry>
        </mxCell>
        <mxCell id="8ky8RM0VNlPD6aG0PIWe-247" value="강의 이름(name) / VARCHAR" style="shape=partialRectangle;connectable=0;fillColor=none;top=0;left=0;bottom=0;right=0;align=left;spacingLeft=6;overflow=hidden;whiteSpace=wrap;html=1;" parent="8ky8RM0VNlPD6aG0PIWe-245" vertex="1">
          <mxGeometry x="30" width="150" height="30" as="geometry">
            <mxRectangle width="150" height="30" as="alternateBounds" />
          </mxGeometry>
        </mxCell>
        <mxCell id="8ky8RM0VNlPD6aG0PIWe-257" value="선생님(teacher)" style="shape=table;startSize=30;container=1;collapsible=1;childLayout=tableLayout;fixedRows=1;rowLines=0;fontStyle=1;align=center;resizeLast=1;html=1;" parent="1" vertex="1">
          <mxGeometry x="-660" y="1440" width="180" height="120" as="geometry" />
        </mxCell>
        <mxCell id="8ky8RM0VNlPD6aG0PIWe-258" value="" style="shape=tableRow;horizontal=0;startSize=0;swimlaneHead=0;swimlaneBody=0;fillColor=none;collapsible=0;dropTarget=0;points=[[0,0.5],[1,0.5]];portConstraint=eastwest;top=0;left=0;right=0;bottom=1;" parent="8ky8RM0VNlPD6aG0PIWe-257" vertex="1">
          <mxGeometry y="30" width="180" height="30" as="geometry" />
        </mxCell>
        <mxCell id="8ky8RM0VNlPD6aG0PIWe-259" value="PK" style="shape=partialRectangle;connectable=0;fillColor=none;top=0;left=0;bottom=0;right=0;fontStyle=1;overflow=hidden;whiteSpace=wrap;html=1;" parent="8ky8RM0VNlPD6aG0PIWe-258" vertex="1">
          <mxGeometry width="30" height="30" as="geometry">
            <mxRectangle width="30" height="30" as="alternateBounds" />
          </mxGeometry>
        </mxCell>
        <mxCell id="8ky8RM0VNlPD6aG0PIWe-260" value="선생님ID" style="shape=partialRectangle;connectable=0;fillColor=none;top=0;left=0;bottom=0;right=0;align=left;spacingLeft=6;fontStyle=5;overflow=hidden;whiteSpace=wrap;html=1;" parent="8ky8RM0VNlPD6aG0PIWe-258" vertex="1">
          <mxGeometry x="30" width="150" height="30" as="geometry">
            <mxRectangle width="150" height="30" as="alternateBounds" />
          </mxGeometry>
        </mxCell>
        <mxCell id="8ky8RM0VNlPD6aG0PIWe-261" value="" style="shape=tableRow;horizontal=0;startSize=0;swimlaneHead=0;swimlaneBody=0;fillColor=none;collapsible=0;dropTarget=0;points=[[0,0.5],[1,0.5]];portConstraint=eastwest;top=0;left=0;right=0;bottom=0;" parent="8ky8RM0VNlPD6aG0PIWe-257" vertex="1">
          <mxGeometry y="60" width="180" height="30" as="geometry" />
        </mxCell>
        <mxCell id="8ky8RM0VNlPD6aG0PIWe-262" value="" style="shape=partialRectangle;connectable=0;fillColor=none;top=0;left=0;bottom=0;right=0;editable=1;overflow=hidden;whiteSpace=wrap;html=1;" parent="8ky8RM0VNlPD6aG0PIWe-261" vertex="1">
          <mxGeometry width="30" height="30" as="geometry">
            <mxRectangle width="30" height="30" as="alternateBounds" />
          </mxGeometry>
        </mxCell>
        <mxCell id="8ky8RM0VNlPD6aG0PIWe-263" value="이름(name) / VARCHAR" style="shape=partialRectangle;connectable=0;fillColor=none;top=0;left=0;bottom=0;right=0;align=left;spacingLeft=6;overflow=hidden;whiteSpace=wrap;html=1;" parent="8ky8RM0VNlPD6aG0PIWe-261" vertex="1">
          <mxGeometry x="30" width="150" height="30" as="geometry">
            <mxRectangle width="150" height="30" as="alternateBounds" />
          </mxGeometry>
        </mxCell>
        <mxCell id="8ky8RM0VNlPD6aG0PIWe-264" value="" style="shape=tableRow;horizontal=0;startSize=0;swimlaneHead=0;swimlaneBody=0;fillColor=none;collapsible=0;dropTarget=0;points=[[0,0.5],[1,0.5]];portConstraint=eastwest;top=0;left=0;right=0;bottom=0;" parent="8ky8RM0VNlPD6aG0PIWe-257" vertex="1">
          <mxGeometry y="90" width="180" height="30" as="geometry" />
        </mxCell>
        <mxCell id="8ky8RM0VNlPD6aG0PIWe-265" value="" style="shape=partialRectangle;connectable=0;fillColor=none;top=0;left=0;bottom=0;right=0;editable=1;overflow=hidden;whiteSpace=wrap;html=1;" parent="8ky8RM0VNlPD6aG0PIWe-264" vertex="1">
          <mxGeometry width="30" height="30" as="geometry">
            <mxRectangle width="30" height="30" as="alternateBounds" />
          </mxGeometry>
        </mxCell>
        <mxCell id="8ky8RM0VNlPD6aG0PIWe-266" value="이메일(email) / VARCHAR" style="shape=partialRectangle;connectable=0;fillColor=none;top=0;left=0;bottom=0;right=0;align=left;spacingLeft=6;overflow=hidden;whiteSpace=wrap;html=1;" parent="8ky8RM0VNlPD6aG0PIWe-264" vertex="1">
          <mxGeometry x="30" width="150" height="30" as="geometry">
            <mxRectangle width="150" height="30" as="alternateBounds" />
          </mxGeometry>
        </mxCell>
        <mxCell id="8ky8RM0VNlPD6aG0PIWe-283" value="학생(student)" style="shape=table;startSize=30;container=1;collapsible=1;childLayout=tableLayout;fixedRows=1;rowLines=0;fontStyle=1;align=center;resizeLast=1;html=1;" parent="1" vertex="1">
          <mxGeometry x="-660" y="1640" width="180" height="240" as="geometry" />
        </mxCell>
        <mxCell id="8ky8RM0VNlPD6aG0PIWe-284" value="" style="shape=tableRow;horizontal=0;startSize=0;swimlaneHead=0;swimlaneBody=0;fillColor=none;collapsible=0;dropTarget=0;points=[[0,0.5],[1,0.5]];portConstraint=eastwest;top=0;left=0;right=0;bottom=1;" parent="8ky8RM0VNlPD6aG0PIWe-283" vertex="1">
          <mxGeometry y="30" width="180" height="30" as="geometry" />
        </mxCell>
        <mxCell id="8ky8RM0VNlPD6aG0PIWe-285" value="PK" style="shape=partialRectangle;connectable=0;fillColor=none;top=0;left=0;bottom=0;right=0;fontStyle=1;overflow=hidden;whiteSpace=wrap;html=1;" parent="8ky8RM0VNlPD6aG0PIWe-284" vertex="1">
          <mxGeometry width="30" height="30" as="geometry">
            <mxRectangle width="30" height="30" as="alternateBounds" />
          </mxGeometry>
        </mxCell>
        <mxCell id="8ky8RM0VNlPD6aG0PIWe-286" value="학생ID" style="shape=partialRectangle;connectable=0;fillColor=none;top=0;left=0;bottom=0;right=0;align=left;spacingLeft=6;fontStyle=5;overflow=hidden;whiteSpace=wrap;html=1;" parent="8ky8RM0VNlPD6aG0PIWe-284" vertex="1">
          <mxGeometry x="30" width="150" height="30" as="geometry">
            <mxRectangle width="150" height="30" as="alternateBounds" />
          </mxGeometry>
        </mxCell>
        <mxCell id="8ky8RM0VNlPD6aG0PIWe-287" value="" style="shape=tableRow;horizontal=0;startSize=0;swimlaneHead=0;swimlaneBody=0;fillColor=none;collapsible=0;dropTarget=0;points=[[0,0.5],[1,0.5]];portConstraint=eastwest;top=0;left=0;right=0;bottom=0;" parent="8ky8RM0VNlPD6aG0PIWe-283" vertex="1">
          <mxGeometry y="60" width="180" height="30" as="geometry" />
        </mxCell>
        <mxCell id="8ky8RM0VNlPD6aG0PIWe-288" value="" style="shape=partialRectangle;connectable=0;fillColor=none;top=0;left=0;bottom=0;right=0;editable=1;overflow=hidden;whiteSpace=wrap;html=1;" parent="8ky8RM0VNlPD6aG0PIWe-287" vertex="1">
          <mxGeometry width="30" height="30" as="geometry">
            <mxRectangle width="30" height="30" as="alternateBounds" />
          </mxGeometry>
        </mxCell>
        <mxCell id="8ky8RM0VNlPD6aG0PIWe-289" value="이름(name) / VARCHAR" style="shape=partialRectangle;connectable=0;fillColor=none;top=0;left=0;bottom=0;right=0;align=left;spacingLeft=6;overflow=hidden;whiteSpace=wrap;html=1;" parent="8ky8RM0VNlPD6aG0PIWe-287" vertex="1">
          <mxGeometry x="30" width="150" height="30" as="geometry">
            <mxRectangle width="150" height="30" as="alternateBounds" />
          </mxGeometry>
        </mxCell>
        <mxCell id="8ky8RM0VNlPD6aG0PIWe-290" value="" style="shape=tableRow;horizontal=0;startSize=0;swimlaneHead=0;swimlaneBody=0;fillColor=none;collapsible=0;dropTarget=0;points=[[0,0.5],[1,0.5]];portConstraint=eastwest;top=0;left=0;right=0;bottom=0;" parent="8ky8RM0VNlPD6aG0PIWe-283" vertex="1">
          <mxGeometry y="90" width="180" height="30" as="geometry" />
        </mxCell>
        <mxCell id="8ky8RM0VNlPD6aG0PIWe-291" value="" style="shape=partialRectangle;connectable=0;fillColor=none;top=0;left=0;bottom=0;right=0;editable=1;overflow=hidden;whiteSpace=wrap;html=1;" parent="8ky8RM0VNlPD6aG0PIWe-290" vertex="1">
          <mxGeometry width="30" height="30" as="geometry">
            <mxRectangle width="30" height="30" as="alternateBounds" />
          </mxGeometry>
        </mxCell>
        <mxCell id="8ky8RM0VNlPD6aG0PIWe-292" value="이메일(email) / VARCHAR" style="shape=partialRectangle;connectable=0;fillColor=none;top=0;left=0;bottom=0;right=0;align=left;spacingLeft=6;overflow=hidden;whiteSpace=wrap;html=1;" parent="8ky8RM0VNlPD6aG0PIWe-290" vertex="1">
          <mxGeometry x="30" width="150" height="30" as="geometry">
            <mxRectangle width="150" height="30" as="alternateBounds" />
          </mxGeometry>
        </mxCell>
        <mxCell id="8ky8RM0VNlPD6aG0PIWe-414" value="" style="shape=tableRow;horizontal=0;startSize=0;swimlaneHead=0;swimlaneBody=0;fillColor=none;collapsible=0;dropTarget=0;points=[[0,0.5],[1,0.5]];portConstraint=eastwest;top=0;left=0;right=0;bottom=0;" parent="8ky8RM0VNlPD6aG0PIWe-283" vertex="1">
          <mxGeometry y="120" width="180" height="30" as="geometry" />
        </mxCell>
        <mxCell id="8ky8RM0VNlPD6aG0PIWe-415" value="" style="shape=partialRectangle;connectable=0;fillColor=none;top=0;left=0;bottom=0;right=0;editable=1;overflow=hidden;whiteSpace=wrap;html=1;" parent="8ky8RM0VNlPD6aG0PIWe-414" vertex="1">
          <mxGeometry width="30" height="30" as="geometry">
            <mxRectangle width="30" height="30" as="alternateBounds" />
          </mxGeometry>
        </mxCell>
        <mxCell id="8ky8RM0VNlPD6aG0PIWe-416" value="비밀번호(password) / CHAR" style="shape=partialRectangle;connectable=0;fillColor=none;top=0;left=0;bottom=0;right=0;align=left;spacingLeft=6;overflow=hidden;whiteSpace=wrap;html=1;" parent="8ky8RM0VNlPD6aG0PIWe-414" vertex="1">
          <mxGeometry x="30" width="150" height="30" as="geometry">
            <mxRectangle width="150" height="30" as="alternateBounds" />
          </mxGeometry>
        </mxCell>
        <mxCell id="8ky8RM0VNlPD6aG0PIWe-293" value="" style="shape=tableRow;horizontal=0;startSize=0;swimlaneHead=0;swimlaneBody=0;fillColor=none;collapsible=0;dropTarget=0;points=[[0,0.5],[1,0.5]];portConstraint=eastwest;top=0;left=0;right=0;bottom=0;" parent="8ky8RM0VNlPD6aG0PIWe-283" vertex="1">
          <mxGeometry y="150" width="180" height="30" as="geometry" />
        </mxCell>
        <mxCell id="8ky8RM0VNlPD6aG0PIWe-294" value="" style="shape=partialRectangle;connectable=0;fillColor=none;top=0;left=0;bottom=0;right=0;editable=1;overflow=hidden;whiteSpace=wrap;html=1;" parent="8ky8RM0VNlPD6aG0PIWe-293" vertex="1">
          <mxGeometry width="30" height="30" as="geometry">
            <mxRectangle width="30" height="30" as="alternateBounds" />
          </mxGeometry>
        </mxCell>
        <mxCell id="8ky8RM0VNlPD6aG0PIWe-295" value="나이(age) / INTEGER" style="shape=partialRectangle;connectable=0;fillColor=none;top=0;left=0;bottom=0;right=0;align=left;spacingLeft=6;overflow=hidden;whiteSpace=wrap;html=1;" parent="8ky8RM0VNlPD6aG0PIWe-293" vertex="1">
          <mxGeometry x="30" width="150" height="30" as="geometry">
            <mxRectangle width="150" height="30" as="alternateBounds" />
          </mxGeometry>
        </mxCell>
        <mxCell id="8ky8RM0VNlPD6aG0PIWe-408" value="" style="shape=tableRow;horizontal=0;startSize=0;swimlaneHead=0;swimlaneBody=0;fillColor=none;collapsible=0;dropTarget=0;points=[[0,0.5],[1,0.5]];portConstraint=eastwest;top=0;left=0;right=0;bottom=0;" parent="8ky8RM0VNlPD6aG0PIWe-283" vertex="1">
          <mxGeometry y="180" width="180" height="30" as="geometry" />
        </mxCell>
        <mxCell id="8ky8RM0VNlPD6aG0PIWe-409" value="" style="shape=partialRectangle;connectable=0;fillColor=none;top=0;left=0;bottom=0;right=0;editable=1;overflow=hidden;whiteSpace=wrap;html=1;" parent="8ky8RM0VNlPD6aG0PIWe-408" vertex="1">
          <mxGeometry width="30" height="30" as="geometry">
            <mxRectangle width="30" height="30" as="alternateBounds" />
          </mxGeometry>
        </mxCell>
        <mxCell id="8ky8RM0VNlPD6aG0PIWe-410" value="연락처(contact) / VARCHAR" style="shape=partialRectangle;connectable=0;fillColor=none;top=0;left=0;bottom=0;right=0;align=left;spacingLeft=6;overflow=hidden;whiteSpace=wrap;html=1;" parent="8ky8RM0VNlPD6aG0PIWe-408" vertex="1">
          <mxGeometry x="30" width="150" height="30" as="geometry">
            <mxRectangle width="150" height="30" as="alternateBounds" />
          </mxGeometry>
        </mxCell>
        <mxCell id="8ky8RM0VNlPD6aG0PIWe-411" value="" style="shape=tableRow;horizontal=0;startSize=0;swimlaneHead=0;swimlaneBody=0;fillColor=none;collapsible=0;dropTarget=0;points=[[0,0.5],[1,0.5]];portConstraint=eastwest;top=0;left=0;right=0;bottom=0;" parent="8ky8RM0VNlPD6aG0PIWe-283" vertex="1">
          <mxGeometry y="210" width="180" height="30" as="geometry" />
        </mxCell>
        <mxCell id="8ky8RM0VNlPD6aG0PIWe-412" value="" style="shape=partialRectangle;connectable=0;fillColor=none;top=0;left=0;bottom=0;right=0;editable=1;overflow=hidden;whiteSpace=wrap;html=1;" parent="8ky8RM0VNlPD6aG0PIWe-411" vertex="1">
          <mxGeometry width="30" height="30" as="geometry">
            <mxRectangle width="30" height="30" as="alternateBounds" />
          </mxGeometry>
        </mxCell>
        <mxCell id="8ky8RM0VNlPD6aG0PIWe-413" value="주소(address) / VARCHAR" style="shape=partialRectangle;connectable=0;fillColor=none;top=0;left=0;bottom=0;right=0;align=left;spacingLeft=6;overflow=hidden;whiteSpace=wrap;html=1;" parent="8ky8RM0VNlPD6aG0PIWe-411" vertex="1">
          <mxGeometry x="30" width="150" height="30" as="geometry">
            <mxRectangle width="150" height="30" as="alternateBounds" />
          </mxGeometry>
        </mxCell>
        <mxCell id="8ky8RM0VNlPD6aG0PIWe-296" value="유저(user)" style="shape=table;startSize=30;container=1;collapsible=1;childLayout=tableLayout;fixedRows=1;rowLines=0;fontStyle=1;align=center;resizeLast=1;html=1;" parent="1" vertex="1">
          <mxGeometry x="-300" y="1600" width="180" height="120" as="geometry" />
        </mxCell>
        <mxCell id="8ky8RM0VNlPD6aG0PIWe-297" value="" style="shape=tableRow;horizontal=0;startSize=0;swimlaneHead=0;swimlaneBody=0;fillColor=none;collapsible=0;dropTarget=0;points=[[0,0.5],[1,0.5]];portConstraint=eastwest;top=0;left=0;right=0;bottom=1;" parent="8ky8RM0VNlPD6aG0PIWe-296" vertex="1">
          <mxGeometry y="30" width="180" height="30" as="geometry" />
        </mxCell>
        <mxCell id="8ky8RM0VNlPD6aG0PIWe-298" value="PK" style="shape=partialRectangle;connectable=0;fillColor=none;top=0;left=0;bottom=0;right=0;fontStyle=1;overflow=hidden;whiteSpace=wrap;html=1;" parent="8ky8RM0VNlPD6aG0PIWe-297" vertex="1">
          <mxGeometry width="30" height="30" as="geometry">
            <mxRectangle width="30" height="30" as="alternateBounds" />
          </mxGeometry>
        </mxCell>
        <mxCell id="8ky8RM0VNlPD6aG0PIWe-299" value="유저ID" style="shape=partialRectangle;connectable=0;fillColor=none;top=0;left=0;bottom=0;right=0;align=left;spacingLeft=6;fontStyle=5;overflow=hidden;whiteSpace=wrap;html=1;" parent="8ky8RM0VNlPD6aG0PIWe-297" vertex="1">
          <mxGeometry x="30" width="150" height="30" as="geometry">
            <mxRectangle width="150" height="30" as="alternateBounds" />
          </mxGeometry>
        </mxCell>
        <mxCell id="8ky8RM0VNlPD6aG0PIWe-417" value="" style="shape=tableRow;horizontal=0;startSize=0;swimlaneHead=0;swimlaneBody=0;fillColor=none;collapsible=0;dropTarget=0;points=[[0,0.5],[1,0.5]];portConstraint=eastwest;top=0;left=0;right=0;bottom=1;" parent="8ky8RM0VNlPD6aG0PIWe-296" vertex="1">
          <mxGeometry y="60" width="180" height="30" as="geometry" />
        </mxCell>
        <mxCell id="8ky8RM0VNlPD6aG0PIWe-418" value="FK" style="shape=partialRectangle;connectable=0;fillColor=none;top=0;left=0;bottom=0;right=0;fontStyle=1;overflow=hidden;whiteSpace=wrap;html=1;" parent="8ky8RM0VNlPD6aG0PIWe-417" vertex="1">
          <mxGeometry width="30" height="30" as="geometry">
            <mxRectangle width="30" height="30" as="alternateBounds" />
          </mxGeometry>
        </mxCell>
        <mxCell id="8ky8RM0VNlPD6aG0PIWe-419" value="선생님ID" style="shape=partialRectangle;connectable=0;fillColor=none;top=0;left=0;bottom=0;right=0;align=left;spacingLeft=6;fontStyle=5;overflow=hidden;whiteSpace=wrap;html=1;" parent="8ky8RM0VNlPD6aG0PIWe-417" vertex="1">
          <mxGeometry x="30" width="150" height="30" as="geometry">
            <mxRectangle width="150" height="30" as="alternateBounds" />
          </mxGeometry>
        </mxCell>
        <mxCell id="8ky8RM0VNlPD6aG0PIWe-420" value="" style="shape=tableRow;horizontal=0;startSize=0;swimlaneHead=0;swimlaneBody=0;fillColor=none;collapsible=0;dropTarget=0;points=[[0,0.5],[1,0.5]];portConstraint=eastwest;top=0;left=0;right=0;bottom=1;" parent="8ky8RM0VNlPD6aG0PIWe-296" vertex="1">
          <mxGeometry y="90" width="180" height="30" as="geometry" />
        </mxCell>
        <mxCell id="8ky8RM0VNlPD6aG0PIWe-421" value="FK" style="shape=partialRectangle;connectable=0;fillColor=none;top=0;left=0;bottom=0;right=0;fontStyle=1;overflow=hidden;whiteSpace=wrap;html=1;" parent="8ky8RM0VNlPD6aG0PIWe-420" vertex="1">
          <mxGeometry width="30" height="30" as="geometry">
            <mxRectangle width="30" height="30" as="alternateBounds" />
          </mxGeometry>
        </mxCell>
        <mxCell id="8ky8RM0VNlPD6aG0PIWe-422" value="학생ID" style="shape=partialRectangle;connectable=0;fillColor=none;top=0;left=0;bottom=0;right=0;align=left;spacingLeft=6;fontStyle=5;overflow=hidden;whiteSpace=wrap;html=1;" parent="8ky8RM0VNlPD6aG0PIWe-420" vertex="1">
          <mxGeometry x="30" width="150" height="30" as="geometry">
            <mxRectangle width="150" height="30" as="alternateBounds" />
          </mxGeometry>
        </mxCell>
        <mxCell id="8ky8RM0VNlPD6aG0PIWe-325" value="신청(register)" style="shape=table;startSize=30;container=1;collapsible=1;childLayout=tableLayout;fixedRows=1;rowLines=0;fontStyle=1;align=center;resizeLast=1;html=1;" parent="1" vertex="1">
          <mxGeometry x="-310" y="1800" width="190" height="150" as="geometry" />
        </mxCell>
        <mxCell id="8ky8RM0VNlPD6aG0PIWe-326" value="" style="shape=tableRow;horizontal=0;startSize=0;swimlaneHead=0;swimlaneBody=0;fillColor=none;collapsible=0;dropTarget=0;points=[[0,0.5],[1,0.5]];portConstraint=eastwest;top=0;left=0;right=0;bottom=1;" parent="8ky8RM0VNlPD6aG0PIWe-325" vertex="1">
          <mxGeometry y="30" width="190" height="30" as="geometry" />
        </mxCell>
        <mxCell id="8ky8RM0VNlPD6aG0PIWe-327" value="PK" style="shape=partialRectangle;connectable=0;fillColor=none;top=0;left=0;bottom=0;right=0;fontStyle=1;overflow=hidden;whiteSpace=wrap;html=1;" parent="8ky8RM0VNlPD6aG0PIWe-326" vertex="1">
          <mxGeometry width="30" height="30" as="geometry">
            <mxRectangle width="30" height="30" as="alternateBounds" />
          </mxGeometry>
        </mxCell>
        <mxCell id="8ky8RM0VNlPD6aG0PIWe-328" value="신청ID" style="shape=partialRectangle;connectable=0;fillColor=none;top=0;left=0;bottom=0;right=0;align=left;spacingLeft=6;fontStyle=5;overflow=hidden;whiteSpace=wrap;html=1;" parent="8ky8RM0VNlPD6aG0PIWe-326" vertex="1">
          <mxGeometry x="30" width="160" height="30" as="geometry">
            <mxRectangle width="160" height="30" as="alternateBounds" />
          </mxGeometry>
        </mxCell>
        <mxCell id="8ky8RM0VNlPD6aG0PIWe-344" value="" style="shape=tableRow;horizontal=0;startSize=0;swimlaneHead=0;swimlaneBody=0;fillColor=none;collapsible=0;dropTarget=0;points=[[0,0.5],[1,0.5]];portConstraint=eastwest;top=0;left=0;right=0;bottom=1;" parent="8ky8RM0VNlPD6aG0PIWe-325" vertex="1">
          <mxGeometry y="60" width="190" height="30" as="geometry" />
        </mxCell>
        <mxCell id="8ky8RM0VNlPD6aG0PIWe-345" value="FK" style="shape=partialRectangle;connectable=0;fillColor=none;top=0;left=0;bottom=0;right=0;fontStyle=1;overflow=hidden;whiteSpace=wrap;html=1;" parent="8ky8RM0VNlPD6aG0PIWe-344" vertex="1">
          <mxGeometry width="30" height="30" as="geometry">
            <mxRectangle width="30" height="30" as="alternateBounds" />
          </mxGeometry>
        </mxCell>
        <mxCell id="8ky8RM0VNlPD6aG0PIWe-346" value="유저ID (학생)" style="shape=partialRectangle;connectable=0;fillColor=none;top=0;left=0;bottom=0;right=0;align=left;spacingLeft=6;fontStyle=5;overflow=hidden;whiteSpace=wrap;html=1;" parent="8ky8RM0VNlPD6aG0PIWe-344" vertex="1">
          <mxGeometry x="30" width="160" height="30" as="geometry">
            <mxRectangle width="160" height="30" as="alternateBounds" />
          </mxGeometry>
        </mxCell>
        <mxCell id="8ky8RM0VNlPD6aG0PIWe-347" value="" style="shape=tableRow;horizontal=0;startSize=0;swimlaneHead=0;swimlaneBody=0;fillColor=none;collapsible=0;dropTarget=0;points=[[0,0.5],[1,0.5]];portConstraint=eastwest;top=0;left=0;right=0;bottom=1;" parent="8ky8RM0VNlPD6aG0PIWe-325" vertex="1">
          <mxGeometry y="90" width="190" height="30" as="geometry" />
        </mxCell>
        <mxCell id="8ky8RM0VNlPD6aG0PIWe-348" value="FK" style="shape=partialRectangle;connectable=0;fillColor=none;top=0;left=0;bottom=0;right=0;fontStyle=1;overflow=hidden;whiteSpace=wrap;html=1;" parent="8ky8RM0VNlPD6aG0PIWe-347" vertex="1">
          <mxGeometry width="30" height="30" as="geometry">
            <mxRectangle width="30" height="30" as="alternateBounds" />
          </mxGeometry>
        </mxCell>
        <mxCell id="8ky8RM0VNlPD6aG0PIWe-349" value="강좌ID" style="shape=partialRectangle;connectable=0;fillColor=none;top=0;left=0;bottom=0;right=0;align=left;spacingLeft=6;fontStyle=5;overflow=hidden;whiteSpace=wrap;html=1;" parent="8ky8RM0VNlPD6aG0PIWe-347" vertex="1">
          <mxGeometry x="30" width="160" height="30" as="geometry">
            <mxRectangle width="160" height="30" as="alternateBounds" />
          </mxGeometry>
        </mxCell>
        <mxCell id="8ky8RM0VNlPD6aG0PIWe-329" value="" style="shape=tableRow;horizontal=0;startSize=0;swimlaneHead=0;swimlaneBody=0;fillColor=none;collapsible=0;dropTarget=0;points=[[0,0.5],[1,0.5]];portConstraint=eastwest;top=0;left=0;right=0;bottom=0;" parent="8ky8RM0VNlPD6aG0PIWe-325" vertex="1">
          <mxGeometry y="120" width="190" height="30" as="geometry" />
        </mxCell>
        <mxCell id="8ky8RM0VNlPD6aG0PIWe-330" value="" style="shape=partialRectangle;connectable=0;fillColor=none;top=0;left=0;bottom=0;right=0;editable=1;overflow=hidden;whiteSpace=wrap;html=1;" parent="8ky8RM0VNlPD6aG0PIWe-329" vertex="1">
          <mxGeometry width="30" height="30" as="geometry">
            <mxRectangle width="30" height="30" as="alternateBounds" />
          </mxGeometry>
        </mxCell>
        <mxCell id="8ky8RM0VNlPD6aG0PIWe-331" value="신청 결과 여부(register_ result) / BOOLEAN" style="shape=partialRectangle;connectable=0;fillColor=none;top=0;left=0;bottom=0;right=0;align=left;spacingLeft=6;overflow=hidden;whiteSpace=wrap;html=1;" parent="8ky8RM0VNlPD6aG0PIWe-329" vertex="1">
          <mxGeometry x="30" width="160" height="30" as="geometry">
            <mxRectangle width="160" height="30" as="alternateBounds" />
          </mxGeometry>
        </mxCell>
        <mxCell id="8ky8RM0VNlPD6aG0PIWe-353" value="과제(report)" style="shape=table;startSize=30;container=1;collapsible=1;childLayout=tableLayout;fixedRows=1;rowLines=0;fontStyle=1;align=center;resizeLast=1;html=1;" parent="1" vertex="1">
          <mxGeometry x="780" y="2280" width="180" height="180" as="geometry" />
        </mxCell>
        <mxCell id="8ky8RM0VNlPD6aG0PIWe-354" value="" style="shape=tableRow;horizontal=0;startSize=0;swimlaneHead=0;swimlaneBody=0;fillColor=none;collapsible=0;dropTarget=0;points=[[0,0.5],[1,0.5]];portConstraint=eastwest;top=0;left=0;right=0;bottom=1;" parent="8ky8RM0VNlPD6aG0PIWe-353" vertex="1">
          <mxGeometry y="30" width="180" height="30" as="geometry" />
        </mxCell>
        <mxCell id="8ky8RM0VNlPD6aG0PIWe-355" value="PK" style="shape=partialRectangle;connectable=0;fillColor=none;top=0;left=0;bottom=0;right=0;fontStyle=1;overflow=hidden;whiteSpace=wrap;html=1;" parent="8ky8RM0VNlPD6aG0PIWe-354" vertex="1">
          <mxGeometry width="30" height="30" as="geometry">
            <mxRectangle width="30" height="30" as="alternateBounds" />
          </mxGeometry>
        </mxCell>
        <mxCell id="8ky8RM0VNlPD6aG0PIWe-356" value="과제ID" style="shape=partialRectangle;connectable=0;fillColor=none;top=0;left=0;bottom=0;right=0;align=left;spacingLeft=6;fontStyle=5;overflow=hidden;whiteSpace=wrap;html=1;" parent="8ky8RM0VNlPD6aG0PIWe-354" vertex="1">
          <mxGeometry x="30" width="150" height="30" as="geometry">
            <mxRectangle width="150" height="30" as="alternateBounds" />
          </mxGeometry>
        </mxCell>
        <mxCell id="8ky8RM0VNlPD6aG0PIWe-397" value="" style="shape=tableRow;horizontal=0;startSize=0;swimlaneHead=0;swimlaneBody=0;fillColor=none;collapsible=0;dropTarget=0;points=[[0,0.5],[1,0.5]];portConstraint=eastwest;top=0;left=0;right=0;bottom=1;" parent="8ky8RM0VNlPD6aG0PIWe-353" vertex="1">
          <mxGeometry y="60" width="180" height="30" as="geometry" />
        </mxCell>
        <mxCell id="8ky8RM0VNlPD6aG0PIWe-398" value="FK" style="shape=partialRectangle;connectable=0;fillColor=none;top=0;left=0;bottom=0;right=0;fontStyle=1;overflow=hidden;whiteSpace=wrap;html=1;" parent="8ky8RM0VNlPD6aG0PIWe-397" vertex="1">
          <mxGeometry width="30" height="30" as="geometry">
            <mxRectangle width="30" height="30" as="alternateBounds" />
          </mxGeometry>
        </mxCell>
        <mxCell id="8ky8RM0VNlPD6aG0PIWe-399" value="강의ID" style="shape=partialRectangle;connectable=0;fillColor=none;top=0;left=0;bottom=0;right=0;align=left;spacingLeft=6;fontStyle=5;overflow=hidden;whiteSpace=wrap;html=1;" parent="8ky8RM0VNlPD6aG0PIWe-397" vertex="1">
          <mxGeometry x="30" width="150" height="30" as="geometry">
            <mxRectangle width="150" height="30" as="alternateBounds" />
          </mxGeometry>
        </mxCell>
        <mxCell id="8ky8RM0VNlPD6aG0PIWe-357" value="" style="shape=tableRow;horizontal=0;startSize=0;swimlaneHead=0;swimlaneBody=0;fillColor=none;collapsible=0;dropTarget=0;points=[[0,0.5],[1,0.5]];portConstraint=eastwest;top=0;left=0;right=0;bottom=0;" parent="8ky8RM0VNlPD6aG0PIWe-353" vertex="1">
          <mxGeometry y="90" width="180" height="30" as="geometry" />
        </mxCell>
        <mxCell id="8ky8RM0VNlPD6aG0PIWe-358" value="" style="shape=partialRectangle;connectable=0;fillColor=none;top=0;left=0;bottom=0;right=0;editable=1;overflow=hidden;whiteSpace=wrap;html=1;" parent="8ky8RM0VNlPD6aG0PIWe-357" vertex="1">
          <mxGeometry width="30" height="30" as="geometry">
            <mxRectangle width="30" height="30" as="alternateBounds" />
          </mxGeometry>
        </mxCell>
        <mxCell id="8ky8RM0VNlPD6aG0PIWe-359" value="제출 여부(submit) / BOOLEAN" style="shape=partialRectangle;connectable=0;fillColor=none;top=0;left=0;bottom=0;right=0;align=left;spacingLeft=6;overflow=hidden;whiteSpace=wrap;html=1;" parent="8ky8RM0VNlPD6aG0PIWe-357" vertex="1">
          <mxGeometry x="30" width="150" height="30" as="geometry">
            <mxRectangle width="150" height="30" as="alternateBounds" />
          </mxGeometry>
        </mxCell>
        <mxCell id="8ky8RM0VNlPD6aG0PIWe-360" value="" style="shape=tableRow;horizontal=0;startSize=0;swimlaneHead=0;swimlaneBody=0;fillColor=none;collapsible=0;dropTarget=0;points=[[0,0.5],[1,0.5]];portConstraint=eastwest;top=0;left=0;right=0;bottom=0;" parent="8ky8RM0VNlPD6aG0PIWe-353" vertex="1">
          <mxGeometry y="120" width="180" height="30" as="geometry" />
        </mxCell>
        <mxCell id="8ky8RM0VNlPD6aG0PIWe-361" value="" style="shape=partialRectangle;connectable=0;fillColor=none;top=0;left=0;bottom=0;right=0;editable=1;overflow=hidden;whiteSpace=wrap;html=1;" parent="8ky8RM0VNlPD6aG0PIWe-360" vertex="1">
          <mxGeometry width="30" height="30" as="geometry">
            <mxRectangle width="30" height="30" as="alternateBounds" />
          </mxGeometry>
        </mxCell>
        <mxCell id="8ky8RM0VNlPD6aG0PIWe-362" value="과제 내용(content) / TEXT" style="shape=partialRectangle;connectable=0;fillColor=none;top=0;left=0;bottom=0;right=0;align=left;spacingLeft=6;overflow=hidden;whiteSpace=wrap;html=1;" parent="8ky8RM0VNlPD6aG0PIWe-360" vertex="1">
          <mxGeometry x="30" width="150" height="30" as="geometry">
            <mxRectangle width="150" height="30" as="alternateBounds" />
          </mxGeometry>
        </mxCell>
        <mxCell id="8ky8RM0VNlPD6aG0PIWe-363" value="" style="shape=tableRow;horizontal=0;startSize=0;swimlaneHead=0;swimlaneBody=0;fillColor=none;collapsible=0;dropTarget=0;points=[[0,0.5],[1,0.5]];portConstraint=eastwest;top=0;left=0;right=0;bottom=0;" parent="8ky8RM0VNlPD6aG0PIWe-353" vertex="1">
          <mxGeometry y="150" width="180" height="30" as="geometry" />
        </mxCell>
        <mxCell id="8ky8RM0VNlPD6aG0PIWe-364" value="" style="shape=partialRectangle;connectable=0;fillColor=none;top=0;left=0;bottom=0;right=0;editable=1;overflow=hidden;whiteSpace=wrap;html=1;" parent="8ky8RM0VNlPD6aG0PIWe-363" vertex="1">
          <mxGeometry width="30" height="30" as="geometry">
            <mxRectangle width="30" height="30" as="alternateBounds" />
          </mxGeometry>
        </mxCell>
        <mxCell id="8ky8RM0VNlPD6aG0PIWe-365" value="path / PATH" style="shape=partialRectangle;connectable=0;fillColor=none;top=0;left=0;bottom=0;right=0;align=left;spacingLeft=6;overflow=hidden;whiteSpace=wrap;html=1;" parent="8ky8RM0VNlPD6aG0PIWe-363" vertex="1">
          <mxGeometry x="30" width="150" height="30" as="geometry">
            <mxRectangle width="150" height="30" as="alternateBounds" />
          </mxGeometry>
        </mxCell>
        <mxCell id="8ky8RM0VNlPD6aG0PIWe-366" value="퀴즈(quiz)" style="shape=table;startSize=30;container=1;collapsible=1;childLayout=tableLayout;fixedRows=1;rowLines=0;fontStyle=1;align=center;resizeLast=1;html=1;" parent="1" vertex="1">
          <mxGeometry x="458" y="2280" width="180" height="210" as="geometry" />
        </mxCell>
        <mxCell id="8ky8RM0VNlPD6aG0PIWe-367" value="" style="shape=tableRow;horizontal=0;startSize=0;swimlaneHead=0;swimlaneBody=0;fillColor=none;collapsible=0;dropTarget=0;points=[[0,0.5],[1,0.5]];portConstraint=eastwest;top=0;left=0;right=0;bottom=1;" parent="8ky8RM0VNlPD6aG0PIWe-366" vertex="1">
          <mxGeometry y="30" width="180" height="30" as="geometry" />
        </mxCell>
        <mxCell id="8ky8RM0VNlPD6aG0PIWe-368" value="PK" style="shape=partialRectangle;connectable=0;fillColor=none;top=0;left=0;bottom=0;right=0;fontStyle=1;overflow=hidden;whiteSpace=wrap;html=1;" parent="8ky8RM0VNlPD6aG0PIWe-367" vertex="1">
          <mxGeometry width="30" height="30" as="geometry">
            <mxRectangle width="30" height="30" as="alternateBounds" />
          </mxGeometry>
        </mxCell>
        <mxCell id="8ky8RM0VNlPD6aG0PIWe-369" value="퀴즈ID" style="shape=partialRectangle;connectable=0;fillColor=none;top=0;left=0;bottom=0;right=0;align=left;spacingLeft=6;fontStyle=5;overflow=hidden;whiteSpace=wrap;html=1;" parent="8ky8RM0VNlPD6aG0PIWe-367" vertex="1">
          <mxGeometry x="30" width="150" height="30" as="geometry">
            <mxRectangle width="150" height="30" as="alternateBounds" />
          </mxGeometry>
        </mxCell>
        <mxCell id="8ky8RM0VNlPD6aG0PIWe-400" value="" style="shape=tableRow;horizontal=0;startSize=0;swimlaneHead=0;swimlaneBody=0;fillColor=none;collapsible=0;dropTarget=0;points=[[0,0.5],[1,0.5]];portConstraint=eastwest;top=0;left=0;right=0;bottom=1;" parent="8ky8RM0VNlPD6aG0PIWe-366" vertex="1">
          <mxGeometry y="60" width="180" height="30" as="geometry" />
        </mxCell>
        <mxCell id="8ky8RM0VNlPD6aG0PIWe-401" value="FK" style="shape=partialRectangle;connectable=0;fillColor=none;top=0;left=0;bottom=0;right=0;fontStyle=1;overflow=hidden;whiteSpace=wrap;html=1;" parent="8ky8RM0VNlPD6aG0PIWe-400" vertex="1">
          <mxGeometry width="30" height="30" as="geometry">
            <mxRectangle width="30" height="30" as="alternateBounds" />
          </mxGeometry>
        </mxCell>
        <mxCell id="8ky8RM0VNlPD6aG0PIWe-402" value="강의ID" style="shape=partialRectangle;connectable=0;fillColor=none;top=0;left=0;bottom=0;right=0;align=left;spacingLeft=6;fontStyle=5;overflow=hidden;whiteSpace=wrap;html=1;" parent="8ky8RM0VNlPD6aG0PIWe-400" vertex="1">
          <mxGeometry x="30" width="150" height="30" as="geometry">
            <mxRectangle width="150" height="30" as="alternateBounds" />
          </mxGeometry>
        </mxCell>
        <mxCell id="8ky8RM0VNlPD6aG0PIWe-370" value="" style="shape=tableRow;horizontal=0;startSize=0;swimlaneHead=0;swimlaneBody=0;fillColor=none;collapsible=0;dropTarget=0;points=[[0,0.5],[1,0.5]];portConstraint=eastwest;top=0;left=0;right=0;bottom=0;" parent="8ky8RM0VNlPD6aG0PIWe-366" vertex="1">
          <mxGeometry y="90" width="180" height="30" as="geometry" />
        </mxCell>
        <mxCell id="8ky8RM0VNlPD6aG0PIWe-371" value="" style="shape=partialRectangle;connectable=0;fillColor=none;top=0;left=0;bottom=0;right=0;editable=1;overflow=hidden;whiteSpace=wrap;html=1;" parent="8ky8RM0VNlPD6aG0PIWe-370" vertex="1">
          <mxGeometry width="30" height="30" as="geometry">
            <mxRectangle width="30" height="30" as="alternateBounds" />
          </mxGeometry>
        </mxCell>
        <mxCell id="8ky8RM0VNlPD6aG0PIWe-372" value="참여 여부(participate) / BOOLEAN" style="shape=partialRectangle;connectable=0;fillColor=none;top=0;left=0;bottom=0;right=0;align=left;spacingLeft=6;overflow=hidden;whiteSpace=wrap;html=1;" parent="8ky8RM0VNlPD6aG0PIWe-370" vertex="1">
          <mxGeometry x="30" width="150" height="30" as="geometry">
            <mxRectangle width="150" height="30" as="alternateBounds" />
          </mxGeometry>
        </mxCell>
        <mxCell id="8ky8RM0VNlPD6aG0PIWe-373" value="" style="shape=tableRow;horizontal=0;startSize=0;swimlaneHead=0;swimlaneBody=0;fillColor=none;collapsible=0;dropTarget=0;points=[[0,0.5],[1,0.5]];portConstraint=eastwest;top=0;left=0;right=0;bottom=0;" parent="8ky8RM0VNlPD6aG0PIWe-366" vertex="1">
          <mxGeometry y="120" width="180" height="30" as="geometry" />
        </mxCell>
        <mxCell id="8ky8RM0VNlPD6aG0PIWe-374" value="" style="shape=partialRectangle;connectable=0;fillColor=none;top=0;left=0;bottom=0;right=0;editable=1;overflow=hidden;whiteSpace=wrap;html=1;" parent="8ky8RM0VNlPD6aG0PIWe-373" vertex="1">
          <mxGeometry width="30" height="30" as="geometry">
            <mxRectangle width="30" height="30" as="alternateBounds" />
          </mxGeometry>
        </mxCell>
        <mxCell id="8ky8RM0VNlPD6aG0PIWe-375" value="점수(score) / INTEGER" style="shape=partialRectangle;connectable=0;fillColor=none;top=0;left=0;bottom=0;right=0;align=left;spacingLeft=6;overflow=hidden;whiteSpace=wrap;html=1;" parent="8ky8RM0VNlPD6aG0PIWe-373" vertex="1">
          <mxGeometry x="30" width="150" height="30" as="geometry">
            <mxRectangle width="150" height="30" as="alternateBounds" />
          </mxGeometry>
        </mxCell>
        <mxCell id="8ky8RM0VNlPD6aG0PIWe-376" value="" style="shape=tableRow;horizontal=0;startSize=0;swimlaneHead=0;swimlaneBody=0;fillColor=none;collapsible=0;dropTarget=0;points=[[0,0.5],[1,0.5]];portConstraint=eastwest;top=0;left=0;right=0;bottom=0;" parent="8ky8RM0VNlPD6aG0PIWe-366" vertex="1">
          <mxGeometry y="150" width="180" height="30" as="geometry" />
        </mxCell>
        <mxCell id="8ky8RM0VNlPD6aG0PIWe-377" value="" style="shape=partialRectangle;connectable=0;fillColor=none;top=0;left=0;bottom=0;right=0;editable=1;overflow=hidden;whiteSpace=wrap;html=1;" parent="8ky8RM0VNlPD6aG0PIWe-376" vertex="1">
          <mxGeometry width="30" height="30" as="geometry">
            <mxRectangle width="30" height="30" as="alternateBounds" />
          </mxGeometry>
        </mxCell>
        <mxCell id="8ky8RM0VNlPD6aG0PIWe-378" value="퀴즈 내용(content) / TEXT" style="shape=partialRectangle;connectable=0;fillColor=none;top=0;left=0;bottom=0;right=0;align=left;spacingLeft=6;overflow=hidden;whiteSpace=wrap;html=1;" parent="8ky8RM0VNlPD6aG0PIWe-376" vertex="1">
          <mxGeometry x="30" width="150" height="30" as="geometry">
            <mxRectangle width="150" height="30" as="alternateBounds" />
          </mxGeometry>
        </mxCell>
        <mxCell id="kKTXV7pDH5wiCtCQfZ3n-53" value="" style="shape=tableRow;horizontal=0;startSize=0;swimlaneHead=0;swimlaneBody=0;fillColor=none;collapsible=0;dropTarget=0;points=[[0,0.5],[1,0.5]];portConstraint=eastwest;top=0;left=0;right=0;bottom=0;" parent="8ky8RM0VNlPD6aG0PIWe-366" vertex="1">
          <mxGeometry y="180" width="180" height="30" as="geometry" />
        </mxCell>
        <mxCell id="kKTXV7pDH5wiCtCQfZ3n-54" value="" style="shape=partialRectangle;connectable=0;fillColor=none;top=0;left=0;bottom=0;right=0;editable=1;overflow=hidden;whiteSpace=wrap;html=1;" parent="kKTXV7pDH5wiCtCQfZ3n-53" vertex="1">
          <mxGeometry width="30" height="30" as="geometry">
            <mxRectangle width="30" height="30" as="alternateBounds" />
          </mxGeometry>
        </mxCell>
        <mxCell id="kKTXV7pDH5wiCtCQfZ3n-55" value="퀴즈 정답(answer) / BOOLEAN" style="shape=partialRectangle;connectable=0;fillColor=none;top=0;left=0;bottom=0;right=0;align=left;spacingLeft=6;overflow=hidden;whiteSpace=wrap;html=1;" parent="kKTXV7pDH5wiCtCQfZ3n-53" vertex="1">
          <mxGeometry x="30" width="150" height="30" as="geometry">
            <mxRectangle width="150" height="30" as="alternateBounds" />
          </mxGeometry>
        </mxCell>
        <mxCell id="8ky8RM0VNlPD6aG0PIWe-379" value="강의 자료(course data)" style="shape=table;startSize=30;container=1;collapsible=1;childLayout=tableLayout;fixedRows=1;rowLines=0;fontStyle=1;align=center;resizeLast=1;html=1;" parent="1" vertex="1">
          <mxGeometry x="140" y="2280" width="180" height="120" as="geometry" />
        </mxCell>
        <mxCell id="8ky8RM0VNlPD6aG0PIWe-392" value="" style="shape=tableRow;horizontal=0;startSize=0;swimlaneHead=0;swimlaneBody=0;fillColor=none;collapsible=0;dropTarget=0;points=[[0,0.5],[1,0.5]];portConstraint=eastwest;top=0;left=0;right=0;bottom=1;" parent="8ky8RM0VNlPD6aG0PIWe-379" vertex="1">
          <mxGeometry y="30" width="180" height="30" as="geometry" />
        </mxCell>
        <mxCell id="8ky8RM0VNlPD6aG0PIWe-393" value="PK" style="shape=partialRectangle;connectable=0;fillColor=none;top=0;left=0;bottom=0;right=0;fontStyle=1;overflow=hidden;whiteSpace=wrap;html=1;" parent="8ky8RM0VNlPD6aG0PIWe-392" vertex="1">
          <mxGeometry width="30" height="30" as="geometry">
            <mxRectangle width="30" height="30" as="alternateBounds" />
          </mxGeometry>
        </mxCell>
        <mxCell id="8ky8RM0VNlPD6aG0PIWe-394" value="강의 자료ID" style="shape=partialRectangle;connectable=0;fillColor=none;top=0;left=0;bottom=0;right=0;align=left;spacingLeft=6;fontStyle=5;overflow=hidden;whiteSpace=wrap;html=1;" parent="8ky8RM0VNlPD6aG0PIWe-392" vertex="1">
          <mxGeometry x="30" width="150" height="30" as="geometry">
            <mxRectangle width="150" height="30" as="alternateBounds" />
          </mxGeometry>
        </mxCell>
        <mxCell id="8ky8RM0VNlPD6aG0PIWe-380" value="" style="shape=tableRow;horizontal=0;startSize=0;swimlaneHead=0;swimlaneBody=0;fillColor=none;collapsible=0;dropTarget=0;points=[[0,0.5],[1,0.5]];portConstraint=eastwest;top=0;left=0;right=0;bottom=1;" parent="8ky8RM0VNlPD6aG0PIWe-379" vertex="1">
          <mxGeometry y="60" width="180" height="30" as="geometry" />
        </mxCell>
        <mxCell id="8ky8RM0VNlPD6aG0PIWe-381" value="FK" style="shape=partialRectangle;connectable=0;fillColor=none;top=0;left=0;bottom=0;right=0;fontStyle=1;overflow=hidden;whiteSpace=wrap;html=1;" parent="8ky8RM0VNlPD6aG0PIWe-380" vertex="1">
          <mxGeometry width="30" height="30" as="geometry">
            <mxRectangle width="30" height="30" as="alternateBounds" />
          </mxGeometry>
        </mxCell>
        <mxCell id="8ky8RM0VNlPD6aG0PIWe-382" value="강의ID" style="shape=partialRectangle;connectable=0;fillColor=none;top=0;left=0;bottom=0;right=0;align=left;spacingLeft=6;fontStyle=5;overflow=hidden;whiteSpace=wrap;html=1;" parent="8ky8RM0VNlPD6aG0PIWe-380" vertex="1">
          <mxGeometry x="30" width="150" height="30" as="geometry">
            <mxRectangle width="150" height="30" as="alternateBounds" />
          </mxGeometry>
        </mxCell>
        <mxCell id="8ky8RM0VNlPD6aG0PIWe-383" value="" style="shape=tableRow;horizontal=0;startSize=0;swimlaneHead=0;swimlaneBody=0;fillColor=none;collapsible=0;dropTarget=0;points=[[0,0.5],[1,0.5]];portConstraint=eastwest;top=0;left=0;right=0;bottom=0;" parent="8ky8RM0VNlPD6aG0PIWe-379" vertex="1">
          <mxGeometry y="90" width="180" height="30" as="geometry" />
        </mxCell>
        <mxCell id="8ky8RM0VNlPD6aG0PIWe-384" value="" style="shape=partialRectangle;connectable=0;fillColor=none;top=0;left=0;bottom=0;right=0;editable=1;overflow=hidden;whiteSpace=wrap;html=1;" parent="8ky8RM0VNlPD6aG0PIWe-383" vertex="1">
          <mxGeometry width="30" height="30" as="geometry">
            <mxRectangle width="30" height="30" as="alternateBounds" />
          </mxGeometry>
        </mxCell>
        <mxCell id="8ky8RM0VNlPD6aG0PIWe-385" value="path / PATH" style="shape=partialRectangle;connectable=0;fillColor=none;top=0;left=0;bottom=0;right=0;align=left;spacingLeft=6;overflow=hidden;whiteSpace=wrap;html=1;" parent="8ky8RM0VNlPD6aG0PIWe-383" vertex="1">
          <mxGeometry x="30" width="150" height="30" as="geometry">
            <mxRectangle width="150" height="30" as="alternateBounds" />
          </mxGeometry>
        </mxCell>
        <mxCell id="8ky8RM0VNlPD6aG0PIWe-396" value="" style="edgeStyle=entityRelationEdgeStyle;fontSize=12;html=1;endArrow=ERzeroToMany;endFill=1;rounded=0;exitX=1;exitY=0.5;exitDx=0;exitDy=0;entryX=1;entryY=0.5;entryDx=0;entryDy=0;" parent="1" source="8ky8RM0VNlPD6aG0PIWe-242" target="8ky8RM0VNlPD6aG0PIWe-400" edge="1">
          <mxGeometry width="100" height="100" relative="1" as="geometry">
            <mxPoint x="869" y="2034" as="sourcePoint" />
            <mxPoint x="969" y="1934" as="targetPoint" />
          </mxGeometry>
        </mxCell>
        <mxCell id="8ky8RM0VNlPD6aG0PIWe-406" value="" style="edgeStyle=entityRelationEdgeStyle;fontSize=12;html=1;endArrow=ERzeroToMany;endFill=1;rounded=0;exitX=0;exitY=0.5;exitDx=0;exitDy=0;entryX=1;entryY=0.5;entryDx=0;entryDy=0;" parent="1" source="8ky8RM0VNlPD6aG0PIWe-242" target="8ky8RM0VNlPD6aG0PIWe-380" edge="1">
          <mxGeometry width="100" height="100" relative="1" as="geometry">
            <mxPoint x="269" y="2084" as="sourcePoint" />
            <mxPoint x="369" y="1984" as="targetPoint" />
          </mxGeometry>
        </mxCell>
        <mxCell id="8ky8RM0VNlPD6aG0PIWe-407" value="" style="edgeStyle=entityRelationEdgeStyle;fontSize=12;html=1;endArrow=ERzeroToMany;endFill=1;rounded=0;exitX=1;exitY=0.5;exitDx=0;exitDy=0;entryX=0;entryY=0.5;entryDx=0;entryDy=0;" parent="1" source="8ky8RM0VNlPD6aG0PIWe-242" target="8ky8RM0VNlPD6aG0PIWe-397" edge="1">
          <mxGeometry width="100" height="100" relative="1" as="geometry">
            <mxPoint x="759" y="1954" as="sourcePoint" />
            <mxPoint x="859" y="1854" as="targetPoint" />
          </mxGeometry>
        </mxCell>
        <mxCell id="8ky8RM0VNlPD6aG0PIWe-428" value="" style="edgeStyle=entityRelationEdgeStyle;fontSize=12;html=1;endArrow=ERzeroToMany;endFill=1;rounded=0;exitX=1;exitY=0.5;exitDx=0;exitDy=0;entryX=0;entryY=0.5;entryDx=0;entryDy=0;" parent="1" source="8ky8RM0VNlPD6aG0PIWe-297" target="8ky8RM0VNlPD6aG0PIWe-425" edge="1">
          <mxGeometry width="100" height="100" relative="1" as="geometry">
            <mxPoint x="120" y="1870" as="sourcePoint" />
            <mxPoint x="220" y="1770" as="targetPoint" />
          </mxGeometry>
        </mxCell>
        <mxCell id="8ky8RM0VNlPD6aG0PIWe-435" value="" style="edgeStyle=entityRelationEdgeStyle;fontSize=12;html=1;endArrow=ERzeroToMany;endFill=1;rounded=0;entryX=0;entryY=0.5;entryDx=0;entryDy=0;exitX=1;exitY=0.5;exitDx=0;exitDy=0;" parent="1" source="8ky8RM0VNlPD6aG0PIWe-229" target="8ky8RM0VNlPD6aG0PIWe-254" edge="1">
          <mxGeometry width="100" height="100" relative="1" as="geometry">
            <mxPoint x="660" y="1590" as="sourcePoint" />
            <mxPoint x="680" y="1440" as="targetPoint" />
          </mxGeometry>
        </mxCell>
        <mxCell id="8ky8RM0VNlPD6aG0PIWe-436" value="" style="edgeStyle=entityRelationEdgeStyle;fontSize=12;html=1;endArrow=ERzeroToMany;endFill=1;rounded=0;exitX=0;exitY=0.5;exitDx=0;exitDy=0;entryX=1;entryY=0.5;entryDx=0;entryDy=0;" parent="1" source="8ky8RM0VNlPD6aG0PIWe-229" target="8ky8RM0VNlPD6aG0PIWe-347" edge="1">
          <mxGeometry width="100" height="100" relative="1" as="geometry">
            <mxPoint x="50" y="1730" as="sourcePoint" />
            <mxPoint x="150" y="1630" as="targetPoint" />
          </mxGeometry>
        </mxCell>
        <mxCell id="8ky8RM0VNlPD6aG0PIWe-437" value="" style="edgeStyle=entityRelationEdgeStyle;fontSize=12;html=1;endArrow=ERzeroToMany;endFill=1;rounded=0;entryX=1;entryY=0.5;entryDx=0;entryDy=0;exitX=1;exitY=0.5;exitDx=0;exitDy=0;" parent="1" source="8ky8RM0VNlPD6aG0PIWe-297" target="8ky8RM0VNlPD6aG0PIWe-344" edge="1">
          <mxGeometry width="100" height="100" relative="1" as="geometry">
            <mxPoint x="50" y="1730" as="sourcePoint" />
            <mxPoint x="150" y="1630" as="targetPoint" />
          </mxGeometry>
        </mxCell>
        <mxCell id="8ky8RM0VNlPD6aG0PIWe-438" value="선생님 - 관심 등록(teacher_interest)" style="shape=table;startSize=30;container=1;collapsible=1;childLayout=tableLayout;fixedRows=1;rowLines=0;fontStyle=1;align=center;resizeLast=1;html=1;" parent="1" vertex="1">
          <mxGeometry x="-320" y="1400" width="200" height="120" as="geometry" />
        </mxCell>
        <mxCell id="8ky8RM0VNlPD6aG0PIWe-439" value="" style="shape=tableRow;horizontal=0;startSize=0;swimlaneHead=0;swimlaneBody=0;fillColor=none;collapsible=0;dropTarget=0;points=[[0,0.5],[1,0.5]];portConstraint=eastwest;top=0;left=0;right=0;bottom=1;" parent="8ky8RM0VNlPD6aG0PIWe-438" vertex="1">
          <mxGeometry y="30" width="200" height="30" as="geometry" />
        </mxCell>
        <mxCell id="8ky8RM0VNlPD6aG0PIWe-440" value="PK" style="shape=partialRectangle;connectable=0;fillColor=none;top=0;left=0;bottom=0;right=0;fontStyle=1;overflow=hidden;whiteSpace=wrap;html=1;" parent="8ky8RM0VNlPD6aG0PIWe-439" vertex="1">
          <mxGeometry width="30" height="30" as="geometry">
            <mxRectangle width="30" height="30" as="alternateBounds" />
          </mxGeometry>
        </mxCell>
        <mxCell id="8ky8RM0VNlPD6aG0PIWe-441" value="&lt;span style=&quot;text-align: center; text-wrap-mode: nowrap;&quot;&gt;선생님 - 관심 등록&lt;/span&gt;ID" style="shape=partialRectangle;connectable=0;fillColor=none;top=0;left=0;bottom=0;right=0;align=left;spacingLeft=6;fontStyle=5;overflow=hidden;whiteSpace=wrap;html=1;" parent="8ky8RM0VNlPD6aG0PIWe-439" vertex="1">
          <mxGeometry x="30" width="170" height="30" as="geometry">
            <mxRectangle width="170" height="30" as="alternateBounds" />
          </mxGeometry>
        </mxCell>
        <mxCell id="kKTXV7pDH5wiCtCQfZ3n-1" value="" style="shape=tableRow;horizontal=0;startSize=0;swimlaneHead=0;swimlaneBody=0;fillColor=none;collapsible=0;dropTarget=0;points=[[0,0.5],[1,0.5]];portConstraint=eastwest;top=0;left=0;right=0;bottom=1;" parent="8ky8RM0VNlPD6aG0PIWe-438" vertex="1">
          <mxGeometry y="60" width="200" height="30" as="geometry" />
        </mxCell>
        <mxCell id="kKTXV7pDH5wiCtCQfZ3n-2" value="FK" style="shape=partialRectangle;connectable=0;fillColor=none;top=0;left=0;bottom=0;right=0;fontStyle=1;overflow=hidden;whiteSpace=wrap;html=1;" parent="kKTXV7pDH5wiCtCQfZ3n-1" vertex="1">
          <mxGeometry width="30" height="30" as="geometry">
            <mxRectangle width="30" height="30" as="alternateBounds" />
          </mxGeometry>
        </mxCell>
        <mxCell id="kKTXV7pDH5wiCtCQfZ3n-3" value="유저ID (학생)" style="shape=partialRectangle;connectable=0;fillColor=none;top=0;left=0;bottom=0;right=0;align=left;spacingLeft=6;fontStyle=5;overflow=hidden;whiteSpace=wrap;html=1;" parent="kKTXV7pDH5wiCtCQfZ3n-1" vertex="1">
          <mxGeometry x="30" width="170" height="30" as="geometry">
            <mxRectangle width="170" height="30" as="alternateBounds" />
          </mxGeometry>
        </mxCell>
        <mxCell id="kKTXV7pDH5wiCtCQfZ3n-32" value="" style="shape=tableRow;horizontal=0;startSize=0;swimlaneHead=0;swimlaneBody=0;fillColor=none;collapsible=0;dropTarget=0;points=[[0,0.5],[1,0.5]];portConstraint=eastwest;top=0;left=0;right=0;bottom=1;" parent="8ky8RM0VNlPD6aG0PIWe-438" vertex="1">
          <mxGeometry y="90" width="200" height="30" as="geometry" />
        </mxCell>
        <mxCell id="kKTXV7pDH5wiCtCQfZ3n-33" value="FK" style="shape=partialRectangle;connectable=0;fillColor=none;top=0;left=0;bottom=0;right=0;fontStyle=1;overflow=hidden;whiteSpace=wrap;html=1;" parent="kKTXV7pDH5wiCtCQfZ3n-32" vertex="1">
          <mxGeometry width="30" height="30" as="geometry">
            <mxRectangle width="30" height="30" as="alternateBounds" />
          </mxGeometry>
        </mxCell>
        <mxCell id="kKTXV7pDH5wiCtCQfZ3n-34" value="유저ID (선생님)" style="shape=partialRectangle;connectable=0;fillColor=none;top=0;left=0;bottom=0;right=0;align=left;spacingLeft=6;fontStyle=5;overflow=hidden;whiteSpace=wrap;html=1;" parent="kKTXV7pDH5wiCtCQfZ3n-32" vertex="1">
          <mxGeometry x="30" width="170" height="30" as="geometry">
            <mxRectangle width="170" height="30" as="alternateBounds" />
          </mxGeometry>
        </mxCell>
        <mxCell id="kKTXV7pDH5wiCtCQfZ3n-13" value="강좌 - 관심 등록(course_interest)" style="shape=table;startSize=30;container=1;collapsible=1;childLayout=tableLayout;fixedRows=1;rowLines=0;fontStyle=1;align=center;resizeLast=1;html=1;" parent="1" vertex="1">
          <mxGeometry x="-300" y="1240" width="180" height="120" as="geometry" />
        </mxCell>
        <mxCell id="kKTXV7pDH5wiCtCQfZ3n-14" value="" style="shape=tableRow;horizontal=0;startSize=0;swimlaneHead=0;swimlaneBody=0;fillColor=none;collapsible=0;dropTarget=0;points=[[0,0.5],[1,0.5]];portConstraint=eastwest;top=0;left=0;right=0;bottom=1;" parent="kKTXV7pDH5wiCtCQfZ3n-13" vertex="1">
          <mxGeometry y="30" width="180" height="30" as="geometry" />
        </mxCell>
        <mxCell id="kKTXV7pDH5wiCtCQfZ3n-15" value="PK" style="shape=partialRectangle;connectable=0;fillColor=none;top=0;left=0;bottom=0;right=0;fontStyle=1;overflow=hidden;whiteSpace=wrap;html=1;" parent="kKTXV7pDH5wiCtCQfZ3n-14" vertex="1">
          <mxGeometry width="30" height="30" as="geometry">
            <mxRectangle width="30" height="30" as="alternateBounds" />
          </mxGeometry>
        </mxCell>
        <mxCell id="kKTXV7pDH5wiCtCQfZ3n-16" value="&lt;span style=&quot;text-align: center; text-wrap-mode: nowrap;&quot;&gt;강좌 - 관심 등록&lt;/span&gt;ID" style="shape=partialRectangle;connectable=0;fillColor=none;top=0;left=0;bottom=0;right=0;align=left;spacingLeft=6;fontStyle=5;overflow=hidden;whiteSpace=wrap;html=1;" parent="kKTXV7pDH5wiCtCQfZ3n-14" vertex="1">
          <mxGeometry x="30" width="150" height="30" as="geometry">
            <mxRectangle width="150" height="30" as="alternateBounds" />
          </mxGeometry>
        </mxCell>
        <mxCell id="kKTXV7pDH5wiCtCQfZ3n-20" value="" style="shape=tableRow;horizontal=0;startSize=0;swimlaneHead=0;swimlaneBody=0;fillColor=none;collapsible=0;dropTarget=0;points=[[0,0.5],[1,0.5]];portConstraint=eastwest;top=0;left=0;right=0;bottom=1;" parent="kKTXV7pDH5wiCtCQfZ3n-13" vertex="1">
          <mxGeometry y="60" width="180" height="30" as="geometry" />
        </mxCell>
        <mxCell id="kKTXV7pDH5wiCtCQfZ3n-21" value="FK" style="shape=partialRectangle;connectable=0;fillColor=none;top=0;left=0;bottom=0;right=0;fontStyle=1;overflow=hidden;whiteSpace=wrap;html=1;" parent="kKTXV7pDH5wiCtCQfZ3n-20" vertex="1">
          <mxGeometry width="30" height="30" as="geometry">
            <mxRectangle width="30" height="30" as="alternateBounds" />
          </mxGeometry>
        </mxCell>
        <mxCell id="kKTXV7pDH5wiCtCQfZ3n-22" value="강좌ID" style="shape=partialRectangle;connectable=0;fillColor=none;top=0;left=0;bottom=0;right=0;align=left;spacingLeft=6;fontStyle=5;overflow=hidden;whiteSpace=wrap;html=1;" parent="kKTXV7pDH5wiCtCQfZ3n-20" vertex="1">
          <mxGeometry x="30" width="150" height="30" as="geometry">
            <mxRectangle width="150" height="30" as="alternateBounds" />
          </mxGeometry>
        </mxCell>
        <mxCell id="kKTXV7pDH5wiCtCQfZ3n-35" value="" style="shape=tableRow;horizontal=0;startSize=0;swimlaneHead=0;swimlaneBody=0;fillColor=none;collapsible=0;dropTarget=0;points=[[0,0.5],[1,0.5]];portConstraint=eastwest;top=0;left=0;right=0;bottom=1;" parent="kKTXV7pDH5wiCtCQfZ3n-13" vertex="1">
          <mxGeometry y="90" width="180" height="30" as="geometry" />
        </mxCell>
        <mxCell id="kKTXV7pDH5wiCtCQfZ3n-36" value="FK" style="shape=partialRectangle;connectable=0;fillColor=none;top=0;left=0;bottom=0;right=0;fontStyle=1;overflow=hidden;whiteSpace=wrap;html=1;" parent="kKTXV7pDH5wiCtCQfZ3n-35" vertex="1">
          <mxGeometry width="30" height="30" as="geometry">
            <mxRectangle width="30" height="30" as="alternateBounds" />
          </mxGeometry>
        </mxCell>
        <mxCell id="kKTXV7pDH5wiCtCQfZ3n-37" value="유저ID (학생)" style="shape=partialRectangle;connectable=0;fillColor=none;top=0;left=0;bottom=0;right=0;align=left;spacingLeft=6;fontStyle=5;overflow=hidden;whiteSpace=wrap;html=1;" parent="kKTXV7pDH5wiCtCQfZ3n-35" vertex="1">
          <mxGeometry x="30" width="150" height="30" as="geometry">
            <mxRectangle width="150" height="30" as="alternateBounds" />
          </mxGeometry>
        </mxCell>
        <mxCell id="kKTXV7pDH5wiCtCQfZ3n-42" value="" style="edgeStyle=entityRelationEdgeStyle;fontSize=12;html=1;endArrow=ERzeroToMany;endFill=1;rounded=0;exitX=1;exitY=0.5;exitDx=0;exitDy=0;entryX=1;entryY=0.5;entryDx=0;entryDy=0;" parent="1" source="8ky8RM0VNlPD6aG0PIWe-297" target="kKTXV7pDH5wiCtCQfZ3n-32" edge="1">
          <mxGeometry width="100" height="100" relative="1" as="geometry">
            <mxPoint x="-250" y="1891" as="sourcePoint" />
            <mxPoint x="290" y="1960" as="targetPoint" />
          </mxGeometry>
        </mxCell>
        <mxCell id="kKTXV7pDH5wiCtCQfZ3n-43" value="" style="edgeStyle=entityRelationEdgeStyle;fontSize=12;html=1;endArrow=ERzeroToMany;endFill=1;rounded=0;entryX=1;entryY=0.5;entryDx=0;entryDy=0;exitX=1;exitY=0.5;exitDx=0;exitDy=0;" parent="1" source="8ky8RM0VNlPD6aG0PIWe-297" target="kKTXV7pDH5wiCtCQfZ3n-35" edge="1">
          <mxGeometry width="100" height="100" relative="1" as="geometry">
            <mxPoint x="-80" y="1910" as="sourcePoint" />
            <mxPoint x="290" y="1950.99" as="targetPoint" />
          </mxGeometry>
        </mxCell>
        <mxCell id="kKTXV7pDH5wiCtCQfZ3n-44" value="" style="edgeStyle=entityRelationEdgeStyle;fontSize=12;html=1;endArrow=ERzeroToMany;endFill=1;rounded=0;entryX=1;entryY=0.5;entryDx=0;entryDy=0;exitX=0;exitY=0.5;exitDx=0;exitDy=0;" parent="1" source="8ky8RM0VNlPD6aG0PIWe-229" target="kKTXV7pDH5wiCtCQfZ3n-20" edge="1">
          <mxGeometry width="100" height="100" relative="1" as="geometry">
            <mxPoint x="250" y="2000" as="sourcePoint" />
            <mxPoint x="530" y="1840" as="targetPoint" />
          </mxGeometry>
        </mxCell>
        <mxCell id="kKTXV7pDH5wiCtCQfZ3n-56" value="수강평(review)" style="shape=table;startSize=30;container=1;collapsible=1;childLayout=tableLayout;fixedRows=1;rowLines=0;fontStyle=1;align=center;resizeLast=1;html=1;" parent="1" vertex="1">
          <mxGeometry x="150" y="1210" width="180" height="270" as="geometry" />
        </mxCell>
        <mxCell id="kKTXV7pDH5wiCtCQfZ3n-57" value="" style="shape=tableRow;horizontal=0;startSize=0;swimlaneHead=0;swimlaneBody=0;fillColor=none;collapsible=0;dropTarget=0;points=[[0,0.5],[1,0.5]];portConstraint=eastwest;top=0;left=0;right=0;bottom=1;" parent="kKTXV7pDH5wiCtCQfZ3n-56" vertex="1">
          <mxGeometry y="30" width="180" height="30" as="geometry" />
        </mxCell>
        <mxCell id="kKTXV7pDH5wiCtCQfZ3n-58" value="PK" style="shape=partialRectangle;connectable=0;fillColor=none;top=0;left=0;bottom=0;right=0;fontStyle=1;overflow=hidden;whiteSpace=wrap;html=1;" parent="kKTXV7pDH5wiCtCQfZ3n-57" vertex="1">
          <mxGeometry width="30" height="30" as="geometry">
            <mxRectangle width="30" height="30" as="alternateBounds" />
          </mxGeometry>
        </mxCell>
        <mxCell id="kKTXV7pDH5wiCtCQfZ3n-59" value="수강평ID" style="shape=partialRectangle;connectable=0;fillColor=none;top=0;left=0;bottom=0;right=0;align=left;spacingLeft=6;fontStyle=5;overflow=hidden;whiteSpace=wrap;html=1;" parent="kKTXV7pDH5wiCtCQfZ3n-57" vertex="1">
          <mxGeometry x="30" width="150" height="30" as="geometry">
            <mxRectangle width="150" height="30" as="alternateBounds" />
          </mxGeometry>
        </mxCell>
        <mxCell id="kKTXV7pDH5wiCtCQfZ3n-60" value="" style="shape=tableRow;horizontal=0;startSize=0;swimlaneHead=0;swimlaneBody=0;fillColor=none;collapsible=0;dropTarget=0;points=[[0,0.5],[1,0.5]];portConstraint=eastwest;top=0;left=0;right=0;bottom=1;" parent="kKTXV7pDH5wiCtCQfZ3n-56" vertex="1">
          <mxGeometry y="60" width="180" height="30" as="geometry" />
        </mxCell>
        <mxCell id="kKTXV7pDH5wiCtCQfZ3n-61" value="FK" style="shape=partialRectangle;connectable=0;fillColor=none;top=0;left=0;bottom=0;right=0;fontStyle=1;overflow=hidden;whiteSpace=wrap;html=1;" parent="kKTXV7pDH5wiCtCQfZ3n-60" vertex="1">
          <mxGeometry width="30" height="30" as="geometry">
            <mxRectangle width="30" height="30" as="alternateBounds" />
          </mxGeometry>
        </mxCell>
        <mxCell id="kKTXV7pDH5wiCtCQfZ3n-62" value="유저ID (선생님)" style="shape=partialRectangle;connectable=0;fillColor=none;top=0;left=0;bottom=0;right=0;align=left;spacingLeft=6;fontStyle=5;overflow=hidden;whiteSpace=wrap;html=1;" parent="kKTXV7pDH5wiCtCQfZ3n-60" vertex="1">
          <mxGeometry x="30" width="150" height="30" as="geometry">
            <mxRectangle width="150" height="30" as="alternateBounds" />
          </mxGeometry>
        </mxCell>
        <mxCell id="kKTXV7pDH5wiCtCQfZ3n-63" value="" style="shape=tableRow;horizontal=0;startSize=0;swimlaneHead=0;swimlaneBody=0;fillColor=none;collapsible=0;dropTarget=0;points=[[0,0.5],[1,0.5]];portConstraint=eastwest;top=0;left=0;right=0;bottom=1;" parent="kKTXV7pDH5wiCtCQfZ3n-56" vertex="1">
          <mxGeometry y="90" width="180" height="30" as="geometry" />
        </mxCell>
        <mxCell id="kKTXV7pDH5wiCtCQfZ3n-64" value="FK" style="shape=partialRectangle;connectable=0;fillColor=none;top=0;left=0;bottom=0;right=0;fontStyle=1;overflow=hidden;whiteSpace=wrap;html=1;" parent="kKTXV7pDH5wiCtCQfZ3n-63" vertex="1">
          <mxGeometry width="30" height="30" as="geometry">
            <mxRectangle width="30" height="30" as="alternateBounds" />
          </mxGeometry>
        </mxCell>
        <mxCell id="kKTXV7pDH5wiCtCQfZ3n-65" value="유저ID (학생)" style="shape=partialRectangle;connectable=0;fillColor=none;top=0;left=0;bottom=0;right=0;align=left;spacingLeft=6;fontStyle=5;overflow=hidden;whiteSpace=wrap;html=1;" parent="kKTXV7pDH5wiCtCQfZ3n-63" vertex="1">
          <mxGeometry x="30" width="150" height="30" as="geometry">
            <mxRectangle width="150" height="30" as="alternateBounds" />
          </mxGeometry>
        </mxCell>
        <mxCell id="kKTXV7pDH5wiCtCQfZ3n-66" value="" style="shape=tableRow;horizontal=0;startSize=0;swimlaneHead=0;swimlaneBody=0;fillColor=none;collapsible=0;dropTarget=0;points=[[0,0.5],[1,0.5]];portConstraint=eastwest;top=0;left=0;right=0;bottom=1;" parent="kKTXV7pDH5wiCtCQfZ3n-56" vertex="1">
          <mxGeometry y="120" width="180" height="30" as="geometry" />
        </mxCell>
        <mxCell id="kKTXV7pDH5wiCtCQfZ3n-67" value="FK" style="shape=partialRectangle;connectable=0;fillColor=none;top=0;left=0;bottom=0;right=0;fontStyle=1;overflow=hidden;whiteSpace=wrap;html=1;" parent="kKTXV7pDH5wiCtCQfZ3n-66" vertex="1">
          <mxGeometry width="30" height="30" as="geometry">
            <mxRectangle width="30" height="30" as="alternateBounds" />
          </mxGeometry>
        </mxCell>
        <mxCell id="kKTXV7pDH5wiCtCQfZ3n-68" value="강좌ID" style="shape=partialRectangle;connectable=0;fillColor=none;top=0;left=0;bottom=0;right=0;align=left;spacingLeft=6;fontStyle=5;overflow=hidden;whiteSpace=wrap;html=1;" parent="kKTXV7pDH5wiCtCQfZ3n-66" vertex="1">
          <mxGeometry x="30" width="150" height="30" as="geometry">
            <mxRectangle width="150" height="30" as="alternateBounds" />
          </mxGeometry>
        </mxCell>
        <mxCell id="kKTXV7pDH5wiCtCQfZ3n-69" value="" style="shape=tableRow;horizontal=0;startSize=0;swimlaneHead=0;swimlaneBody=0;fillColor=none;collapsible=0;dropTarget=0;points=[[0,0.5],[1,0.5]];portConstraint=eastwest;top=0;left=0;right=0;bottom=0;" parent="kKTXV7pDH5wiCtCQfZ3n-56" vertex="1">
          <mxGeometry y="150" width="180" height="30" as="geometry" />
        </mxCell>
        <mxCell id="kKTXV7pDH5wiCtCQfZ3n-70" value="" style="shape=partialRectangle;connectable=0;fillColor=none;top=0;left=0;bottom=0;right=0;editable=1;overflow=hidden;whiteSpace=wrap;html=1;" parent="kKTXV7pDH5wiCtCQfZ3n-69" vertex="1">
          <mxGeometry width="30" height="30" as="geometry">
            <mxRectangle width="30" height="30" as="alternateBounds" />
          </mxGeometry>
        </mxCell>
        <mxCell id="kKTXV7pDH5wiCtCQfZ3n-71" value="강좌 수강평(course_ review) / TEXT" style="shape=partialRectangle;connectable=0;fillColor=none;top=0;left=0;bottom=0;right=0;align=left;spacingLeft=6;overflow=hidden;whiteSpace=wrap;html=1;" parent="kKTXV7pDH5wiCtCQfZ3n-69" vertex="1">
          <mxGeometry x="30" width="150" height="30" as="geometry">
            <mxRectangle width="150" height="30" as="alternateBounds" />
          </mxGeometry>
        </mxCell>
        <mxCell id="kKTXV7pDH5wiCtCQfZ3n-72" value="" style="shape=tableRow;horizontal=0;startSize=0;swimlaneHead=0;swimlaneBody=0;fillColor=none;collapsible=0;dropTarget=0;points=[[0,0.5],[1,0.5]];portConstraint=eastwest;top=0;left=0;right=0;bottom=0;" parent="kKTXV7pDH5wiCtCQfZ3n-56" vertex="1">
          <mxGeometry y="180" width="180" height="30" as="geometry" />
        </mxCell>
        <mxCell id="kKTXV7pDH5wiCtCQfZ3n-73" value="" style="shape=partialRectangle;connectable=0;fillColor=none;top=0;left=0;bottom=0;right=0;editable=1;overflow=hidden;whiteSpace=wrap;html=1;" parent="kKTXV7pDH5wiCtCQfZ3n-72" vertex="1">
          <mxGeometry width="30" height="30" as="geometry">
            <mxRectangle width="30" height="30" as="alternateBounds" />
          </mxGeometry>
        </mxCell>
        <mxCell id="kKTXV7pDH5wiCtCQfZ3n-74" value="선생님 수강평(teacher _review) / TEXT" style="shape=partialRectangle;connectable=0;fillColor=none;top=0;left=0;bottom=0;right=0;align=left;spacingLeft=6;overflow=hidden;whiteSpace=wrap;html=1;" parent="kKTXV7pDH5wiCtCQfZ3n-72" vertex="1">
          <mxGeometry x="30" width="150" height="30" as="geometry">
            <mxRectangle width="150" height="30" as="alternateBounds" />
          </mxGeometry>
        </mxCell>
        <mxCell id="kKTXV7pDH5wiCtCQfZ3n-75" value="" style="shape=tableRow;horizontal=0;startSize=0;swimlaneHead=0;swimlaneBody=0;fillColor=none;collapsible=0;dropTarget=0;points=[[0,0.5],[1,0.5]];portConstraint=eastwest;top=0;left=0;right=0;bottom=0;" parent="kKTXV7pDH5wiCtCQfZ3n-56" vertex="1">
          <mxGeometry y="210" width="180" height="30" as="geometry" />
        </mxCell>
        <mxCell id="kKTXV7pDH5wiCtCQfZ3n-76" value="" style="shape=partialRectangle;connectable=0;fillColor=none;top=0;left=0;bottom=0;right=0;editable=1;overflow=hidden;whiteSpace=wrap;html=1;" parent="kKTXV7pDH5wiCtCQfZ3n-75" vertex="1">
          <mxGeometry width="30" height="30" as="geometry">
            <mxRectangle width="30" height="30" as="alternateBounds" />
          </mxGeometry>
        </mxCell>
        <mxCell id="kKTXV7pDH5wiCtCQfZ3n-77" value="강좌 평점(course_rating) / INTEGER" style="shape=partialRectangle;connectable=0;fillColor=none;top=0;left=0;bottom=0;right=0;align=left;spacingLeft=6;overflow=hidden;whiteSpace=wrap;html=1;" parent="kKTXV7pDH5wiCtCQfZ3n-75" vertex="1">
          <mxGeometry x="30" width="150" height="30" as="geometry">
            <mxRectangle width="150" height="30" as="alternateBounds" />
          </mxGeometry>
        </mxCell>
        <mxCell id="kKTXV7pDH5wiCtCQfZ3n-78" value="" style="shape=tableRow;horizontal=0;startSize=0;swimlaneHead=0;swimlaneBody=0;fillColor=none;collapsible=0;dropTarget=0;points=[[0,0.5],[1,0.5]];portConstraint=eastwest;top=0;left=0;right=0;bottom=0;" parent="kKTXV7pDH5wiCtCQfZ3n-56" vertex="1">
          <mxGeometry y="240" width="180" height="30" as="geometry" />
        </mxCell>
        <mxCell id="kKTXV7pDH5wiCtCQfZ3n-79" value="" style="shape=partialRectangle;connectable=0;fillColor=none;top=0;left=0;bottom=0;right=0;editable=1;overflow=hidden;whiteSpace=wrap;html=1;" parent="kKTXV7pDH5wiCtCQfZ3n-78" vertex="1">
          <mxGeometry width="30" height="30" as="geometry">
            <mxRectangle width="30" height="30" as="alternateBounds" />
          </mxGeometry>
        </mxCell>
        <mxCell id="kKTXV7pDH5wiCtCQfZ3n-80" value="선생님 평점(teacher_rating) / INTEGER" style="shape=partialRectangle;connectable=0;fillColor=none;top=0;left=0;bottom=0;right=0;align=left;spacingLeft=6;overflow=hidden;whiteSpace=wrap;html=1;" parent="kKTXV7pDH5wiCtCQfZ3n-78" vertex="1">
          <mxGeometry x="30" width="150" height="30" as="geometry">
            <mxRectangle width="150" height="30" as="alternateBounds" />
          </mxGeometry>
        </mxCell>
        <mxCell id="kKTXV7pDH5wiCtCQfZ3n-81" value="" style="edgeStyle=entityRelationEdgeStyle;fontSize=12;html=1;endArrow=ERzeroToMany;endFill=1;rounded=0;entryX=1;entryY=0.5;entryDx=0;entryDy=0;exitX=1;exitY=0.5;exitDx=0;exitDy=0;" parent="1" source="8ky8RM0VNlPD6aG0PIWe-229" target="kKTXV7pDH5wiCtCQfZ3n-66" edge="1">
          <mxGeometry width="100" height="100" relative="1" as="geometry">
            <mxPoint x="480" y="1620" as="sourcePoint" />
            <mxPoint x="580" y="1520" as="targetPoint" />
          </mxGeometry>
        </mxCell>
        <mxCell id="kKTXV7pDH5wiCtCQfZ3n-82" value="" style="edgeStyle=entityRelationEdgeStyle;fontSize=12;html=1;endArrow=ERzeroToMany;endFill=1;rounded=0;entryX=0;entryY=0.5;entryDx=0;entryDy=0;exitX=1;exitY=0.5;exitDx=0;exitDy=0;" parent="1" source="8ky8RM0VNlPD6aG0PIWe-297" target="kKTXV7pDH5wiCtCQfZ3n-63" edge="1">
          <mxGeometry width="100" height="100" relative="1" as="geometry">
            <mxPoint x="170" y="1710" as="sourcePoint" />
            <mxPoint x="270" y="1610" as="targetPoint" />
          </mxGeometry>
        </mxCell>
        <mxCell id="kKTXV7pDH5wiCtCQfZ3n-83" value="" style="edgeStyle=entityRelationEdgeStyle;fontSize=12;html=1;endArrow=ERzeroToMany;endFill=1;rounded=0;entryX=0;entryY=0.5;entryDx=0;entryDy=0;exitX=1;exitY=0.5;exitDx=0;exitDy=0;" parent="1" source="8ky8RM0VNlPD6aG0PIWe-297" target="kKTXV7pDH5wiCtCQfZ3n-60" edge="1">
          <mxGeometry width="100" height="100" relative="1" as="geometry">
            <mxPoint x="170" y="1710" as="sourcePoint" />
            <mxPoint x="270" y="1610" as="targetPoint" />
          </mxGeometry>
        </mxCell>
        <mxCell id="kKTXV7pDH5wiCtCQfZ3n-84" value="course -게시글(course_post)" style="shape=table;startSize=30;container=1;collapsible=1;childLayout=tableLayout;fixedRows=1;rowLines=0;fontStyle=1;align=center;resizeLast=1;html=1;" parent="1" vertex="1">
          <mxGeometry x="580" y="1330" width="180" height="150" as="geometry" />
        </mxCell>
        <mxCell id="kKTXV7pDH5wiCtCQfZ3n-85" value="" style="shape=tableRow;horizontal=0;startSize=0;swimlaneHead=0;swimlaneBody=0;fillColor=none;collapsible=0;dropTarget=0;points=[[0,0.5],[1,0.5]];portConstraint=eastwest;top=0;left=0;right=0;bottom=1;" parent="kKTXV7pDH5wiCtCQfZ3n-84" vertex="1">
          <mxGeometry y="30" width="180" height="30" as="geometry" />
        </mxCell>
        <mxCell id="kKTXV7pDH5wiCtCQfZ3n-86" value="PK" style="shape=partialRectangle;connectable=0;fillColor=none;top=0;left=0;bottom=0;right=0;fontStyle=1;overflow=hidden;whiteSpace=wrap;html=1;" parent="kKTXV7pDH5wiCtCQfZ3n-85" vertex="1">
          <mxGeometry width="30" height="30" as="geometry">
            <mxRectangle width="30" height="30" as="alternateBounds" />
          </mxGeometry>
        </mxCell>
        <mxCell id="kKTXV7pDH5wiCtCQfZ3n-87" value="course 게시글ID" style="shape=partialRectangle;connectable=0;fillColor=none;top=0;left=0;bottom=0;right=0;align=left;spacingLeft=6;fontStyle=5;overflow=hidden;whiteSpace=wrap;html=1;" parent="kKTXV7pDH5wiCtCQfZ3n-85" vertex="1">
          <mxGeometry x="30" width="150" height="30" as="geometry">
            <mxRectangle width="150" height="30" as="alternateBounds" />
          </mxGeometry>
        </mxCell>
        <mxCell id="kKTXV7pDH5wiCtCQfZ3n-88" value="" style="shape=tableRow;horizontal=0;startSize=0;swimlaneHead=0;swimlaneBody=0;fillColor=none;collapsible=0;dropTarget=0;points=[[0,0.5],[1,0.5]];portConstraint=eastwest;top=0;left=0;right=0;bottom=1;" parent="kKTXV7pDH5wiCtCQfZ3n-84" vertex="1">
          <mxGeometry y="60" width="180" height="30" as="geometry" />
        </mxCell>
        <mxCell id="kKTXV7pDH5wiCtCQfZ3n-89" value="FK" style="shape=partialRectangle;connectable=0;fillColor=none;top=0;left=0;bottom=0;right=0;fontStyle=1;overflow=hidden;whiteSpace=wrap;html=1;" parent="kKTXV7pDH5wiCtCQfZ3n-88" vertex="1">
          <mxGeometry width="30" height="30" as="geometry">
            <mxRectangle width="30" height="30" as="alternateBounds" />
          </mxGeometry>
        </mxCell>
        <mxCell id="kKTXV7pDH5wiCtCQfZ3n-90" value="강좌ID" style="shape=partialRectangle;connectable=0;fillColor=none;top=0;left=0;bottom=0;right=0;align=left;spacingLeft=6;fontStyle=5;overflow=hidden;whiteSpace=wrap;html=1;" parent="kKTXV7pDH5wiCtCQfZ3n-88" vertex="1">
          <mxGeometry x="30" width="150" height="30" as="geometry">
            <mxRectangle width="150" height="30" as="alternateBounds" />
          </mxGeometry>
        </mxCell>
        <mxCell id="kKTXV7pDH5wiCtCQfZ3n-91" value="" style="shape=tableRow;horizontal=0;startSize=0;swimlaneHead=0;swimlaneBody=0;fillColor=none;collapsible=0;dropTarget=0;points=[[0,0.5],[1,0.5]];portConstraint=eastwest;top=0;left=0;right=0;bottom=0;" parent="kKTXV7pDH5wiCtCQfZ3n-84" vertex="1">
          <mxGeometry y="90" width="180" height="30" as="geometry" />
        </mxCell>
        <mxCell id="kKTXV7pDH5wiCtCQfZ3n-92" value="" style="shape=partialRectangle;connectable=0;fillColor=none;top=0;left=0;bottom=0;right=0;editable=1;overflow=hidden;whiteSpace=wrap;html=1;" parent="kKTXV7pDH5wiCtCQfZ3n-91" vertex="1">
          <mxGeometry width="30" height="30" as="geometry">
            <mxRectangle width="30" height="30" as="alternateBounds" />
          </mxGeometry>
        </mxCell>
        <mxCell id="kKTXV7pDH5wiCtCQfZ3n-93" value="게시글 내용(content) / TEXT" style="shape=partialRectangle;connectable=0;fillColor=none;top=0;left=0;bottom=0;right=0;align=left;spacingLeft=6;overflow=hidden;whiteSpace=wrap;html=1;" parent="kKTXV7pDH5wiCtCQfZ3n-91" vertex="1">
          <mxGeometry x="30" width="150" height="30" as="geometry">
            <mxRectangle width="150" height="30" as="alternateBounds" />
          </mxGeometry>
        </mxCell>
        <mxCell id="kKTXV7pDH5wiCtCQfZ3n-134" value="" style="shape=tableRow;horizontal=0;startSize=0;swimlaneHead=0;swimlaneBody=0;fillColor=none;collapsible=0;dropTarget=0;points=[[0,0.5],[1,0.5]];portConstraint=eastwest;top=0;left=0;right=0;bottom=0;" parent="kKTXV7pDH5wiCtCQfZ3n-84" vertex="1">
          <mxGeometry y="120" width="180" height="30" as="geometry" />
        </mxCell>
        <mxCell id="kKTXV7pDH5wiCtCQfZ3n-135" value="" style="shape=partialRectangle;connectable=0;fillColor=none;top=0;left=0;bottom=0;right=0;editable=1;overflow=hidden;whiteSpace=wrap;html=1;" parent="kKTXV7pDH5wiCtCQfZ3n-134" vertex="1">
          <mxGeometry width="30" height="30" as="geometry">
            <mxRectangle width="30" height="30" as="alternateBounds" />
          </mxGeometry>
        </mxCell>
        <mxCell id="kKTXV7pDH5wiCtCQfZ3n-136" value="생성 날짜(date) / DATETIME" style="shape=partialRectangle;connectable=0;fillColor=none;top=0;left=0;bottom=0;right=0;align=left;spacingLeft=6;overflow=hidden;whiteSpace=wrap;html=1;" parent="kKTXV7pDH5wiCtCQfZ3n-134" vertex="1">
          <mxGeometry x="30" width="150" height="30" as="geometry">
            <mxRectangle width="150" height="30" as="alternateBounds" />
          </mxGeometry>
        </mxCell>
        <mxCell id="kKTXV7pDH5wiCtCQfZ3n-97" value="" style="edgeStyle=entityRelationEdgeStyle;fontSize=12;html=1;endArrow=ERzeroToMany;endFill=1;rounded=0;entryX=0;entryY=0.5;entryDx=0;entryDy=0;exitX=1;exitY=0.5;exitDx=0;exitDy=0;" parent="1" source="8ky8RM0VNlPD6aG0PIWe-229" target="kKTXV7pDH5wiCtCQfZ3n-88" edge="1">
          <mxGeometry width="100" height="100" relative="1" as="geometry">
            <mxPoint x="1040" y="1640" as="sourcePoint" />
            <mxPoint x="1140" y="1540" as="targetPoint" />
          </mxGeometry>
        </mxCell>
        <mxCell id="kKTXV7pDH5wiCtCQfZ3n-98" value="course -댓글(course_comment)" style="shape=table;startSize=30;container=1;collapsible=1;childLayout=tableLayout;fixedRows=1;rowLines=0;fontStyle=1;align=center;resizeLast=1;html=1;" parent="1" vertex="1">
          <mxGeometry x="580" y="1655" width="180" height="210" as="geometry" />
        </mxCell>
        <mxCell id="kKTXV7pDH5wiCtCQfZ3n-99" value="" style="shape=tableRow;horizontal=0;startSize=0;swimlaneHead=0;swimlaneBody=0;fillColor=none;collapsible=0;dropTarget=0;points=[[0,0.5],[1,0.5]];portConstraint=eastwest;top=0;left=0;right=0;bottom=1;" parent="kKTXV7pDH5wiCtCQfZ3n-98" vertex="1">
          <mxGeometry y="30" width="180" height="30" as="geometry" />
        </mxCell>
        <mxCell id="kKTXV7pDH5wiCtCQfZ3n-100" value="PK" style="shape=partialRectangle;connectable=0;fillColor=none;top=0;left=0;bottom=0;right=0;fontStyle=1;overflow=hidden;whiteSpace=wrap;html=1;" parent="kKTXV7pDH5wiCtCQfZ3n-99" vertex="1">
          <mxGeometry width="30" height="30" as="geometry">
            <mxRectangle width="30" height="30" as="alternateBounds" />
          </mxGeometry>
        </mxCell>
        <mxCell id="kKTXV7pDH5wiCtCQfZ3n-101" value="course - 댓글ID" style="shape=partialRectangle;connectable=0;fillColor=none;top=0;left=0;bottom=0;right=0;align=left;spacingLeft=6;fontStyle=5;overflow=hidden;whiteSpace=wrap;html=1;" parent="kKTXV7pDH5wiCtCQfZ3n-99" vertex="1">
          <mxGeometry x="30" width="150" height="30" as="geometry">
            <mxRectangle width="150" height="30" as="alternateBounds" />
          </mxGeometry>
        </mxCell>
        <mxCell id="kKTXV7pDH5wiCtCQfZ3n-111" value="" style="shape=tableRow;horizontal=0;startSize=0;swimlaneHead=0;swimlaneBody=0;fillColor=none;collapsible=0;dropTarget=0;points=[[0,0.5],[1,0.5]];portConstraint=eastwest;top=0;left=0;right=0;bottom=1;" parent="kKTXV7pDH5wiCtCQfZ3n-98" vertex="1">
          <mxGeometry y="60" width="180" height="30" as="geometry" />
        </mxCell>
        <mxCell id="kKTXV7pDH5wiCtCQfZ3n-112" value="FK" style="shape=partialRectangle;connectable=0;fillColor=none;top=0;left=0;bottom=0;right=0;fontStyle=1;overflow=hidden;whiteSpace=wrap;html=1;" parent="kKTXV7pDH5wiCtCQfZ3n-111" vertex="1">
          <mxGeometry width="30" height="30" as="geometry">
            <mxRectangle width="30" height="30" as="alternateBounds" />
          </mxGeometry>
        </mxCell>
        <mxCell id="kKTXV7pDH5wiCtCQfZ3n-113" value="course 게시글ID" style="shape=partialRectangle;connectable=0;fillColor=none;top=0;left=0;bottom=0;right=0;align=left;spacingLeft=6;fontStyle=5;overflow=hidden;whiteSpace=wrap;html=1;" parent="kKTXV7pDH5wiCtCQfZ3n-111" vertex="1">
          <mxGeometry x="30" width="150" height="30" as="geometry">
            <mxRectangle width="150" height="30" as="alternateBounds" />
          </mxGeometry>
        </mxCell>
        <mxCell id="kKTXV7pDH5wiCtCQfZ3n-115" value="" style="shape=tableRow;horizontal=0;startSize=0;swimlaneHead=0;swimlaneBody=0;fillColor=none;collapsible=0;dropTarget=0;points=[[0,0.5],[1,0.5]];portConstraint=eastwest;top=0;left=0;right=0;bottom=1;" parent="kKTXV7pDH5wiCtCQfZ3n-98" vertex="1">
          <mxGeometry y="90" width="180" height="30" as="geometry" />
        </mxCell>
        <mxCell id="kKTXV7pDH5wiCtCQfZ3n-116" value="FK" style="shape=partialRectangle;connectable=0;fillColor=none;top=0;left=0;bottom=0;right=0;fontStyle=1;overflow=hidden;whiteSpace=wrap;html=1;" parent="kKTXV7pDH5wiCtCQfZ3n-115" vertex="1">
          <mxGeometry width="30" height="30" as="geometry">
            <mxRectangle width="30" height="30" as="alternateBounds" />
          </mxGeometry>
        </mxCell>
        <mxCell id="kKTXV7pDH5wiCtCQfZ3n-117" value="유저ID (둘 중에 하나)" style="shape=partialRectangle;connectable=0;fillColor=none;top=0;left=0;bottom=0;right=0;align=left;spacingLeft=6;fontStyle=5;overflow=hidden;whiteSpace=wrap;html=1;" parent="kKTXV7pDH5wiCtCQfZ3n-115" vertex="1">
          <mxGeometry x="30" width="150" height="30" as="geometry">
            <mxRectangle width="150" height="30" as="alternateBounds" />
          </mxGeometry>
        </mxCell>
        <mxCell id="kKTXV7pDH5wiCtCQfZ3n-131" value="" style="shape=tableRow;horizontal=0;startSize=0;swimlaneHead=0;swimlaneBody=0;fillColor=none;collapsible=0;dropTarget=0;points=[[0,0.5],[1,0.5]];portConstraint=eastwest;top=0;left=0;right=0;bottom=1;" parent="kKTXV7pDH5wiCtCQfZ3n-98" vertex="1">
          <mxGeometry y="120" width="180" height="30" as="geometry" />
        </mxCell>
        <mxCell id="kKTXV7pDH5wiCtCQfZ3n-132" value="FK" style="shape=partialRectangle;connectable=0;fillColor=none;top=0;left=0;bottom=0;right=0;fontStyle=1;overflow=hidden;whiteSpace=wrap;html=1;" parent="kKTXV7pDH5wiCtCQfZ3n-131" vertex="1">
          <mxGeometry width="30" height="30" as="geometry">
            <mxRectangle width="30" height="30" as="alternateBounds" />
          </mxGeometry>
        </mxCell>
        <mxCell id="kKTXV7pDH5wiCtCQfZ3n-133" value="course - 댓글ID" style="shape=partialRectangle;connectable=0;fillColor=none;top=0;left=0;bottom=0;right=0;align=left;spacingLeft=6;fontStyle=5;overflow=hidden;whiteSpace=wrap;html=1;" parent="kKTXV7pDH5wiCtCQfZ3n-131" vertex="1">
          <mxGeometry x="30" width="150" height="30" as="geometry">
            <mxRectangle width="150" height="30" as="alternateBounds" />
          </mxGeometry>
        </mxCell>
        <mxCell id="kKTXV7pDH5wiCtCQfZ3n-102" value="" style="shape=tableRow;horizontal=0;startSize=0;swimlaneHead=0;swimlaneBody=0;fillColor=none;collapsible=0;dropTarget=0;points=[[0,0.5],[1,0.5]];portConstraint=eastwest;top=0;left=0;right=0;bottom=0;" parent="kKTXV7pDH5wiCtCQfZ3n-98" vertex="1">
          <mxGeometry y="150" width="180" height="30" as="geometry" />
        </mxCell>
        <mxCell id="kKTXV7pDH5wiCtCQfZ3n-103" value="" style="shape=partialRectangle;connectable=0;fillColor=none;top=0;left=0;bottom=0;right=0;editable=1;overflow=hidden;whiteSpace=wrap;html=1;" parent="kKTXV7pDH5wiCtCQfZ3n-102" vertex="1">
          <mxGeometry width="30" height="30" as="geometry">
            <mxRectangle width="30" height="30" as="alternateBounds" />
          </mxGeometry>
        </mxCell>
        <mxCell id="kKTXV7pDH5wiCtCQfZ3n-104" value="댓글 내용(content) / TEXT" style="shape=partialRectangle;connectable=0;fillColor=none;top=0;left=0;bottom=0;right=0;align=left;spacingLeft=6;overflow=hidden;whiteSpace=wrap;html=1;" parent="kKTXV7pDH5wiCtCQfZ3n-102" vertex="1">
          <mxGeometry x="30" width="150" height="30" as="geometry">
            <mxRectangle width="150" height="30" as="alternateBounds" />
          </mxGeometry>
        </mxCell>
        <mxCell id="kKTXV7pDH5wiCtCQfZ3n-137" value="" style="shape=tableRow;horizontal=0;startSize=0;swimlaneHead=0;swimlaneBody=0;fillColor=none;collapsible=0;dropTarget=0;points=[[0,0.5],[1,0.5]];portConstraint=eastwest;top=0;left=0;right=0;bottom=0;" parent="kKTXV7pDH5wiCtCQfZ3n-98" vertex="1">
          <mxGeometry y="180" width="180" height="30" as="geometry" />
        </mxCell>
        <mxCell id="kKTXV7pDH5wiCtCQfZ3n-138" value="" style="shape=partialRectangle;connectable=0;fillColor=none;top=0;left=0;bottom=0;right=0;editable=1;overflow=hidden;whiteSpace=wrap;html=1;" parent="kKTXV7pDH5wiCtCQfZ3n-137" vertex="1">
          <mxGeometry width="30" height="30" as="geometry">
            <mxRectangle width="30" height="30" as="alternateBounds" />
          </mxGeometry>
        </mxCell>
        <mxCell id="kKTXV7pDH5wiCtCQfZ3n-139" value="생성 날짜(date) / DATETIME" style="shape=partialRectangle;connectable=0;fillColor=none;top=0;left=0;bottom=0;right=0;align=left;spacingLeft=6;overflow=hidden;whiteSpace=wrap;html=1;" parent="kKTXV7pDH5wiCtCQfZ3n-137" vertex="1">
          <mxGeometry x="30" width="150" height="30" as="geometry">
            <mxRectangle width="150" height="30" as="alternateBounds" />
          </mxGeometry>
        </mxCell>
        <mxCell id="kKTXV7pDH5wiCtCQfZ3n-140" value="" style="edgeStyle=entityRelationEdgeStyle;fontSize=12;html=1;endArrow=ERzeroToMany;endFill=1;rounded=0;entryX=1;entryY=0.5;entryDx=0;entryDy=0;exitX=1;exitY=0.5;exitDx=0;exitDy=0;" parent="kKTXV7pDH5wiCtCQfZ3n-98" source="kKTXV7pDH5wiCtCQfZ3n-99" target="kKTXV7pDH5wiCtCQfZ3n-131" edge="1">
          <mxGeometry width="100" height="100" relative="1" as="geometry">
            <mxPoint x="-300" y="210" as="sourcePoint" />
            <mxPoint x="-200" y="110" as="targetPoint" />
          </mxGeometry>
        </mxCell>
        <mxCell id="kKTXV7pDH5wiCtCQfZ3n-114" value="" style="edgeStyle=entityRelationEdgeStyle;fontSize=12;html=1;endArrow=ERzeroToMany;endFill=1;rounded=0;exitX=1;exitY=0.5;exitDx=0;exitDy=0;entryX=1;entryY=0.5;entryDx=0;entryDy=0;" parent="1" source="kKTXV7pDH5wiCtCQfZ3n-85" target="kKTXV7pDH5wiCtCQfZ3n-111" edge="1">
          <mxGeometry width="100" height="100" relative="1" as="geometry">
            <mxPoint x="1000" y="1644" as="sourcePoint" />
            <mxPoint x="1100" y="1544" as="targetPoint" />
          </mxGeometry>
        </mxCell>
        <mxCell id="kKTXV7pDH5wiCtCQfZ3n-141" value="" style="edgeStyle=entityRelationEdgeStyle;fontSize=12;html=1;endArrow=ERzeroToMany;endFill=1;rounded=0;entryX=0;entryY=0.5;entryDx=0;entryDy=0;exitX=1;exitY=0.5;exitDx=0;exitDy=0;" parent="1" source="8ky8RM0VNlPD6aG0PIWe-297" target="kKTXV7pDH5wiCtCQfZ3n-115" edge="1">
          <mxGeometry width="100" height="100" relative="1" as="geometry">
            <mxPoint x="740" y="1760" as="sourcePoint" />
            <mxPoint x="840" y="1660" as="targetPoint" />
          </mxGeometry>
        </mxCell>
        <mxCell id="kKTXV7pDH5wiCtCQfZ3n-142" value="통합 게시글(post)" style="shape=table;startSize=30;container=1;collapsible=1;childLayout=tableLayout;fixedRows=1;rowLines=0;fontStyle=1;align=center;resizeLast=1;html=1;" parent="1" vertex="1">
          <mxGeometry x="910" y="1480" width="180" height="194" as="geometry" />
        </mxCell>
        <mxCell id="kKTXV7pDH5wiCtCQfZ3n-143" value="" style="shape=tableRow;horizontal=0;startSize=0;swimlaneHead=0;swimlaneBody=0;fillColor=none;collapsible=0;dropTarget=0;points=[[0,0.5],[1,0.5]];portConstraint=eastwest;top=0;left=0;right=0;bottom=1;" parent="kKTXV7pDH5wiCtCQfZ3n-142" vertex="1">
          <mxGeometry y="30" width="180" height="30" as="geometry" />
        </mxCell>
        <mxCell id="kKTXV7pDH5wiCtCQfZ3n-144" value="PK" style="shape=partialRectangle;connectable=0;fillColor=none;top=0;left=0;bottom=0;right=0;fontStyle=1;overflow=hidden;whiteSpace=wrap;html=1;" parent="kKTXV7pDH5wiCtCQfZ3n-143" vertex="1">
          <mxGeometry width="30" height="30" as="geometry">
            <mxRectangle width="30" height="30" as="alternateBounds" />
          </mxGeometry>
        </mxCell>
        <mxCell id="kKTXV7pDH5wiCtCQfZ3n-145" value="통합 게시글ID" style="shape=partialRectangle;connectable=0;fillColor=none;top=0;left=0;bottom=0;right=0;align=left;spacingLeft=6;fontStyle=5;overflow=hidden;whiteSpace=wrap;html=1;" parent="kKTXV7pDH5wiCtCQfZ3n-143" vertex="1">
          <mxGeometry x="30" width="150" height="30" as="geometry">
            <mxRectangle width="150" height="30" as="alternateBounds" />
          </mxGeometry>
        </mxCell>
        <mxCell id="kKTXV7pDH5wiCtCQfZ3n-155" value="" style="shape=tableRow;horizontal=0;startSize=0;swimlaneHead=0;swimlaneBody=0;fillColor=none;collapsible=0;dropTarget=0;points=[[0,0.5],[1,0.5]];portConstraint=eastwest;top=0;left=0;right=0;bottom=1;" parent="kKTXV7pDH5wiCtCQfZ3n-142" vertex="1">
          <mxGeometry y="60" width="180" height="30" as="geometry" />
        </mxCell>
        <mxCell id="kKTXV7pDH5wiCtCQfZ3n-156" value="FK" style="shape=partialRectangle;connectable=0;fillColor=none;top=0;left=0;bottom=0;right=0;fontStyle=1;overflow=hidden;whiteSpace=wrap;html=1;" parent="kKTXV7pDH5wiCtCQfZ3n-155" vertex="1">
          <mxGeometry width="30" height="30" as="geometry">
            <mxRectangle width="30" height="30" as="alternateBounds" />
          </mxGeometry>
        </mxCell>
        <mxCell id="kKTXV7pDH5wiCtCQfZ3n-157" value="유저ID (둘 중에 하나)" style="shape=partialRectangle;connectable=0;fillColor=none;top=0;left=0;bottom=0;right=0;align=left;spacingLeft=6;fontStyle=5;overflow=hidden;whiteSpace=wrap;html=1;" parent="kKTXV7pDH5wiCtCQfZ3n-155" vertex="1">
          <mxGeometry x="30" width="150" height="30" as="geometry">
            <mxRectangle width="150" height="30" as="alternateBounds" />
          </mxGeometry>
        </mxCell>
        <mxCell id="kKTXV7pDH5wiCtCQfZ3n-146" value="" style="shape=tableRow;horizontal=0;startSize=0;swimlaneHead=0;swimlaneBody=0;fillColor=none;collapsible=0;dropTarget=0;points=[[0,0.5],[1,0.5]];portConstraint=eastwest;top=0;left=0;right=0;bottom=0;" parent="kKTXV7pDH5wiCtCQfZ3n-142" vertex="1">
          <mxGeometry y="90" width="180" height="30" as="geometry" />
        </mxCell>
        <mxCell id="kKTXV7pDH5wiCtCQfZ3n-147" value="" style="shape=partialRectangle;connectable=0;fillColor=none;top=0;left=0;bottom=0;right=0;editable=1;overflow=hidden;whiteSpace=wrap;html=1;" parent="kKTXV7pDH5wiCtCQfZ3n-146" vertex="1">
          <mxGeometry width="30" height="30" as="geometry">
            <mxRectangle width="30" height="30" as="alternateBounds" />
          </mxGeometry>
        </mxCell>
        <mxCell id="kKTXV7pDH5wiCtCQfZ3n-148" value="게시글 내용(content) / TEXT" style="shape=partialRectangle;connectable=0;fillColor=none;top=0;left=0;bottom=0;right=0;align=left;spacingLeft=6;overflow=hidden;whiteSpace=wrap;html=1;" parent="kKTXV7pDH5wiCtCQfZ3n-146" vertex="1">
          <mxGeometry x="30" width="150" height="30" as="geometry">
            <mxRectangle width="150" height="30" as="alternateBounds" />
          </mxGeometry>
        </mxCell>
        <mxCell id="kKTXV7pDH5wiCtCQfZ3n-149" value="" style="shape=tableRow;horizontal=0;startSize=0;swimlaneHead=0;swimlaneBody=0;fillColor=none;collapsible=0;dropTarget=0;points=[[0,0.5],[1,0.5]];portConstraint=eastwest;top=0;left=0;right=0;bottom=0;" parent="kKTXV7pDH5wiCtCQfZ3n-142" vertex="1">
          <mxGeometry y="120" width="180" height="30" as="geometry" />
        </mxCell>
        <mxCell id="kKTXV7pDH5wiCtCQfZ3n-150" value="" style="shape=partialRectangle;connectable=0;fillColor=none;top=0;left=0;bottom=0;right=0;editable=1;overflow=hidden;whiteSpace=wrap;html=1;" parent="kKTXV7pDH5wiCtCQfZ3n-149" vertex="1">
          <mxGeometry width="30" height="30" as="geometry">
            <mxRectangle width="30" height="30" as="alternateBounds" />
          </mxGeometry>
        </mxCell>
        <mxCell id="kKTXV7pDH5wiCtCQfZ3n-151" value="생성 날짜(date) / DATETIME" style="shape=partialRectangle;connectable=0;fillColor=none;top=0;left=0;bottom=0;right=0;align=left;spacingLeft=6;overflow=hidden;whiteSpace=wrap;html=1;" parent="kKTXV7pDH5wiCtCQfZ3n-149" vertex="1">
          <mxGeometry x="30" width="150" height="30" as="geometry">
            <mxRectangle width="150" height="30" as="alternateBounds" />
          </mxGeometry>
        </mxCell>
        <mxCell id="kKTXV7pDH5wiCtCQfZ3n-152" value="" style="shape=tableRow;horizontal=0;startSize=0;swimlaneHead=0;swimlaneBody=0;fillColor=none;collapsible=0;dropTarget=0;points=[[0,0.5],[1,0.5]];portConstraint=eastwest;top=0;left=0;right=0;bottom=0;" parent="kKTXV7pDH5wiCtCQfZ3n-142" vertex="1">
          <mxGeometry y="150" width="180" height="44" as="geometry" />
        </mxCell>
        <mxCell id="kKTXV7pDH5wiCtCQfZ3n-153" value="" style="shape=partialRectangle;connectable=0;fillColor=none;top=0;left=0;bottom=0;right=0;editable=1;overflow=hidden;whiteSpace=wrap;html=1;" parent="kKTXV7pDH5wiCtCQfZ3n-152" vertex="1">
          <mxGeometry width="30" height="44" as="geometry">
            <mxRectangle width="30" height="44" as="alternateBounds" />
          </mxGeometry>
        </mxCell>
        <mxCell id="kKTXV7pDH5wiCtCQfZ3n-154" value="ENUM(qna, study)" style="shape=partialRectangle;connectable=0;fillColor=none;top=0;left=0;bottom=0;right=0;align=left;spacingLeft=6;overflow=hidden;whiteSpace=wrap;html=1;" parent="kKTXV7pDH5wiCtCQfZ3n-152" vertex="1">
          <mxGeometry x="30" width="150" height="44" as="geometry">
            <mxRectangle width="150" height="44" as="alternateBounds" />
          </mxGeometry>
        </mxCell>
        <mxCell id="kKTXV7pDH5wiCtCQfZ3n-158" value="통합 -댓글(comment)" style="shape=table;startSize=30;container=1;collapsible=1;childLayout=tableLayout;fixedRows=1;rowLines=0;fontStyle=1;align=center;resizeLast=1;html=1;" parent="1" vertex="1">
          <mxGeometry x="910" y="1890" width="180" height="210" as="geometry" />
        </mxCell>
        <mxCell id="kKTXV7pDH5wiCtCQfZ3n-159" value="" style="shape=tableRow;horizontal=0;startSize=0;swimlaneHead=0;swimlaneBody=0;fillColor=none;collapsible=0;dropTarget=0;points=[[0,0.5],[1,0.5]];portConstraint=eastwest;top=0;left=0;right=0;bottom=1;" parent="kKTXV7pDH5wiCtCQfZ3n-158" vertex="1">
          <mxGeometry y="30" width="180" height="30" as="geometry" />
        </mxCell>
        <mxCell id="kKTXV7pDH5wiCtCQfZ3n-160" value="PK" style="shape=partialRectangle;connectable=0;fillColor=none;top=0;left=0;bottom=0;right=0;fontStyle=1;overflow=hidden;whiteSpace=wrap;html=1;" parent="kKTXV7pDH5wiCtCQfZ3n-159" vertex="1">
          <mxGeometry width="30" height="30" as="geometry">
            <mxRectangle width="30" height="30" as="alternateBounds" />
          </mxGeometry>
        </mxCell>
        <mxCell id="kKTXV7pDH5wiCtCQfZ3n-161" value="통합 - 댓글ID" style="shape=partialRectangle;connectable=0;fillColor=none;top=0;left=0;bottom=0;right=0;align=left;spacingLeft=6;fontStyle=5;overflow=hidden;whiteSpace=wrap;html=1;" parent="kKTXV7pDH5wiCtCQfZ3n-159" vertex="1">
          <mxGeometry x="30" width="150" height="30" as="geometry">
            <mxRectangle width="150" height="30" as="alternateBounds" />
          </mxGeometry>
        </mxCell>
        <mxCell id="kKTXV7pDH5wiCtCQfZ3n-171" value="" style="shape=tableRow;horizontal=0;startSize=0;swimlaneHead=0;swimlaneBody=0;fillColor=none;collapsible=0;dropTarget=0;points=[[0,0.5],[1,0.5]];portConstraint=eastwest;top=0;left=0;right=0;bottom=1;" parent="kKTXV7pDH5wiCtCQfZ3n-158" vertex="1">
          <mxGeometry y="60" width="180" height="30" as="geometry" />
        </mxCell>
        <mxCell id="kKTXV7pDH5wiCtCQfZ3n-172" value="FK" style="shape=partialRectangle;connectable=0;fillColor=none;top=0;left=0;bottom=0;right=0;fontStyle=1;overflow=hidden;whiteSpace=wrap;html=1;" parent="kKTXV7pDH5wiCtCQfZ3n-171" vertex="1">
          <mxGeometry width="30" height="30" as="geometry">
            <mxRectangle width="30" height="30" as="alternateBounds" />
          </mxGeometry>
        </mxCell>
        <mxCell id="kKTXV7pDH5wiCtCQfZ3n-173" value="통합 게시글ID" style="shape=partialRectangle;connectable=0;fillColor=none;top=0;left=0;bottom=0;right=0;align=left;spacingLeft=6;fontStyle=5;overflow=hidden;whiteSpace=wrap;html=1;" parent="kKTXV7pDH5wiCtCQfZ3n-171" vertex="1">
          <mxGeometry x="30" width="150" height="30" as="geometry">
            <mxRectangle width="150" height="30" as="alternateBounds" />
          </mxGeometry>
        </mxCell>
        <mxCell id="kKTXV7pDH5wiCtCQfZ3n-174" value="" style="shape=tableRow;horizontal=0;startSize=0;swimlaneHead=0;swimlaneBody=0;fillColor=none;collapsible=0;dropTarget=0;points=[[0,0.5],[1,0.5]];portConstraint=eastwest;top=0;left=0;right=0;bottom=1;" parent="kKTXV7pDH5wiCtCQfZ3n-158" vertex="1">
          <mxGeometry y="90" width="180" height="30" as="geometry" />
        </mxCell>
        <mxCell id="kKTXV7pDH5wiCtCQfZ3n-175" value="FK" style="shape=partialRectangle;connectable=0;fillColor=none;top=0;left=0;bottom=0;right=0;fontStyle=1;overflow=hidden;whiteSpace=wrap;html=1;" parent="kKTXV7pDH5wiCtCQfZ3n-174" vertex="1">
          <mxGeometry width="30" height="30" as="geometry">
            <mxRectangle width="30" height="30" as="alternateBounds" />
          </mxGeometry>
        </mxCell>
        <mxCell id="kKTXV7pDH5wiCtCQfZ3n-176" value="유저ID (둘 중에 하나)" style="shape=partialRectangle;connectable=0;fillColor=none;top=0;left=0;bottom=0;right=0;align=left;spacingLeft=6;fontStyle=5;overflow=hidden;whiteSpace=wrap;html=1;" parent="kKTXV7pDH5wiCtCQfZ3n-174" vertex="1">
          <mxGeometry x="30" width="150" height="30" as="geometry">
            <mxRectangle width="150" height="30" as="alternateBounds" />
          </mxGeometry>
        </mxCell>
        <mxCell id="kKTXV7pDH5wiCtCQfZ3n-177" value="" style="shape=tableRow;horizontal=0;startSize=0;swimlaneHead=0;swimlaneBody=0;fillColor=none;collapsible=0;dropTarget=0;points=[[0,0.5],[1,0.5]];portConstraint=eastwest;top=0;left=0;right=0;bottom=1;" parent="kKTXV7pDH5wiCtCQfZ3n-158" vertex="1">
          <mxGeometry y="120" width="180" height="30" as="geometry" />
        </mxCell>
        <mxCell id="kKTXV7pDH5wiCtCQfZ3n-178" value="FK" style="shape=partialRectangle;connectable=0;fillColor=none;top=0;left=0;bottom=0;right=0;fontStyle=1;overflow=hidden;whiteSpace=wrap;html=1;" parent="kKTXV7pDH5wiCtCQfZ3n-177" vertex="1">
          <mxGeometry width="30" height="30" as="geometry">
            <mxRectangle width="30" height="30" as="alternateBounds" />
          </mxGeometry>
        </mxCell>
        <mxCell id="kKTXV7pDH5wiCtCQfZ3n-179" value="통합 - 댓글ID" style="shape=partialRectangle;connectable=0;fillColor=none;top=0;left=0;bottom=0;right=0;align=left;spacingLeft=6;fontStyle=5;overflow=hidden;whiteSpace=wrap;html=1;" parent="kKTXV7pDH5wiCtCQfZ3n-177" vertex="1">
          <mxGeometry x="30" width="150" height="30" as="geometry">
            <mxRectangle width="150" height="30" as="alternateBounds" />
          </mxGeometry>
        </mxCell>
        <mxCell id="kKTXV7pDH5wiCtCQfZ3n-162" value="" style="shape=tableRow;horizontal=0;startSize=0;swimlaneHead=0;swimlaneBody=0;fillColor=none;collapsible=0;dropTarget=0;points=[[0,0.5],[1,0.5]];portConstraint=eastwest;top=0;left=0;right=0;bottom=0;" parent="kKTXV7pDH5wiCtCQfZ3n-158" vertex="1">
          <mxGeometry y="150" width="180" height="30" as="geometry" />
        </mxCell>
        <mxCell id="kKTXV7pDH5wiCtCQfZ3n-163" value="" style="shape=partialRectangle;connectable=0;fillColor=none;top=0;left=0;bottom=0;right=0;editable=1;overflow=hidden;whiteSpace=wrap;html=1;" parent="kKTXV7pDH5wiCtCQfZ3n-162" vertex="1">
          <mxGeometry width="30" height="30" as="geometry">
            <mxRectangle width="30" height="30" as="alternateBounds" />
          </mxGeometry>
        </mxCell>
        <mxCell id="kKTXV7pDH5wiCtCQfZ3n-164" value="댓글 내용(content) / TEXT" style="shape=partialRectangle;connectable=0;fillColor=none;top=0;left=0;bottom=0;right=0;align=left;spacingLeft=6;overflow=hidden;whiteSpace=wrap;html=1;" parent="kKTXV7pDH5wiCtCQfZ3n-162" vertex="1">
          <mxGeometry x="30" width="150" height="30" as="geometry">
            <mxRectangle width="150" height="30" as="alternateBounds" />
          </mxGeometry>
        </mxCell>
        <mxCell id="kKTXV7pDH5wiCtCQfZ3n-165" value="" style="shape=tableRow;horizontal=0;startSize=0;swimlaneHead=0;swimlaneBody=0;fillColor=none;collapsible=0;dropTarget=0;points=[[0,0.5],[1,0.5]];portConstraint=eastwest;top=0;left=0;right=0;bottom=0;" parent="kKTXV7pDH5wiCtCQfZ3n-158" vertex="1">
          <mxGeometry y="180" width="180" height="30" as="geometry" />
        </mxCell>
        <mxCell id="kKTXV7pDH5wiCtCQfZ3n-166" value="" style="shape=partialRectangle;connectable=0;fillColor=none;top=0;left=0;bottom=0;right=0;editable=1;overflow=hidden;whiteSpace=wrap;html=1;" parent="kKTXV7pDH5wiCtCQfZ3n-165" vertex="1">
          <mxGeometry width="30" height="30" as="geometry">
            <mxRectangle width="30" height="30" as="alternateBounds" />
          </mxGeometry>
        </mxCell>
        <mxCell id="kKTXV7pDH5wiCtCQfZ3n-167" value="생성 날짜(date) / DATETIME" style="shape=partialRectangle;connectable=0;fillColor=none;top=0;left=0;bottom=0;right=0;align=left;spacingLeft=6;overflow=hidden;whiteSpace=wrap;html=1;" parent="kKTXV7pDH5wiCtCQfZ3n-165" vertex="1">
          <mxGeometry x="30" width="150" height="30" as="geometry">
            <mxRectangle width="150" height="30" as="alternateBounds" />
          </mxGeometry>
        </mxCell>
        <mxCell id="kKTXV7pDH5wiCtCQfZ3n-180" value="" style="edgeStyle=entityRelationEdgeStyle;fontSize=12;html=1;endArrow=ERzeroToMany;endFill=1;rounded=0;exitX=1;exitY=0.5;exitDx=0;exitDy=0;entryX=1;entryY=0.5;entryDx=0;entryDy=0;" parent="kKTXV7pDH5wiCtCQfZ3n-158" source="kKTXV7pDH5wiCtCQfZ3n-159" target="kKTXV7pDH5wiCtCQfZ3n-177" edge="1">
          <mxGeometry width="100" height="100" relative="1" as="geometry">
            <mxPoint x="200" y="-46" as="sourcePoint" />
            <mxPoint x="300" y="-146" as="targetPoint" />
          </mxGeometry>
        </mxCell>
        <mxCell id="kKTXV7pDH5wiCtCQfZ3n-181" value="" style="edgeStyle=entityRelationEdgeStyle;fontSize=12;html=1;endArrow=ERzeroToMany;endFill=1;rounded=0;entryX=1;entryY=0.5;entryDx=0;entryDy=0;exitX=1;exitY=0.5;exitDx=0;exitDy=0;" parent="1" source="kKTXV7pDH5wiCtCQfZ3n-143" target="kKTXV7pDH5wiCtCQfZ3n-171" edge="1">
          <mxGeometry width="100" height="100" relative="1" as="geometry">
            <mxPoint x="1280" y="1750" as="sourcePoint" />
            <mxPoint x="1380" y="1650" as="targetPoint" />
          </mxGeometry>
        </mxCell>
        <mxCell id="kKTXV7pDH5wiCtCQfZ3n-182" value="" style="edgeStyle=entityRelationEdgeStyle;fontSize=12;html=1;endArrow=ERzeroToMany;endFill=1;rounded=0;entryX=0;entryY=0.5;entryDx=0;entryDy=0;exitX=1;exitY=0.5;exitDx=0;exitDy=0;" parent="1" source="8ky8RM0VNlPD6aG0PIWe-297" target="kKTXV7pDH5wiCtCQfZ3n-174" edge="1">
          <mxGeometry width="100" height="100" relative="1" as="geometry">
            <mxPoint x="1030" y="1760" as="sourcePoint" />
            <mxPoint x="1130" y="1660" as="targetPoint" />
          </mxGeometry>
        </mxCell>
        <mxCell id="kKTXV7pDH5wiCtCQfZ3n-183" value="" style="edgeStyle=entityRelationEdgeStyle;fontSize=12;html=1;endArrow=ERzeroToMany;endFill=1;rounded=0;entryX=0;entryY=0.5;entryDx=0;entryDy=0;exitX=1;exitY=0.5;exitDx=0;exitDy=0;" parent="1" source="8ky8RM0VNlPD6aG0PIWe-297" target="kKTXV7pDH5wiCtCQfZ3n-155" edge="1">
          <mxGeometry width="100" height="100" relative="1" as="geometry">
            <mxPoint x="630" y="1730" as="sourcePoint" />
            <mxPoint x="730" y="1630" as="targetPoint" />
          </mxGeometry>
        </mxCell>
        <mxCell id="kKTXV7pDH5wiCtCQfZ3n-214" value="" style="edgeStyle=entityRelationEdgeStyle;fontSize=12;html=1;endArrow=ERmandOne;startArrow=ERmandOne;rounded=0;exitX=1;exitY=0.5;exitDx=0;exitDy=0;entryX=0;entryY=0.5;entryDx=0;entryDy=0;" parent="1" source="8ky8RM0VNlPD6aG0PIWe-284" target="8ky8RM0VNlPD6aG0PIWe-420" edge="1">
          <mxGeometry width="100" height="100" relative="1" as="geometry">
            <mxPoint x="-60" y="1810" as="sourcePoint" />
            <mxPoint x="40" y="1710" as="targetPoint" />
          </mxGeometry>
        </mxCell>
        <mxCell id="kKTXV7pDH5wiCtCQfZ3n-215" value="" style="edgeStyle=entityRelationEdgeStyle;fontSize=12;html=1;endArrow=ERmandOne;startArrow=ERmandOne;rounded=0;exitX=1;exitY=0.5;exitDx=0;exitDy=0;entryX=0;entryY=0.5;entryDx=0;entryDy=0;" parent="1" source="8ky8RM0VNlPD6aG0PIWe-258" target="8ky8RM0VNlPD6aG0PIWe-417" edge="1">
          <mxGeometry width="100" height="100" relative="1" as="geometry">
            <mxPoint x="-540" y="1320" as="sourcePoint" />
            <mxPoint x="-440" y="1220" as="targetPoint" />
          </mxGeometry>
        </mxCell>
        <mxCell id="kKTXV7pDH5wiCtCQfZ3n-216" value="" style="edgeStyle=entityRelationEdgeStyle;fontSize=12;html=1;endArrow=ERzeroToMany;endFill=1;rounded=0;exitX=1;exitY=0.5;exitDx=0;exitDy=0;entryX=1;entryY=0.5;entryDx=0;entryDy=0;" parent="1" source="8ky8RM0VNlPD6aG0PIWe-297" target="kKTXV7pDH5wiCtCQfZ3n-1" edge="1">
          <mxGeometry width="100" height="100" relative="1" as="geometry">
            <mxPoint x="-110" y="1655" as="sourcePoint" />
            <mxPoint x="-110" y="1515" as="targetPoint" />
          </mxGeometry>
        </mxCell>
      </root>
    </mxGraphModel>
  </diagram>
</mxfile>
